<svg xmlns="http://www.w3.org/2000/svg" xmlns:xlink="http://www.w3.org/1999/xlink" width="298" height="279" viewBox="0 0 298 279">
  <defs>
    <clipPath id="clip-path">
      <rect id="Rectangle_43" data-name="Rectangle 43" width="298" height="279" fill="none"/>
    </clipPath>
    <clipPath id="clip-path-5">
      <rect id="Rectangle_15" data-name="Rectangle 15" width="159.988" height="161.695" fill="none"/>
    </clipPath>
    <clipPath id="clip-path-6">
      <rect id="Rectangle_16" data-name="Rectangle 16" width="150.932" height="65.087" fill="none"/>
    </clipPath>
    <clipPath id="clip-path-7">
      <rect id="Rectangle_17" data-name="Rectangle 17" width="130.033" height="94.302" fill="none"/>
    </clipPath>
    <clipPath id="clip-path-8">
      <rect id="Rectangle_18" data-name="Rectangle 18" width="125.539" height="45.94" fill="none"/>
    </clipPath>
    <clipPath id="clip-path-9">
      <rect id="Rectangle_43-5" data-name="Rectangle 43" width="298" height="279" transform="translate(6 3)" fill="none"/>
    </clipPath>
    <clipPath id="clip-path-10">
      <rect id="Rectangle_21" data-name="Rectangle 21" width="18.702" height="31.136" fill="none"/>
    </clipPath>
    <clipPath id="clip-path-11">
      <rect id="Rectangle_24" data-name="Rectangle 24" width="22.701" height="34.765" fill="none"/>
    </clipPath>
    <clipPath id="clip-path-12">
      <rect id="Rectangle_25" data-name="Rectangle 25" width="8.376" height="24.184" fill="none"/>
    </clipPath>
    <clipPath id="clip-path-14">
      <rect id="Rectangle_27" data-name="Rectangle 27" width="33.277" height="33.028" fill="none"/>
    </clipPath>
    <clipPath id="clip-path-16">
      <rect id="Rectangle_29" data-name="Rectangle 29" width="7.496" height="8.446" fill="none"/>
    </clipPath>
    <clipPath id="clip-path-17">
      <rect id="Rectangle_30" data-name="Rectangle 30" width="2.749" height="2.969" fill="none"/>
    </clipPath>
    <clipPath id="clip-path-18">
      <rect id="Rectangle_33" data-name="Rectangle 33" width="30.251" height="11.441" fill="none"/>
    </clipPath>
    <clipPath id="clip-path-19">
      <rect id="Rectangle_35" data-name="Rectangle 35" width="16.4" height="7.555" fill="none"/>
    </clipPath>
    <clipPath id="clip-path-20">
      <rect id="Rectangle_36" data-name="Rectangle 36" width="15.631" height="4.806" fill="none"/>
    </clipPath>
    <clipPath id="clip-path-21">
      <rect id="Rectangle_38" data-name="Rectangle 38" width="1.436" height="5.347" fill="none"/>
    </clipPath>
    <clipPath id="clip-path-22">
      <rect id="Rectangle_39" data-name="Rectangle 39" width="4.814" height="8.673" fill="none"/>
    </clipPath>
    <clipPath id="clip-path-23">
      <rect id="Rectangle_40" data-name="Rectangle 40" width="2.801" height="11.725" fill="none"/>
    </clipPath>
    <clipPath id="clip-path-24">
      <rect id="Rectangle_41" data-name="Rectangle 41" width="3.865" height="34.765" fill="none"/>
    </clipPath>
  </defs>
  <g id="Group_85" data-name="Group 85" clip-path="url(#clip-path)">
    <g id="Group_2" data-name="Group 2">
      <g id="Group_1" data-name="Group 1" clip-path="url(#clip-path)">
        <path id="Path_1" data-name="Path 1" d="M358.64,182.855H237.581a3.917,3.917,0,0,1-3.926-3.906V3.9A3.917,3.917,0,0,1,237.581,0H358.64a3.917,3.917,0,0,1,3.926,3.906V178.958a3.917,3.917,0,0,1-3.926,3.906M237.581.164A3.75,3.75,0,0,0,233.822,3.9V178.958a3.75,3.75,0,0,0,3.759,3.731H358.64a3.75,3.75,0,0,0,3.759-3.731V3.9A3.75,3.75,0,0,0,358.64.164Z" transform="translate(-77.16 0.002)" fill="#e0e0e0"/>
        <path id="Path_2" data-name="Path 2" d="M150.212,182.855H29.153a3.917,3.917,0,0,1-3.926-3.906V3.9A3.917,3.917,0,0,1,29.153,0H150.212a3.917,3.917,0,0,1,3.926,3.906V178.958a3.917,3.917,0,0,1-3.926,3.906M29.153.164A3.75,3.75,0,0,0,25.394,3.9V178.958a3.75,3.75,0,0,0,3.759,3.731H150.212a3.75,3.75,0,0,0,3.759-3.731V3.9A3.75,3.75,0,0,0,150.212.164Z" transform="translate(-8.331 0.002)" fill="#e0e0e0"/>
        <rect id="Rectangle_4" data-name="Rectangle 4" width="10.756" height="0.166" transform="translate(18.764 232.95)" fill="#e0e0e0"/>
        <rect id="Rectangle_5" data-name="Rectangle 5" width="35.853" height="0.166" transform="translate(98.251 231.15)" fill="#e0e0e0"/>
        <rect id="Rectangle_6" data-name="Rectangle 6" width="24.279" height="0.166" transform="translate(30.19 239.127)" fill="#e0e0e0"/>
        <rect id="Rectangle_7" data-name="Rectangle 7" width="28.927" height="0.166" transform="translate(237.563 231.062)" fill="#e0e0e0"/>
        <rect id="Rectangle_8" data-name="Rectangle 8" width="4.239" height="0.166" transform="translate(272.458 231.062)" fill="#e0e0e0"/>
        <rect id="Rectangle_9" data-name="Rectangle 9" width="36.093" height="0.166" transform="translate(195.944 235.204)" fill="#e0e0e0"/>
        <path id="Path_3" data-name="Path 3" d="M46.165,320.292a2.643,2.643,0,0,1,1.985-1.685,3.488,3.488,0,0,1,2,.2,4.194,4.194,0,0,1,1.148.625,4.118,4.118,0,0,1-.048-1.3,3.43,3.43,0,0,1,.707-1.86,2.442,2.442,0,0,1,4.4.93,6.6,6.6,0,0,1,.134,3,13.423,13.423,0,0,1-1.609,4.983,13.333,13.333,0,0,1-5.208-.8,6.708,6.708,0,0,1-2.645-1.46,2.654,2.654,0,0,1-.861-2.641" transform="translate(-15.201 -105.628)" fill="#ebebeb"/>
        <path id="Path_96" data-name="Path 96" d="M0,0,63.167.13l.087,42.114L.087,42.114Z" transform="matrix(0.954, -0.299, 0.299, 0.954, 224.449, 136.166)" fill="#ebebeb"/>
        <path id="Path_4" data-name="Path 4" d="M335.965,195.861s36.467,16.069,37.6,15.717,21.853-34.295,21.853-34.295" transform="translate(-110.946 -59.4)" fill="none" stroke="#fafafa" stroke-linecap="round" stroke-linejoin="round" stroke-width="1"/>
        <line id="Line_1" data-name="Line 1" y1="28.867" x2="13.381" transform="translate(237.124 147.461)" fill="none" stroke="#fafafa" stroke-miterlimit="10" stroke-width="1"/>
        <line id="Line_2" data-name="Line 2" x1="27.74" y1="15.507" transform="translate(269.696 142.063)" fill="none" stroke="#fafafa" stroke-miterlimit="10" stroke-width="1"/>
        <path id="Path_97" data-name="Path 97" d="M0,0,32.016.093l.138,47.943L.138,47.941Z" transform="translate(0.124 157.845) rotate(-63.717)" fill="#ebebeb"/>
        <path id="Path_5" data-name="Path 5" d="M21.715,194.96s11.532,27.824,12.349,28.22S64.2,215.725,64.2,215.725" transform="translate(-7.172 -65.322)" fill="none" stroke="#fafafa" stroke-linecap="round" stroke-linejoin="round" stroke-width="1"/>
        <line id="Line_3" data-name="Line 3" y1="8.887" x2="22.606" transform="translate(0.123 148.956)" fill="none" stroke="#fafafa" stroke-miterlimit="10" stroke-width="1"/>
        <line id="Line_4" data-name="Line 4" x1="7.042" y1="22.967" transform="translate(36.125 155.989)" fill="none" stroke="#fafafa" stroke-miterlimit="10" stroke-width="1"/>
        <path id="Path_98" data-name="Path 98" d="M0,0,34.782.022l.035,52.234L.035,52.234Z" transform="translate(168.736 62.291) rotate(-84.723)" fill="#ebebeb"/>
        <path id="Path_6" data-name="Path 6" d="M257.244,42.194S279.9,65.98,280.879,66.071s27.669-19.245,27.669-19.245" transform="translate(-84.95 -14.136)" fill="none" stroke="#fafafa" stroke-linecap="round" stroke-linejoin="round" stroke-width="1"/>
        <line id="Line_5" data-name="Line 5" y1="17.785" x2="19.467" transform="translate(168.735 44.506)" fill="none" stroke="#fafafa" stroke-miterlimit="10" stroke-width="1"/>
        <line id="Line_6" data-name="Line 6" x1="16.182" y1="20.598" transform="translate(204.572 46.457)" fill="none" stroke="#fafafa" stroke-miterlimit="10" stroke-width="1"/>
        <path id="Path_7" data-name="Path 7" d="M372.076,109.382a3.85,3.85,0,0,1,3.623,1.066,4.953,4.953,0,0,1,1.321,2.567,5.95,5.95,0,0,1,.141,1.875,6.019,6.019,0,0,1,1.549-1.081,5.033,5.033,0,0,1,2.835-.616,3.495,3.495,0,0,1,2.318,6.038,9.672,9.672,0,0,1-3.562,2.522,19.734,19.734,0,0,1-7.354,1.986,18.957,18.957,0,0,1-3.119-6.9,9.547,9.547,0,0,1-.3-4.336,3.863,3.863,0,0,1,2.548-3.117" transform="translate(-121.978 -36.607)" fill="#ebebeb"/>
        <path id="Path_8" data-name="Path 8" d="M56.676,46.654a2.645,2.645,0,0,1,1.986-1.685,3.486,3.486,0,0,1,2,.2,4.173,4.173,0,0,1,1.148.625,4.122,4.122,0,0,1-.048-1.3,3.409,3.409,0,0,1,.707-1.86,2.442,2.442,0,0,1,4.4.93,6.6,6.6,0,0,1,.134,3,13.411,13.411,0,0,1-1.607,4.983,13.331,13.331,0,0,1-5.208-.8,6.7,6.7,0,0,1-2.645-1.46,2.656,2.656,0,0,1-.861-2.641" transform="translate(-18.672 -13.942)" fill="#ebebeb"/>
        <path id="Path_9" data-name="Path 9" d="M390.161,40.345a2.645,2.645,0,0,1,1.987-1.685,3.48,3.48,0,0,1,2,.206,4.171,4.171,0,0,1,1.148.625,4.093,4.093,0,0,1-.048-1.3,3.414,3.414,0,0,1,.707-1.86,2.442,2.442,0,0,1,4.4.93,6.585,6.585,0,0,1,.134,3,13.39,13.39,0,0,1-1.607,4.983,13.332,13.332,0,0,1-5.208-.8,6.7,6.7,0,0,1-2.645-1.46,2.654,2.654,0,0,1-.861-2.641" transform="translate(-128.799 -11.828)" fill="#ebebeb"/>
      </g>
    </g>
    <g id="Group_4" data-name="Group 4">
      <g id="Group_3" data-name="Group 3" clip-path="url(#clip-path)">
        <path id="Path_10" data-name="Path 10" d="M294.675,411.4c0,2.252-62.634,4.077-139.9,4.077s-139.9-1.825-139.9-4.077,62.635-4.077,139.9-4.077,139.9,1.825,139.9,4.077" transform="translate(-4.913 -136.475)" fill="#f5f5f5"/>
      </g>
    </g>
    <g id="Group_18" data-name="Group 18">
      <g id="Group_17" data-name="Group 17" clip-path="url(#clip-path)">
        <path id="Path_11" data-name="Path 11" d="M279.654,278.317,135.346,265.1a3.266,3.266,0,0,1-2.976-3.545l9.129-98.225,73.965-45.6a7.323,7.323,0,0,1,8.625.675l68.262,58.741-9.131,98.249a3.277,3.277,0,0,1-3.569,2.922" transform="translate(-43.713 -39.078)" fill="#407bff"/>
        <g id="Group_7" data-name="Group 7" transform="translate(88.651 77.556)" opacity="0.9">
          <g id="Group_6" data-name="Group 6">
            <g id="Group_5" data-name="Group 5" clip-path="url(#clip-path-5)">
              <path id="Path_12" data-name="Path 12" d="M279.654,278.317,135.346,265.1a3.266,3.266,0,0,1-2.976-3.545l9.129-98.225,73.965-45.6a7.323,7.323,0,0,1,8.625.675l68.262,58.741-9.131,98.249a3.277,3.277,0,0,1-3.569,2.922" transform="translate(-132.364 -116.634)" fill="#fff3e0"/>
            </g>
          </g>
        </g>
        <path id="Path_13" data-name="Path 13" d="M292.363,200.674l-9.129,98.256a3.275,3.275,0,0,1-3.216,2.93l-.327-.03L135.364,288.611l-.335-.03a3.264,3.264,0,0,1-2.6-3.463l9.131-98.256,60.151,49.919,3.288,2.757,5.281,4.388L216.6,240.6l3.938-2.094Z" transform="translate(-43.722 -62.608)" fill="#fff3e0"/>
        <g id="Group_10" data-name="Group 10" transform="translate(88.696 174.159)" opacity="0.2">
          <g id="Group_9" data-name="Group 9">
            <g id="Group_8" data-name="Group 8" clip-path="url(#clip-path-6)">
              <path id="Path_14" data-name="Path 14" d="M283.362,322.8l-.089.965A3.46,3.46,0,0,1,280.029,327l-.327-.03L135.365,313.749l-.335-.03a3.448,3.448,0,0,1-2.576-3.772l.091-.973,69.17-47.058L205,264.673l5.281,4.388,6.324-3.324,3.938-2.094Z" transform="translate(-132.43 -261.912)"/>
            </g>
          </g>
        </g>
        <path id="Path_15" data-name="Path 15" d="M289.564,186.21,231.088,217l-18.362-1.347-48.36-40.118,4.91-52.837L294.4,134.161Z" transform="translate(-54.28 -41.111)" fill="#407bff"/>
        <g id="Group_13" data-name="Group 13" transform="translate(110.088 81.589)">
          <g id="Group_12" data-name="Group 12">
            <g id="Group_11" data-name="Group 11" clip-path="url(#clip-path-7)">
              <path id="Path_16" data-name="Path 16" d="M289.564,186.21,231.088,217l-18.362-1.347-48.36-40.118,4.91-52.837L294.4,134.161Z" transform="translate(-164.37 -122.7)" fill="#f3e3c9"/>
            </g>
          </g>
        </g>
        <g id="Group_16" data-name="Group 16" transform="translate(110.088 129.951)" opacity="0.2">
          <g id="Group_15" data-name="Group 15">
            <g id="Group_14" data-name="Group 14" clip-path="url(#clip-path-8)">
              <path id="Path_17" data-name="Path 17" d="M164.786,195.431l49.143,41.523a14.21,14.21,0,0,1,8.675-1.568,38.176,38.176,0,0,1,8.041,3.1l59.261-31.594-.342,3.686-58.477,30.79-18.362-1.347L164.366,199.9Z" transform="translate(-164.37 -195.431)"/>
            </g>
          </g>
        </g>
        <path id="Path_18" data-name="Path 18" d="M283.34,322.467l-.086.915a3.333,3.333,0,0,1-3.581,3.056L135.368,313.219a3.322,3.322,0,0,1-2.957-3.655l.086-.915L205.153,262.2l1.471-.939a7.139,7.139,0,0,1,8.625.671l1.525,1.332Z" transform="translate(-43.722 -87.157)" fill="#fff3e0"/>
        <path id="Path_19" data-name="Path 19" d="M171.372,183.348l4.76-51.211,114.051,10.448-4.639,49.908" transform="translate(-56.593 -44.272)" fill="none" stroke="#fff3e0" stroke-linecap="round" stroke-linejoin="round" stroke-width="1"/>
      </g>
    </g>
    <g id="Group_38" data-name="Group 38">
      <g id="Group_37" data-name="Group 37" clip-path="url(#clip-path-9)">
        <path id="Path_20" data-name="Path 20" d="M380.632,346.226a23.43,23.43,0,0,1-.869-5.3,7.894,7.894,0,0,1,1.549-5.05c.91-1.125,2.213-1.893,3.1-3.041,1.488-1.925,1.637-4.732,3.471-6.324a24.993,24.993,0,0,1,4.35-2.158,34.465,34.465,0,0,0,3.789-3.149,4.691,4.691,0,0,1,4.585-1.056c1.893.839,2.331,3.383,1.825,5.379s-1.665,3.8-2,5.833c-.234,1.408-.117,3.009-1.083,4.068-1.017,1.116-2.831,1.136-3.96,2.139-1.2,1.066-1.276,2.861-1.72,4.4a8.556,8.556,0,0,1-5.161,5.545,8.644,8.644,0,0,1-7.559-.82" transform="translate(-125.412 -107.158)" fill="#d5c6ae"/>
        <path id="Path_22" data-name="Path 22" d="M375.4,306.8a23.887,23.887,0,0,1-4.992-2.076,7.949,7.949,0,0,1-3.5-3.979c-.48-1.362-.445-2.868-.96-4.219-.861-2.265-3.177-3.884-3.571-6.274a24.573,24.573,0,0,1,.459-4.806,33.963,33.963,0,0,0-.685-4.858,4.615,4.615,0,0,1,1.525-4.419c1.719-1.15,4.124-.171,5.563,1.3s2.37,3.415,3.925,4.775c1.079.943,2.509,1.693,2.9,3.065.415,1.447-.526,2.985-.268,4.464.275,1.575,1.769,2.589,2.846,3.776a8.359,8.359,0,0,1-2.7,13.217" transform="translate(-119.595 -92.363)" fill="#cbbba2"/>
        <g id="Group_24" data-name="Group 24" transform="translate(242.859 183.305)" opacity="0.2">
          <g id="Group_23" data-name="Group 23">
            <g id="Group_22" data-name="Group 22" clip-path="url(#clip-path-10)">
              <path id="Path_23" data-name="Path 23" d="M375.4,306.8a23.887,23.887,0,0,1-4.992-2.076,7.949,7.949,0,0,1-3.5-3.979c-.48-1.362-.445-2.868-.96-4.219-.861-2.265-3.177-3.884-3.571-6.274a24.573,24.573,0,0,1,.459-4.806,33.963,33.963,0,0,0-.685-4.858,4.615,4.615,0,0,1,1.525-4.419c1.719-1.15,4.124-.171,5.563,1.3s2.37,3.415,3.925,4.775c1.079.943,2.509,1.693,2.9,3.065.415,1.447-.526,2.985-.268,4.464.275,1.575,1.769,2.589,2.846,3.776a8.359,8.359,0,0,1-2.7,13.217" transform="translate(-362.109 -275.668)" fill="#fff3e0"/>
            </g>
          </g>
        </g>
        <path id="Path_24" data-name="Path 24" d="M365.13,345.71a18.179,18.179,0,0,1-3.37,2.383,6.147,6.147,0,0,1-4.012.651c-1.084-.24-2.046-.869-3.145-1.083-1.828-.357-3.822.484-5.543-.225A19.054,19.054,0,0,1,346.1,345.2a26.523,26.523,0,0,0-3.454-1.516,3.547,3.547,0,0,1-2.279-2.764c-.06-1.572,1.551-2.729,3.1-3.058s3.19-.151,4.706-.606a5.9,5.9,0,0,1,3.175-.636c1.116.316,1.741,1.544,2.814,1.973a6.715,6.715,0,0,0,3.618-.314,6.6,6.6,0,0,1,5.58,1.642,6.493,6.493,0,0,1,1.987,5.424" transform="translate(-112.399 -112.741)" fill="#fff3e0"/>
        <path id="Path_26" data-name="Path 26" d="M364.173,329.473a24.508,24.508,0,0,1-5.511.443,8.2,8.2,0,0,1-5.054-1.981c-1.081-1.012-1.76-2.394-2.865-3.38-1.86-1.654-4.719-2.046-6.207-4.029a25.193,25.193,0,0,1-1.86-4.576,34.953,34.953,0,0,0-2.918-4.092,4.706,4.706,0,0,1-.707-4.721c1.015-1.845,3.662-2.078,5.667-1.4s3.765,2,5.82,2.5c1.425.353,3.078.372,4.092,1.43,1.06,1.116.93,2.954,1.86,4.179.993,1.3,2.829,1.525,4.369,2.1a8.543,8.543,0,0,1,3.8,13.249" transform="translate(-111.833 -102.322)" fill="#d5c6ae"/>
        <path id="Path_28" data-name="Path 28" d="M378.862,309.218A26.973,26.973,0,0,1,376.8,303.4a9.045,9.045,0,0,1,.724-6.017c.8-1.455,2.117-2.584,2.881-4.057,1.282-2.472.889-5.675,2.636-7.845a28.647,28.647,0,0,1,4.477-3.309,39.276,39.276,0,0,0,3.642-4.317,5.372,5.372,0,0,1,4.964-2.111c2.31.569,3.32,3.348,3.162,5.712s-1.116,4.631-1.077,6.994c.02,1.639.478,3.424-.4,4.814-.93,1.464-2.976,1.851-4.04,3.21-1.14,1.443-.861,3.487-1.051,5.312a9.783,9.783,0,0,1-4.706,7.3,9.923,9.923,0,0,1-8.708.588" transform="translate(-124.371 -92.336)" fill="#fff3e0"/>
        <g id="Group_33" data-name="Group 33" transform="translate(252.942 182.308)" opacity="0.4">
          <g id="Group_32" data-name="Group 32">
            <g id="Group_31" data-name="Group 31" clip-path="url(#clip-path-11)">
              <path id="Path_29" data-name="Path 29" d="M378.862,309.218A26.973,26.973,0,0,1,376.8,303.4a9.045,9.045,0,0,1,.724-6.017c.8-1.455,2.117-2.584,2.881-4.057,1.282-2.472.889-5.675,2.636-7.845a28.647,28.647,0,0,1,4.477-3.309,39.276,39.276,0,0,0,3.642-4.317,5.372,5.372,0,0,1,4.964-2.111c2.31.569,3.32,3.348,3.162,5.712s-1.116,4.631-1.077,6.994c.02,1.639.478,3.424-.4,4.814-.93,1.464-2.976,1.851-4.04,3.21-1.14,1.443-.861,3.487-1.051,5.312a9.783,9.783,0,0,1-4.706,7.3,9.923,9.923,0,0,1-8.708.588" transform="translate(-376.6 -275.641)" fill="#fff3e0"/>
            </g>
          </g>
        </g>
        <path id="Path_30" data-name="Path 30" d="M376.315,354.144a262.447,262.447,0,0,1,20.6-26.695c.208-.244-.145-.6-.355-.353a263.58,263.58,0,0,0-20.676,26.8c-.186.27.258.521.433.253" transform="translate(-124.114 -109.563)" fill="#263238"/>
        <path id="Path_31" data-name="Path 31" d="M376.279,340.3a63.692,63.692,0,0,1,2.777-21.5,113.254,113.254,0,0,1,8.664-22.525,60.2,60.2,0,0,1,6.112-9.745c.2-.249-.156-.6-.355-.353a76.588,76.588,0,0,0-10.433,19.158,107.036,107.036,0,0,0-6.668,23.559,49.128,49.128,0,0,0-.6,11.407c.026.318.528.32.5,0" transform="translate(-124.053 -95.856)" fill="#263238"/>
        <path id="Path_32" data-name="Path 32" d="M367.945,331.533c-1.882-3.785-5.455-6.2-8.857-8.528a42.524,42.524,0,0,1-10.617-9.9c-.186-.257-.625,0-.433.251a41,41,0,0,0,9.951,9.5c3.594,2.483,7.522,4.9,9.525,8.928.143.286.577.035.433-.253" transform="translate(-114.917 -104.87)" fill="#263238"/>
        <path id="Path_33" data-name="Path 33" d="M385.628,366.237H354.7s-1.157,20.088,8.606,28.047l-3.534,4.17h21.332l-4.029-4.38s8.033-3.441,8.545-27.835" transform="translate(-117.12 -122.709)" fill="#263238"/>
        <g id="Group_36" data-name="Group 36" transform="translate(239.419 245.312)" opacity="0.3">
          <g id="Group_35" data-name="Group 35">
            <g id="Group_34" data-name="Group 34" clip-path="url(#clip-path-12)">
              <path id="Path_34" data-name="Path 34" d="M365.537,368.921l-8.069.073a72.5,72.5,0,0,0,2.016,12.873,24.416,24.416,0,0,0,6.359,11.238c-2.046-7.749-1.235-16.227-.305-24.18" transform="translate(-357.468 -368.921)" fill="#fff"/>
            </g>
          </g>
        </g>
      </g>
    </g>
    <g id="Group_43" data-name="Group 43">
      <g id="Group_42" data-name="Group 42" clip-path="url(#clip-path)">
        <path id="Path_35" data-name="Path 35" d="M138.159,52.191a16.718,16.718,0,0,1,23.336,2.987,16.439,16.439,0,0,1-3.009,23.168,16.729,16.729,0,0,1-18.831,1.006l-4.782,1.436.456-5.223c-.058-.073-.123-.136-.186-.208a16.439,16.439,0,0,1,3.017-23.166" transform="translate(-43.487 -16.332)" fill="#fff3e0"/>
        <path id="Path_36" data-name="Path 36" d="M168.158,50.293a16.569,16.569,0,0,0-14.869-4.542" transform="translate(-50.621 -15.221)" fill="none" stroke="#dfcdb1" stroke-linecap="round" stroke-linejoin="round" stroke-width="0.5"/>
        <path id="Path_37" data-name="Path 37" d="M148.544,46.787a6.04,6.04,0,0,0-2.321.8" transform="translate(-48.288 -15.675)" fill="none" stroke="#dcceb7" stroke-linecap="round" stroke-linejoin="round" stroke-width="0.5"/>
        <g id="Group_41" data-name="Group 41" transform="translate(87.979 32.416)" opacity="0.7">
          <g id="Group_40" data-name="Group 40">
            <g id="Group_39" data-name="Group 39" clip-path="url(#clip-path-14)">
              <path id="Path_38" data-name="Path 38" d="M138.159,52.191a16.718,16.718,0,0,1,23.336,2.987,16.439,16.439,0,0,1-3.009,23.168,16.729,16.729,0,0,1-18.831,1.006l-4.782,1.436.456-5.223c-.058-.073-.123-.136-.186-.208a16.439,16.439,0,0,1,3.017-23.166" transform="translate(-131.684 -48.75)" fill="#fff3e0"/>
            </g>
          </g>
        </g>
      </g>
    </g>
    <g id="Group_84" data-name="Group 84" transform="translate(0 3)">
      <g id="Group_83" data-name="Group 83" clip-path="url(#clip-path)">
        <path id="Path_39" data-name="Path 39" d="M77.129,87.829a5.7,5.7,0,0,0-8.556-.037,13.169,13.169,0,0,0-1.7,2.8,39.1,39.1,0,0,1-4.278,6.6,11.082,11.082,0,0,1-3.3,3.008,15.077,15.077,0,0,1-6.657,1.071,9.352,9.352,0,0,0-6.346,1.962,2.314,2.314,0,0,0-.714,1.146c-.232,1.116.891,2.107,2.014,2.362s2.308.06,3.441.268A5.26,5.26,0,0,0,48.781,109a2.511,2.511,0,0,0,.186,2.846,3.348,3.348,0,0,0,1.908.869,10.825,10.825,0,0,0,5.515-.433c-1.016,1.075-2.111,2.418-1.763,3.856.372,1.572,2.275,2.232,3.906,2.316a18.715,18.715,0,0,0,10.474-3.313c4.388-2.714,8.415-6.627,9.486-11.647a51.334,51.334,0,0,1,1.153-6.969Z" transform="translate(-15.035 -28.773)" fill="#263238"/>
        <path id="Path_40" data-name="Path 40" d="M87.54,77.964a2.314,2.314,0,0,0-2.913-.772,4.4,4.4,0,0,0-.244,8.16l.1.77a10.855,10.855,0,0,0-6.259-2.991,6.216,6.216,0,0,0-3.82.6,3.348,3.348,0,0,0-1.767,3.233,3.534,3.534,0,0,0,3.024,2.691,8.223,8.223,0,0,0,4.233-.7,23.065,23.065,0,0,1,4.092-1.43c.463-.084,1.012-.186,1.2-.612a1.873,1.873,0,0,0,.05-.818,5.669,5.669,0,0,1,1.083-2.751,11.432,11.432,0,0,0,1.322-3.906,2.6,2.6,0,0,0-.1-1.471" transform="translate(-23.973 -25.804)" fill="#f2d6a9"/>
        <path id="Path_41" data-name="Path 41" d="M111.249,83.983a10.827,10.827,0,0,1,4.836,9.4c-.606,3.72-3.039,6.251-4.161,9.858l-8.3-22.084a14.986,14.986,0,0,1,7.626,2.829" transform="translate(-34.221 -27.19)" fill="#263238"/>
        <path id="Path_42" data-name="Path 42" d="M100.572,81.893c-3.858-1.918-7.76.1-10.044,1.52a11.142,11.142,0,0,0-4.205,8.139c-.086,2.976-.186,6.592,1.583,8.2a4.883,4.883,0,0,0,3.694,1.3L106.84,87.881a17.27,17.27,0,0,0-6.272-5.982" transform="translate(-28.495 -27.174)" fill="#263238"/>
        <path id="Path_43" data-name="Path 43" d="M101.513,127.405c-.96-.763-3.112-3.579-2.876-5.143l1.116-5.232v-.166l-3.534-1.845h0a2.306,2.306,0,0,0-3.244-.069c-.344.311-.6.186-.7.629-.024.1.039.735.028.835-.134,3.5-.735,5.7-2.716,7.219l7.873,8.8c4.349-2.9,4.618-4.522,4.047-5.022" transform="translate(-29.585 -38.3)" fill="#ffa565"/>
        <g id="Group_46" data-name="Group 46" transform="translate(62.678 75.672)" opacity="0.2">
          <g id="Group_45" data-name="Group 45">
            <g id="Group_44" data-name="Group 44" clip-path="url(#clip-path-16)">
              <path id="Path_44" data-name="Path 44" d="M100.034,121.8a5.329,5.329,0,0,1,.11-.588c.24-1.2.534-2.565.93-4.522a.558.558,0,0,1,0-.186l-3.7-1.975a2.45,2.45,0,0,0-3.439-.033c-.346.337-.253.761-.357,1.229a14.848,14.848,0,0,0,6.365,6.529,3.232,3.232,0,0,1,.093-.437Z" transform="translate(-93.585 -113.803)"/>
            </g>
          </g>
        </g>
        <path id="Path_45" data-name="Path 45" d="M89.618,93.527c-.045,6.9-.218,9.8,2.976,13.638,4.8,5.766,13.158,4.5,15.269-2.206,1.851-6.039,1.646-16.279-4.8-19.627a9.1,9.1,0,0,0-13.435,8.2" transform="translate(-29.588 -28.215)" fill="#ffa565"/>
        <path id="Path_46" data-name="Path 46" d="M84.67,104.979a5.608,5.608,0,0,0,3.078,2.989c1.787.666,3.073-2.163,2.654-4.062a3.72,3.72,0,0,0-3.889-2.848,2.654,2.654,0,0,0-1.843,3.923" transform="translate(-27.886 -33.853)" fill="#ffa565"/>
        <g id="Group_49" data-name="Group 49" transform="translate(58.134 68.394)" opacity="0.2">
          <g id="Group_48" data-name="Group 48">
            <g id="Group_47" data-name="Group 47" clip-path="url(#clip-path-17)">
              <path id="Path_47" data-name="Path 47" d="M89.458,105.742a2.541,2.541,0,0,0-.657-1.814,2.578,2.578,0,0,0-1.754-.824" transform="translate(-86.88 -102.941)" fill="none" stroke="#000" stroke-linecap="round" stroke-linejoin="round" stroke-width="0.5"/>
            </g>
          </g>
        </g>
        <path id="Path_48" data-name="Path 48" d="M102.2,102.4c-.05.735.281,1.378.744,1.44s.865-.484.915-1.218-.281-1.378-.744-1.44-.865.485-.915,1.218" transform="translate(-33.751 -33.898)" fill="#263238"/>
        <path id="Path_49" data-name="Path 49" d="M112.3,103.583c-.046.711.285,1.337.744,1.4s.861-.467.908-1.177-.285-1.337-.744-1.4-.859.467-.908,1.177" transform="translate(-37.082 -34.31)" fill="#263238"/>
        <path id="Path_50" data-name="Path 50" d="M101.131,98.368a.309.309,0,0,0,.255-.05,2.537,2.537,0,0,1,2.362-.372.318.318,0,0,0,.428-.186.372.372,0,0,0-.2-.454,3.162,3.162,0,0,0-2.993.441.346.346,0,0,0-.061.48.372.372,0,0,0,.214.145" transform="translate(-33.299 -32.537)" fill="#263238"/>
        <path id="Path_51" data-name="Path 51" d="M115.831,98.758a.26.26,0,0,0,.177-.132.372.372,0,0,0-.123-.461,2.9,2.9,0,0,0-2.79-.5.312.312,0,0,0-.125.43.327.327,0,0,0,.415.186,2.329,2.329,0,0,1,2.212.422.3.3,0,0,0,.24.056" transform="translate(-37.293 -32.669)" fill="#263238"/>
        <path id="Path_52" data-name="Path 52" d="M110.08,103.334a23.436,23.436,0,0,0,1.834,4.453.536.536,0,0,1-.346.785,3.486,3.486,0,0,1-1.86-.186Z" transform="translate(-36.225 -34.622)" fill="#e57c35"/>
        <path id="Path_53" data-name="Path 53" d="M103.047,101.113l1.637-.186s-1.008,1.083-1.637.186" transform="translate(-34.03 -33.811)" fill="#263238"/>
        <path id="Path_54" data-name="Path 54" d="M113.389,102.3l1.637-.186s-1.008,1.083-1.637.186" transform="translate(-37.445 -34.209)" fill="#263238"/>
        <path id="Path_55" data-name="Path 55" d="M107.119,112.587a16.289,16.289,0,0,0-1.4,1.9c-.13-.052-.259-.1-.385-.164-1.735-.744-2.292-1.674-2.379-2.457a2.4,2.4,0,0,1,.171-1.135,2.356,2.356,0,0,1,.312-.578,8.928,8.928,0,0,0,3.1,2.173c.355.173.588.266.588.266" transform="translate(-33.991 -36.906)" fill="#263238"/>
        <path id="Path_56" data-name="Path 56" d="M106.619,112.321l-.428.549c-1.633-.712-2.686-1.43-2.976-2.143a2.344,2.344,0,0,1,.314-.578,8.928,8.928,0,0,0,3.1,2.172" transform="translate(-34.081 -36.906)" fill="#fff"/>
        <path id="Path_57" data-name="Path 57" d="M105.335,115.182c-1.735-.744-2.292-1.674-2.379-2.457a6.077,6.077,0,0,1,1.76,1.213,2.26,2.26,0,0,1,.619,1.244" transform="translate(-34 -37.769)" fill="#f54948"/>
        <path id="Path_58" data-name="Path 58" d="M91.7,95.057s4.092-4.384,4.33-8.227c0,0,14.275-2.717,12.615,9.4,0,0,3.372-10.416-8.167-12.462s-14.368,12.908-9.268,18.3c.022-.054-2.046-4.252.491-7" transform="translate(-29.315 -27.996)" fill="#263238"/>
        <path id="Path_59" data-name="Path 59" d="M109.314,85.138a9.858,9.858,0,0,1,2.753,5.5c-.043,1.5-2.13,2.524-2.13,2.524l-2.418-3.348-.084,2.872a9.14,9.14,0,0,1-7.728-5.971l2.418-4s5.865,1.2,7.194,2.418" transform="translate(-32.927 -27.718)" fill="#263238"/>
        <path id="Path_60" data-name="Path 60" d="M119.573,134.876c.048-.048.238-.061.526,0a7.038,7.038,0,0,1,4.172,3.774c2.031,3.616,5.673,17.006,6.583,15.585a75.853,75.853,0,0,0,3.184-8.316l4.752-.7s-.078,16.8-3.932,20.224-7.035,1.038-8.85-.634c-1.6-1.477-8.928-17.27-8.941-17.287" transform="translate(-38.662 -45.178)" fill="#fff3e0"/>
        <path id="Path_62" data-name="Path 62" d="M100.981,144c-1.136,3.387-2.026,6.324-2.745,8.945a99.6,99.6,0,0,0-3.72,20.181L67.16,170.2a246.331,246.331,0,0,1,.6-35.431c.666-5.671,1.555-5.865,1.555-5.865s6.22-.476,11.621-.327a88,88,0,0,1,12.438,1.544,81.748,81.748,0,0,1,11.471,2.991c-.666,1.763-1.27,3.458-1.83,5.037-.744,2.1-1.421,4.04-2.026,5.848" transform="translate(-22.1 -43.072)" fill="#fff3e0"/>
        <g id="Group_58" data-name="Group 58" transform="translate(44.755 111.832)" opacity="0.2">
          <g id="Group_57" data-name="Group 57">
            <g id="Group_56" data-name="Group 56" clip-path="url(#clip-path-18)">
              <path id="Path_64" data-name="Path 64" d="M71.986,179.625l10.63-5.459,6.7-1.2,6.7,2.269,1.069-4.438-11.262-2.617-18.991,7.029.649,4.112Z" transform="translate(-66.821 -168.182)"/>
            </g>
          </g>
        </g>
        <path id="Path_65" data-name="Path 65" d="M130.217,121.364a23.667,23.667,0,0,0-12.992,25.954l16.571-.575s-1.748-6.324.781-10.7,9.955-8.588,9.791-8.506-14.151-6.177-14.151-6.177" transform="translate(-38.575 -40.662)" fill="#deccb0"/>
        <path id="Path_67" data-name="Path 67" d="M110.912,160.345l-4.546-6.4s-11.668,1.341-11.822,1.689L90.978,163.9a.718.718,0,0,0,.385.943l.043.017,14.839,4.992a.727.727,0,0,0,.889-.392l3.72-8.3a1.741,1.741,0,0,0,.056-.817" transform="translate(-30.024 -51.581)" fill="#fff3e0"/>
        <g id="Group_64" data-name="Group 64" transform="translate(64.522 102.345)" opacity="0.1">
          <g id="Group_63" data-name="Group 63">
            <g id="Group_62" data-name="Group 62" clip-path="url(#clip-path-19)">
              <path id="Path_68" data-name="Path 68" d="M112.732,160.628a13.185,13.185,0,0,1-6.86.653c-3.832-.85-9.538-5.677-9.538-5.677.154-.35,11.822-1.689,11.822-1.689l4.544,6.4s.022.152.033.316" transform="translate(-96.332 -153.915)"/>
            </g>
          </g>
        </g>
        <g id="Group_67" data-name="Group 67" transform="translate(65.29 104.253)" opacity="0.1">
          <g id="Group_66" data-name="Group 66">
            <g id="Group_65" data-name="Group 65" clip-path="url(#clip-path-20)">
              <path id="Path_69" data-name="Path 69" d="M97.48,156.783a54.4,54.4,0,0,0,15.624,4.806s-8.848-2.92-15.624-4.806" transform="translate(-97.48 -156.783)"/>
            </g>
          </g>
        </g>
        <path id="Path_70" data-name="Path 70" d="M62.712,129.086s-3.921.53-7.018,5.952c-3.817,6.674-12.78,20.06-6.668,28.865s25.964-4.836,25.964-4.836l-2.085-5.236s-15.129,4-15.285,2.541c-.335-3.179,4.3-11.376,4.3-11.376Z" transform="translate(-15.506 -43.251)" fill="#fff3e0"/>
        <path id="Path_71" data-name="Path 71" d="M86.771,163.549a5.054,5.054,0,0,1,1.827-2.924c1.425-.93,2.316-2.033,3.422-2.645s.521.982.035,1.769-1.027,1.674-.372,1.947,6.676-.523,7.539-.05-.069.9-.069.9,1.468-.153,1.687.409c.056.145-.048.577-.707.744-1.488.391-4.63,1.051-4.63,1.051.186-.041,4.127-.58,4.728-.586.787,0,1.161.391,1.149.843-.017.644-4.886,1.479-5.067,1.657,0,0,2.79-.575,3.329.06s-1.192,1.09-2.79,1.2c-1.473.1-4.334.692-5.84.653-1.86-.047-3.093-.493-3.774-2.085a5.831,5.831,0,0,1-.458-2.952" transform="translate(-28.638 -52.887)" fill="#ffa565"/>
        <g id="Group_73" data-name="Group 73" transform="translate(90.779 107.947)" opacity="0.2">
          <g id="Group_72" data-name="Group 72">
            <g id="Group_71" data-name="Group 71" clip-path="url(#clip-path-21)">
              <path id="Path_73" data-name="Path 73" d="M136.6,167.512c.792,1.019.056-2.69.21-3.967-.357-.089-.618-.668-.885-1.205a5.327,5.327,0,0,0,.675,5.173" transform="translate(-135.535 -162.339)"/>
            </g>
          </g>
        </g>
        <g id="Group_76" data-name="Group 76" transform="translate(90.299 91.434)" opacity="0.2">
          <g id="Group_75" data-name="Group 75">
            <g id="Group_74" data-name="Group 74" clip-path="url(#clip-path-22)">
              <path id="Path_74" data-name="Path 74" d="M137.024,137.506c-.087.121-2.79,3.642-2.089,5.34s4.258,3.333,4.258,3.333l.443-2.6Z" transform="translate(-134.822 -137.506)"/>
            </g>
          </g>
        </g>
        <path id="Path_75" data-name="Path 75" d="M144.295,145.5l-.558-3.229s.727-1.951.372-2.751c-.668-1.588-4.91-3.549-5.548-3.906s-3.633,4.378-3.242,5.334,5.314,3.149,5.314,3.149v1.949Z" transform="translate(-44.68 -45.437)" fill="#ffa565"/>
        <g id="Group_79" data-name="Group 79" transform="translate(44.755 100.107)" opacity="0.2">
          <g id="Group_78" data-name="Group 78">
            <g id="Group_77" data-name="Group 77" clip-path="url(#clip-path-23)">
              <path id="Path_76" data-name="Path 76" d="M66.909,155.4l.076-.138,2.639-4.711a23.125,23.125,0,0,1-2.8,11.718" transform="translate(-66.825 -150.55)"/>
            </g>
          </g>
        </g>
        <path id="Path_77" data-name="Path 77" d="M78.615,390.961c-.058.32,2.926,9.527,2.926,9.527h6.917l-.72-10.135Z" transform="translate(-25.961 -130.79)" fill="#ffa565"/>
        <path id="Path_78" data-name="Path 78" d="M131.484,386.916c-.058.32,2.928,9.529,2.928,9.529h6.917l-2.457-13.889Z" transform="translate(-43.421 -128.177)" fill="#ffa565"/>
        <path id="Path_79" data-name="Path 79" d="M76.7,128.471A18.8,18.8,0,0,0,90.2,137.1c9.231,1.049,12.438-5.822,12.438-5.822a64.257,64.257,0,0,0-25.941-2.8" transform="translate(-25.334 -42.909)" fill="#ffa565"/>
        <path id="Path_80" data-name="Path 80" d="M154.439,384.178c.022.045.041.067.052.058s.009-.05-.052-.058" transform="translate(-51.001 -128.72)" fill="#263238"/>
        <path id="Path_81" data-name="Path 81" d="M84.266,228.138c1.776,1.6,12.711,76.323,30.439,105.209,0,0,10.619-2.79,11.718-2.664-1.259-2.45-17.144-77.517-19.543-108.769Z" transform="translate(-27.828 -74.355)" fill="#263238"/>
        <path id="Path_82" data-name="Path 82" d="M62.6,184.534s-9.006,8.612-9.227,26.144,9.162,101.476,16.576,112.645c0,0,12.938-.145,11.729,0s-7.565-72.622-2.6-99.964l17.612-13.969c-.874-8.891-2.716-16.433-6.229-21.641Z" transform="translate(-17.624 -61.828)" fill="#263238"/>
        <g id="Group_82" data-name="Group 82" transform="translate(59.881 151.01)" opacity="0.2">
          <g id="Group_81" data-name="Group 81">
            <g id="Group_80" data-name="Group 80" clip-path="url(#clip-path-24)">
              <path id="Path_83" data-name="Path 83" d="M89.809,247.043l-.4-16.431L93.27,227.1c-.577.286.268,35.042-.372,34.763Z" transform="translate(-89.407 -227.1)"/>
            </g>
          </g>
        </g>
        <path id="Path_84" data-name="Path 84" d="M89.022,402.035l-2.429-.069a1.821,1.821,0,0,0-1.425.644c-1.516,1.771-2.524,1.056-3.939-.688-.962-.134-1.289.91-1.386,1.19l-2.21,6.2a.943.943,0,0,0,.636,1.235,1.083,1.083,0,0,0,.3.046l8.015.229,11.225.32c3.06.087,3.878-2.812,2.636-3.119-5.593-1.347-9.506-3.039-11.16-4.65-.307-.283.039-.476-.26-1.334" transform="translate(-25.618 -134.662)" fill="#263238"/>
        <path id="Path_85" data-name="Path 85" d="M100.39,404.355a.963.963,0,0,0,.459-.744.4.4,0,0,0-.173-.411c-.729-.532-3.85.725-4.2.872a.139.139,0,0,0-.086.074.123.123,0,0,0,.071.166,11.482,11.482,0,0,0,2.258.342,2.9,2.9,0,0,0,1.674-.305m.084-.93a.156.156,0,0,1,.069.175.772.772,0,0,1-.335.539,5.544,5.544,0,0,1-3.257.028c1.3-.489,3.123-1.03,3.534-.744" transform="translate(-31.827 -135.055)" fill="#407bff"/>
        <path id="Path_86" data-name="Path 86" d="M96.552,403.542c.93-.333,2.935-1.7,2.879-2.45,0-.158-.113-.35-.523-.413-1.654-.227-2.546,2.58-2.554,2.7a.121.121,0,0,0,.032.136.173.173,0,0,0,.095,0Zm2.286-2.632c.307.039.3.143.3.186.058.459-1.4,1.6-2.418,2.065.247-.653.962-2.286,2.016-2.256Z" transform="translate(-31.817 -134.245)" fill="#407bff"/>
        <path id="Path_87" data-name="Path 87" d="M95.962,404.839a3.1,3.1,0,0,0-2.143,1.2" transform="translate(-30.983 -135.643)" fill="none" stroke="#407bff" stroke-linecap="round" stroke-linejoin="round" stroke-width="0.5"/>
        <path id="Path_88" data-name="Path 88" d="M98.114,406.52a3.1,3.1,0,0,0-2.143,1.2" transform="translate(-31.693 -136.206)" fill="none" stroke="#407bff" stroke-linecap="round" stroke-linejoin="round" stroke-width="0.5"/>
        <path id="Path_89" data-name="Path 89" d="M100.832,407.96a3.1,3.1,0,0,0-2.141,1.2" transform="translate(-32.59 -136.69)" fill="none" stroke="#407bff" stroke-linecap="round" stroke-linejoin="round" stroke-width="0.5"/>
        <path id="Path_90" data-name="Path 90" d="M142.621,396.154l-2.347.623a1.816,1.816,0,0,0-1.181,1.021c-.941,2.126-2.115,1.728-3.973.458-.96.143-.973,1.237-.986,1.533l-.335,6.566a.949.949,0,0,0,.965,1,1.075,1.075,0,0,0,.3-.041l7.745-2.046,10.849-2.877c2.957-.785,2.907-3.8,1.628-3.737-5.747.3-9.986-.216-12.034-1.289-.372-.186-.1-.469-.634-1.2" transform="translate(-44.184 -132.733)" fill="#263238"/>
        <path id="Path_91" data-name="Path 91" d="M153.259,396.12a.958.958,0,0,0,.227-.837.4.4,0,0,0-.283-.346c-.852-.3-3.48,1.787-3.774,2.027a.14.14,0,0,0-.061.1.123.123,0,0,0,.115.138,11.452,11.452,0,0,0,2.262-.312,2.885,2.885,0,0,0,1.514-.766m-.186-.93a.156.156,0,0,1,.115.149.768.768,0,0,1-.167.612,5.524,5.524,0,0,1-3.114.951c1.1-.835,2.7-1.873,3.162-1.709" transform="translate(-49.325 -132.316)" fill="#407bff"/>
        <path id="Path_92" data-name="Path 92" d="M149.587,396.63c.8-.586,2.325-2.459,2.046-3.162-.05-.149-.208-.3-.619-.247-1.65.251-1.7,3.2-1.674,3.313a.123.123,0,0,0,.069.121.176.176,0,0,0,.091-.024Zm1.434-3.171c.305-.05.329.052.339.089.186.424-.885,1.929-1.73,2.667.048-.7.264-2.465,1.283-2.734Z" transform="translate(-49.324 -131.744)" fill="#407bff"/>
        <path id="Path_93" data-name="Path 93" d="M149.164,398.107a3.076,3.076,0,0,0-1.707,1.756" transform="translate(-48.695 -133.388)" fill="none" stroke="#407bff" stroke-linecap="round" stroke-linejoin="round" stroke-width="0.5"/>
        <path id="Path_94" data-name="Path 94" d="M151.706,399.1A3.073,3.073,0,0,0,150,400.856" transform="translate(-49.535 -133.724)" fill="none" stroke="#407bff" stroke-linecap="round" stroke-linejoin="round" stroke-width="0.5"/>
        <path id="Path_95" data-name="Path 95" d="M154.723,399.706a3.076,3.076,0,0,0-1.707,1.756" transform="translate(-50.53 -133.923)" fill="none" stroke="#407bff" stroke-linecap="round" stroke-linejoin="round" stroke-width="0.5"/>
      </g>
    </g>
  </g>
</svg>
