<svg xmlns="http://www.w3.org/2000/svg" width="64" height="64" viewBox="0 0 16 16"><g><g><g/><g><path fill="#1976d2" d="M12.659 8A4.655 4.655 0 0 0 8 3.341 4.655 4.655 0 0 0 3.341 8 4.655 4.655 0 0 0 8 12.659 4.655 4.655 0 0 0 12.659 8zm2.662-.666v1.332H13.95a5.986 5.986 0 0 1-5.284 5.284v1.37H7.334v-1.37A5.986 5.986 0 0 1 2.05 8.666H.68V7.334h1.37A5.986 5.986 0 0 1 7.334 2.05V.68h1.332v1.37a5.986 5.986 0 0 1 5.284 5.284zM10.662 8a2.661 2.661 0 1 1-5.324 0 2.661 2.661 0 1 1 5.324 0z"/></g></g></g></svg>