<svg xmlns="http://www.w3.org/2000/svg" width="36" height="40" viewBox="0 0 36 40"><defs><clipPath id="dxn1a"><path d="M0 40V0h36v40z"/></clipPath></defs><g><g><g><g/><g clip-path="url(#dxn1a)"><path d="M35.444 26.862c.381.07.548.302.547.684-.003 2.226.006 4.453-.006 6.679-.006 1.212-.918 2.173-2.131 2.281a7.045 7.045 0 0 1-.625.022c-5.356.001-10.712.003-16.069-.006-.302 0-.431.04-.419.389.023.646-.37 1.09-.855 1.452-.73.547-1.58.84-2.448 1.073-1.21.324-2.45.474-3.7.56-.41.03-.681-.116-.775-.533-.055-.468.15-.701.663-.74 1-.077 1.997-.183 2.977-.408.84-.192 1.669-.413 2.4-.9.325-.215.488-.487.465-.88-.016-.259-.004-.52-.003-.78 0-.193-.082-.224-.243-.143-1.616.82-3.375 1.089-5.144 1.188-2.398.135-4.795.064-7.13-.62-.565-.166-1.099-.405-1.659-.692.014.444-.003.856.015 1.27.01.255.156.429.35.58.527.407 1.144.617 1.772.795.967.275 1.954.447 2.96.512.234.016.467.05.692.115.343.1.456.308.392.675-.07.356-.285.572-.649.544-1.716-.134-3.414-.367-5.01-1.067-.466-.204-.904-.457-1.266-.825-.354-.36-.544-.777-.538-1.292.011-.989.021-1.979-.003-2.967-.016-.655.246-1.153.73-1.561.413-.348.887-.588 1.385-.783.16-.062.264-.098.175-.32-.133-.331-.078-.693-.078-1.044-.003-.885-.102-1.785.034-2.649.098-.628-.12-.81-.61-.985-.43-.154-.8-.43-1.12-.762-.34-.352-.52-.763-.513-1.263.012-.963.03-1.927-.005-2.889-.029-.77.303-1.32.891-1.759.314-.234.651-.439 1.018-.566.264-.092.315-.234.31-.486-.017-.715.01-1.431-.011-2.146-.02-.668.25-1.183.755-1.59.864-.696 1.897-1.004 2.948-1.265a9.95 9.95 0 0 1 1.033-.196c.224-.03.293-.118.29-.35-.015-1.053-.007-2.107-.007-3.161V2.87c0-1.684.402-2.28 1.933-2.87h5.319c.27.085.476.227.49.544-.057.534-.279.738-.847.741-1.443.01-2.886-.003-4.33.006-.684.004-1.015.238-1.246.847-.068.162-.058.332-.058.501v10.037c0 .549.017.533.544.512 2.445-.1 4.874-.019 7.234.73.257.08.516.212.78.017a1.72 1.72 0 0 1 1.034-.297c.469.007.938-.002 1.407.003.965.01 1.743.689 1.82 1.584.088 1.004-.524 1.806-1.517 1.992-.74 0-.74 0-.74.748v.737c.002.638.004.64.652.643.867.135 1.503.74 1.6 1.52.106.864-.32 1.608-1.117 1.949-.035.015-.07.04-.108.042-.955.068-1.913.211-2.85-.118-.116-.052-.194-.167-.372-.2-.014.621 0 1.233-.009 1.88.124-.119.236-.215.363-.292.972-.396 1.974-.36 2.949-.09.833.231 1.245 1.026 1.147 1.945-.085.788-.75 1.433-1.59 1.537a2.182 2.182 0 0 1-.35.013c-.298-.026-.347.161-.322.392.025.227-.128.56.31.563 1.258.021 2.002.765 1.958 1.956-.033.921-.765 1.607-1.813 1.69-.259.02-.519.012-.779.011a.96.96 0 0 0-.585.187c-.33.233-.68.436-1.055.59-.153.064-.278.144-.25.343.071.505.023 1.014.042 1.521.014.384.11.476.496.495.117.005.235.002.352.002h15.367c.208 0 .418.02.619-.056.727-.188.984-.508.986-1.277.007-2.013.002-4.025.003-6.038 0-.194-.011-.39.04-.581.1-.372.342-.53.708-.468"/></g><g clip-path="url(#dxn1a)"><path d="M34.033 0c.453.15.902.304 1.25.658.503.51.71 1.121.71 1.834-.006 7.013-.003 14.026-.003 21.038 0 .326-.021.653.005.976.035.445-.103.758-.555.888-.39.044-.643-.134-.72-.517-.048-.231-.03-.467-.03-.701l-.001-21.31c0-1.274-.293-1.568-1.558-1.568H17.58c-.17 0-.34.005-.509-.007-.453-.034-.656-.228-.738-.7-.009-.299.168-.47.415-.591z"/></g><g clip-path="url(#dxn1a)"><path fill="#9daec5" d="M14.886.469c.341.292.747.083 1.119.142.157.024.312.011.413-.142.021.544.197.703.79.703h16.14c1.062 0 1.468.402 1.468 1.453v21.902c0 .583.086.701.624.867l.004 1.468c-.483.079-.627.248-.627.76-.002 2.156.001 4.313-.002 6.469 0 .723-.386 1.16-1.072 1.234-.127.046-.258.025-.387.025H17.565c-.51 0-.538-.028-.548-.554-.01-.442.019-.885-.042-1.326-.027-.194.014-.379.212-.46.584-.243 1.047-.678 1.595-.978.31-.014.624-.004.93-.045.949-.127 1.556-.864 1.509-1.803-.045-.888-.76-1.56-1.695-1.59-.064-.002-.129-.007-.193-.011a1.25 1.25 0 0 1 0-1.15c1.156-.058 1.863-.678 1.89-1.656.025-.878-.546-1.633-1.421-1.722-.86-.088-1.741-.195-2.58.167-.315-.259-.303-1.359.018-1.581.895.335 1.826.257 2.729.12.784-.117 1.28-.887 1.254-1.696-.026-.832-.594-1.447-1.502-1.628-.487-.053-.504-.069-.512-.557-.005-.361-.002-.723 0-1.084.002-.604.003-.604.59-.675.9-.237 1.414-.835 1.425-1.657.011-.783-.453-1.52-1.219-1.64-.95-.15-1.932-.264-2.866.16-.186.032-.357-.019-.533-.077-1.505-.496-3.054-.722-4.634-.83-1.004-.068-1.998-.034-2.998.008-.527.022-.553-.03-.553-.54l.001-10.022c0-.14-.031-.286.032-.423.148-.609.551-.925 1.206-.927 1.493-.004 2.986 0 4.48-.002.549 0 .727-.171.746-.702"/></g><g clip-path="url(#dxn1a)"><path fill="#eead2e" d="M7.47 39.436c-.033-.4-.243-.597-.65-.63-1.285-.103-2.562-.265-3.793-.678-.52-.174-1.022-.384-1.468-.711-.257-.19-.4-.42-.381-.76.024-.426.006-.855.006-1.214 4.8 1.786 9.58 1.784 14.392.002 0 .429.012.931-.004 1.433-.01.31-.259.468-.486.619-.75.496-1.603.736-2.466.934-.966.222-1.95.328-2.938.391-.49.031-.633.157-.718.641l-1.494-.027"/></g><g clip-path="url(#dxn1a)"><path d="M4.315 9.764c.338 0 .677-.01 1.014.002.344.013.573.24.587.554a.571.571 0 0 1-.575.608c-.662.017-1.326.016-1.988.001a.583.583 0 0 1-.592-.596c.008-.321.257-.557.618-.568.312-.01.624-.002.936-.001"/></g><g clip-path="url(#dxn1a)"><path fill="#010101" d="M4.332 12.743c-.324 0-.65.009-.974-.003-.341-.012-.578-.24-.596-.548a.582.582 0 0 1 .574-.612 36.666 36.666 0 0 1 2.028.001c.332.01.559.282.554.59-.006.32-.229.542-.572.57a.92.92 0 0 1-.078.003h-.936v-.001"/></g><g clip-path="url(#dxn1a)"><path fill="#020202" d="M5.919 8.331a.578.578 0 0 1-.596.58.574.574 0 0 1-.572-.6.591.591 0 0 1 .572-.568.601.601 0 0 1 .596.588"/></g><g clip-path="url(#dxn1a)"><path fill="#fed143" d="M10.57 18.357c-1.902-.042-3.805-.185-5.628-.854-.477-.175-.946-.373-1.321-.73-.297-.281-.3-.473-.004-.757.474-.454 1.075-.676 1.684-.866 2.26-.703 4.58-.796 6.918-.653 1.407.087 2.792.309 4.117.815.426.163.842.35 1.188.657.345.306.349.536.004.842-.488.433-1.088.655-1.698.845-1.707.532-3.468.668-5.26.7"/></g><g clip-path="url(#dxn1a)"><path fill="#eead2e" d="M17.786 18.082v1.516c.001.267-.169.427-.356.573-.48.374-1.04.59-1.613.763-1.994.6-4.04.747-6.107.669-1.618-.061-3.218-.255-4.752-.818a6.458 6.458 0 0 1-.325-.13c-1.267-.546-1.52-1.039-1.248-2.395.038-.189.114-.119.21-.072 2.63 1.268 5.439 1.4 8.283 1.287 1.567-.062 3.108-.292 4.6-.799.43-.145.841-.333 1.308-.594"/></g><g clip-path="url(#dxn1a)"><path fill="#eead2e" d="M3.388 29.169c2.313 1.176 4.756 1.414 7.226 1.413 2.455-.001 4.883-.244 7.166-1.401 0 .556.02 1.061-.007 1.564-.017.32-.296.48-.534.632-.678.432-1.435.675-2.213.84-3.196.673-6.383.677-9.549-.187-.604-.165-1.18-.403-1.696-.772-.275-.197-.418-.439-.398-.792.023-.414.005-.831.005-1.297"/></g><g clip-path="url(#dxn1a)"><path fill="#eead2e" d="M1.184 23.028c4.78 1.876 10.087 1.876 14.386-.006 0 .543.034 1.07-.012 1.59-.028.317-.334.483-.59.637-.756.457-1.592.704-2.45.87-3.005.58-6.001.58-8.98-.174-.67-.17-1.316-.41-1.897-.798-.31-.207-.502-.461-.465-.874.037-.407.008-.82.008-1.245"/></g><g clip-path="url(#dxn1a)"><path fill="#fed143" d="M8.342 35.574c-1.895-.007-3.768-.177-5.57-.816-.465-.165-.92-.365-1.3-.69-.375-.319-.383-.545-.02-.865.488-.43 1.094-.638 1.697-.845.098-.034.174.011.254.059 1.27.75 2.679 1.057 4.113 1.241 2.574.331 5.14.291 7.684-.276.109-.024.227-.077.314.06.08.124.077.24.002.364-.162.266-.411.43-.675.573-1.08.589-2.266.823-3.463 1.002-1.005.15-2.02.2-3.036.193"/></g><g clip-path="url(#dxn1a)"><path fill="#fed143" d="M10.569 29.399c-1.895-.006-3.772-.16-5.575-.804-.442-.157-.869-.35-1.245-.637-.136-.104-.263-.218-.322-.384-.088-.246.054-.423.307-.365 2.01.463 4.047.562 6.097.443 1.63-.095 3.237-.326 4.77-.925.157-.061.307-.144.467-.194.276-.087.474-.417.8-.315.659.205 1.313.437 1.795.972.199.221.125.429-.06.619-.347.353-.784.555-1.235.726-1.617.61-3.306.806-5.018.863-.26.008-.52 0-.781 0"/></g><g clip-path="url(#dxn1a)"><path fill="#fed143" d="M12.75 22.801c-3 .617-5.998.632-8.988-.07-.711-.166-1.402-.402-2.024-.796-.717-.453-.72-.8-.023-1.264.065-.043.136-.078.199-.124.274-.197.456-.235.704.115.452.635 1.163.949 1.878 1.206 2.254.81 4.597.972 6.966.91.352-.01.703-.036 1.055-.054.088-.005.209-.109.234.077"/></g><g clip-path="url(#dxn1a)"><path fill="#848fa7" d="M8.454 2.1l.01 10.307c.002.635-.063.56.564.561.662.002 1.319-.116 1.984-.078 1.84.103 3.67.258 5.437.83.234.076.46.176.69.264-.176.225-.37.239-.643.141-1.559-.559-3.185-.762-4.827-.832-.975-.042-1.954-.06-2.927.054-.234.028-.35-.004-.35-.291.008-3.565.002-7.13.003-10.695 0-.087.038-.174.059-.26"/></g><g clip-path="url(#dxn1a)"><path fill="#848fa7" d="M18.782 32.032c-.388.496-.924.786-1.479 1.046-.132.062-.285.099-.235.292.132.5.073 1.01.06 1.513-.01.354.105.429.441.428 5.223-.01 10.445-.008 15.668-.006.169 0 .337.013.506.02-.136.069-.281.038-.422.038-5.287.002-10.574.002-15.861.001-.708 0-.696-.001-.712-.697-.011-.517.086-1.043-.09-1.549-.054-.152.046-.18.14-.218.522-.208 1.019-.457 1.457-.817.154-.126.348-.067.527-.05"/></g><g clip-path="url(#dxn1a)"><path fill="#68738f" d="M17.762 25.309c.182-.169.409-.135.626-.136.376-.003.753-.02 1.127.009.319.023.54.2.527.552-.013.346-.228.506-.56.514-.207.006-.414-.005-.621-.009-.385-.225-.706-.537-1.066-.796-.042-.03-.057-.08-.033-.134"/></g><g clip-path="url(#dxn1a)"><path fill="#687390" d="M19.017 20.627c.18-.004.363-.023.542-.01.324.025.493.216.483.538-.009.305-.183.489-.487.494-.517.01-1.034-.008-1.551-.014-.026-.152.103-.198.192-.255.318-.205.521-.53.82-.753"/></g><g clip-path="url(#dxn1a)"><path fill="#7f89a0" d="M19.8 17.121c-.46.028-.516.31-.48.697.033.345.03.698.001 1.044-.026.321.03.546.4.575-.764.028-.764.028-.764-.705 0-.402.016-.805-.006-1.206-.016-.294.06-.443.383-.404.153.018.31 0 .466 0"/></g><g clip-path="url(#dxn1a)"><path fill="#eb6193" d="M18.703 14.923c.246-.005.492-.017.737-.013.392.006.597.18.608.502.012.338-.204.535-.605.548-.064.002-.128-.011-.192-.018-.206-.327-.503-.606-.548-1.02"/></g><g clip-path="url(#dxn1a)"><path fill="#838fa6" d="M17.24 22.64c-.18.526-.142 1.053-.019 1.582l-.447.355v-2.293l.465.357"/></g><g clip-path="url(#dxn1a)"><path fill="#67718e" d="M19.332 29.776c.332-.041.612.034.697.395.072.305-.045.535-.371.621-.297.095-.438-.03-.443-.324-.005-.236-.06-.485.117-.692"/></g><g clip-path="url(#dxn1a)"><path fill="#505a7b" d="M19.017 20.627c-.216.458-.635.713-1.013 1.008-.127.01-.258-.03-.288-.146-.036-.14.13-.167.213-.236.17-.14.364-.257.507-.42.165-.188.343-.261.58-.206"/></g><g clip-path="url(#dxn1a)"><path fill="#7f89a0" d="M19.332 27.433v1.15c-.267.056-.42-.007-.38-.324a1.948 1.948 0 0 0 0-.501c-.04-.318.113-.38.38-.325"/></g><g clip-path="url(#dxn1a)"><path fill="#505a7b" d="M17.762 25.309c.36.316.813.525 1.099.93-.575.128-.855-.373-1.253-.609-.116-.068.031-.242.154-.321"/></g><g clip-path="url(#dxn1a)"><path fill="#d84071" d="M18.703 14.923c.175.344.482.617.548 1.02-.216.056-.368.012-.457-.222-.118-.31-.382-.515-.661-.798z"/></g><g clip-path="url(#dxn1a)"><path fill="#4d5675" d="M19.332 29.776c-.001.217.013.435-.008.65-.025.26.066.387.334.366-.233.089-.549.165-.66-.05-.134-.257-.088-.607-.012-.903.035-.14.224-.06.346-.063"/></g><g clip-path="url(#dxn1a)"><path fill="#967b27" d="M12.75 22.801c-.058-.084-.16-.036-.233-.077.095-.02.189-.046.285-.06.045-.007.11.002.095.071-.016.078-.083.075-.146.066"/></g><g clip-path="url(#dxn1a)"><path d="M21.597 4.209h10.165c.687 0 .855.167.855.848v5.273c0 .62-.194.816-.82.816-6.79.002-13.58.002-20.37 0-.632 0-.805-.178-.806-.82V5.014c0-.64.168-.804.81-.805h10.166"/></g><g clip-path="url(#dxn1a)"><path d="M24.407 27.396c-.338 0-.684.047-1.013-.009a1.694 1.694 0 0 1-1.399-1.798c.065-.857.754-1.53 1.651-1.578a14.64 14.64 0 0 1 1.563 0c.986.055 1.67.809 1.642 1.774-.026.928-.765 1.624-1.74 1.637-.235.003-.47 0-.704 0v-.026"/></g><g clip-path="url(#dxn1a)"><path d="M30.038 27.397c-.338 0-.684.046-1.013-.009a1.69 1.69 0 0 1-1.4-1.796c.058-.853.748-1.532 1.646-1.58.52-.028 1.043-.029 1.562 0 .986.053 1.672.805 1.647 1.77-.024.926-.765 1.626-1.738 1.64-.235.003-.47 0-.704 0v-.025"/></g><g clip-path="url(#dxn1a)"><path d="M24.496 28.594c.327.029.718-.049 1.104.062.799.229 1.29.914 1.25 1.757a1.642 1.642 0 0 1-1.4 1.551c-.671.1-1.354.1-2.024.003a1.678 1.678 0 0 1-1.43-1.805c.069-.876.798-1.55 1.696-1.567.248-.005.495 0 .804 0"/></g><g clip-path="url(#dxn1a)"><path d="M30.138 28.595c.31.027.689-.048 1.062.053.808.22 1.309.894 1.279 1.736a1.645 1.645 0 0 1-1.41 1.582 7.005 7.005 0 0 1-2.025 0c-.888-.131-1.49-.93-1.419-1.813a1.71 1.71 0 0 1 1.666-1.557c.26-.007.521-.001.847-.001"/></g><g clip-path="url(#dxn1a)"><path d="M30.073 13.738c.247-.001.495-.006.742 0 .937.024 1.654.742 1.666 1.664.011.933-.671 1.68-1.605 1.72-.559.025-1.12.027-1.68-.002-.9-.046-1.587-.811-1.575-1.715a1.69 1.69 0 0 1 1.631-1.665c.273-.01.547-.002.82-.002"/></g><g clip-path="url(#dxn1a)"><path d="M30.05 22.829c-.274 0-.548.013-.82-.003a1.69 1.69 0 0 1-1.608-1.726 1.684 1.684 0 0 1 1.637-1.658 22.634 22.634 0 0 1 1.602.001c.916.033 1.611.76 1.62 1.668a1.673 1.673 0 0 1-1.612 1.716c-.272.015-.546.003-.82.002"/></g><g clip-path="url(#dxn1a)"><path d="M24.42 13.737c.261 0 .522-.006.782.001a1.675 1.675 0 0 1 1.65 1.64c.022.937-.653 1.698-1.58 1.743-.572.027-1.147.028-1.718-.003-.897-.048-1.583-.826-1.562-1.728a1.692 1.692 0 0 1 1.609-1.65c.273-.01.546 0 .82 0v-.003"/></g><g clip-path="url(#dxn1a)"><path d="M24.436 22.827c-.286 0-.573.015-.859-.003a1.69 1.69 0 0 1-1.585-1.709c.01-.9.715-1.638 1.624-1.672.546-.02 1.094-.02 1.64.002.894.036 1.581.76 1.596 1.65.016.918-.653 1.667-1.556 1.728-.286.02-.573.003-.86.004"/></g><g clip-path="url(#dxn1a)"><path fill="#57d2cf" d="M11.838 9.922c-.095-.41-.036-.827-.04-1.24-.01-1.002-.002-2.004-.004-3.007 0-.163-.017-.3.23-.298 3.01.012 6.018.015 9.027.02.034.19-.118.278-.223.383-1.311 1.315-2.626 2.627-3.94 3.94-.13.13-.258.261-.467.24-1.388 0-2.776.001-4.163-.002-.14 0-.285.036-.42-.036"/></g><g clip-path="url(#dxn1a)"><path fill="#57d2cf" d="M11.838 9.922l4.771-.014c.175-.102.367-.112.563-.111.945.002 1.889-.004 2.833.002.523.015 1.046-.008 1.569.006 1.052.034 2.104.003 3.157.017.279.003.456-.15.634-.33 1.239-1.24 2.481-2.479 3.72-3.72.148-.147.296-.291.491-.376.534-.005 1.067-.004 1.6-.018.197-.005.273.047.272.26-.009 1.352-.012 2.705.001 4.057.003.273-.129.283-.334.283-3.125-.002-6.25.003-9.375.003-3.164 0-6.328-.003-9.492-.009-.136 0-.285.058-.41-.05"/></g><g clip-path="url(#dxn1a)"><path fill="#8be4e0" d="M20.023 9.91l-3.414-.002c.377-.39.75-.784 1.132-1.17 1.102-1.115 2.207-2.227 3.31-3.34l3.44-.002c.039.192-.118.278-.222.382-1.286 1.291-2.577 2.578-3.865 3.867a1.009 1.009 0 0 1-.381.264"/></g><g clip-path="url(#dxn1a)"><path fill="#8be4e0" d="M29.576 5.396c-.59.602-1.179 1.207-1.774 1.806-.825.83-1.656 1.653-2.48 2.483-.144.144-.284.24-.505.237-1.04-.014-2.08-.01-3.121-.013-.062-.179.087-.258.18-.352 1.301-1.307 2.608-2.609 3.912-3.914.103-.103.218-.183.348-.244z"/></g><g clip-path="url(#dxn1a)"><path fill="#57d2cf" d="M26.137 5.399c-1.27 1.278-2.54 2.554-3.806 3.835-.217.22-.466.41-.635.675h-1.673c1.386-1.389 2.772-2.778 4.156-4.168.11-.11.209-.23.312-.345.549 0 1.097.002 1.646.003"/></g><g clip-path="url(#dxn1a)"><path fill="#687390" d="M24.435 26.25c-.233 0-.467.004-.7-.002-.34-.008-.545-.196-.56-.524-.014-.32.196-.519.503-.535a12.786 12.786 0 0 1 1.517.002c.3.02.497.225.476.556-.02.325-.22.485-.535.5-.233.01-.467.002-.7.002"/></g><g clip-path="url(#dxn1a)"><path fill="#687390" d="M30.055 26.25c-.234 0-.467.006-.701-.002-.317-.01-.523-.18-.55-.493-.028-.319.165-.543.47-.563.517-.034 1.04-.034 1.557.001.301.02.494.232.469.561-.025.326-.23.481-.543.494-.234.009-.468.002-.702.002"/></g><g clip-path="url(#dxn1a)"><path fill="#687390" d="M24.418 30.833c-.247 0-.496.022-.739-.006-.326-.037-.535-.236-.503-.575.029-.31.237-.482.556-.485.468-.004.935-.008 1.403.002.316.007.515.172.536.497.022.33-.174.518-.476.56-.254.034-.518.007-.777.007"/></g><g clip-path="url(#dxn1a)"><path fill="#687390" d="M30.06 29.767c.233 0 .467-.007.7.001.317.012.516.171.54.496.024.309-.15.518-.435.55a6.65 6.65 0 0 1-1.63-.005c-.297-.04-.457-.258-.431-.555.026-.293.216-.467.515-.484.246-.013.494-.003.74-.003"/></g><g clip-path="url(#dxn1a)"><path fill="#ec6193" d="M30.067 15.954c-.26 0-.52.015-.778-.004-.324-.024-.5-.228-.486-.543.013-.294.192-.485.498-.492a26.765 26.765 0 0 1 1.52.001c.303.01.474.2.481.504.007.302-.153.499-.457.527-.257.023-.518.004-.778.004v.003"/></g><g clip-path="url(#dxn1a)"><path fill="#687390" d="M30.07 20.615c.247 0 .494-.013.74.003.324.02.497.21.49.533-.006.304-.179.49-.484.498-.505.014-1.012.015-1.517 0-.325-.01-.503-.215-.496-.53.006-.297.185-.483.49-.5.258-.015.519-.004.778-.004"/></g><g clip-path="url(#dxn1a)"><path fill="#ec6193" d="M24.446 14.91c.234 0 .468-.006.7.001.323.01.516.178.527.503.01.323-.166.525-.488.536-.506.018-1.013.017-1.518 0-.324-.012-.505-.223-.492-.537.012-.313.207-.494.531-.502.247-.006.493-.001.74-.001"/></g><g clip-path="url(#dxn1a)"><path fill="#687390" d="M24.41 21.653c-.246 0-.493.011-.738-.003-.325-.02-.505-.216-.498-.531.006-.296.185-.49.49-.5a25.083 25.083 0 0 1 1.517 0c.324.01.497.207.49.53-.006.306-.177.483-.482.5-.259.016-.519.004-.778.004"/></g></g></g></g></svg>