<svg xmlns="http://www.w3.org/2000/svg" width="40" height="40" viewBox="0 0 40 40"><defs><clipPath id="e36qa"><path d="M0 40V0h40v40z"/></clipPath></defs><g><g><g><g/><g clip-path="url(#e36qa)"><path d="M40 38.109c-.265.902-.697 1.597-1.52 1.829-.194.054-.387.06-.582.06-10.523 0-21.046.006-31.57-.003-3.665-.003-6.466-3.47-6.323-7.87.085-2.598 1.134-4.58 2.907-6.037-.009-.143-.131-.161-.204-.232-.613-.602-.853-1.522-.62-2.408.238-.903.889-1.53 1.687-1.538.316-.004.498-.147.674-.43.805-1.297.763-3.121-.106-4.357a.531.531 0 0 0-.469-.253c-1.107-.03-1.885-.984-1.866-2.265.019-1.244.823-2.145 1.92-2.15.717-.003 1.433-.002 2.15-.003.013 0 .025-.003.045-.005.03-.165-.103-.194-.168-.263C4.13 10.24 3.482 7.252 4.31 4.56 5.135 1.873 7.295.015 9.688.01 16.955-.006 24.222 0 31.489.004c1.085 0 1.884.938 1.89 2.189.008 1.251-.77 2.196-1.86 2.225-.22.006-.361.092-.495.287-.877 1.28-.884 3.145-.015 4.43.14.208.284.314.522.318 1.225.021 2.052 1.256 1.804 2.703-.047.274-.02.337.204.384 2.413.505 4.066 2.145 4.74 4.987.673 2.835-.03 5.257-1.856 7.206-.029.031-.053.068-.134.172.442 0 .837.03 1.228-.006 1.224-.115 2.083.443 2.483 1.892v1.037c-.319 1.275-.87 1.814-1.98 1.913-.242.021-.42.142-.565.359-.91 1.353-.907 3.34-.002 4.7.167.25.379.343.644.364.698.053 1.269.397 1.672 1.12.17.303.147.653.231.976z"/></g><g clip-path="url(#e36qa)"><path fill="#ebf3fe" d="M35.481 32.286c.014 1.047.203 2.04.691 2.996h-1.606c-1.494 0-2.988.005-4.482-.003-.395-.002-.644.187-.725.664-.365.385-.755.282-1.149.086-.13-.622-.264-.746-.823-.746-7.004 0-14.008 0-21.013-.002-1.267 0-2.196-.893-2.436-2.324a2.81 2.81 0 0 1 .058-1.255c.151-.16.337-.15.52-.15 6.497 0 12.996-.002 19.494.002.552 0 .626.1.636.77.003.235-.009.471.01.706.05.66.394.924.897.654.63-.338 1.25-.709 1.852-1.116.443-.3.854-.306 1.296-.026.588.373 1.186.72 1.78 1.08.606.369.973.111 1.036-.715.015-.199-.015-.414.125-.575.242.142.486.281.727.425.597.357.979.075.99-.731.002-.109.009-.217.014-.326.13-.163.303-.15.469-.154.372-.008.745-.008 1.118-.001.547.01.578.059.521.74"/></g><g clip-path="url(#e36qa)"><path fill="#ebf3fe" d="M29.215 6.136c-.087 1.146.02 2.25.533 3.292-.117.007-.18.016-.243.016-6.574 0-13.148.002-19.722-.002-1.037 0-1.832-.718-2.086-1.866a2.712 2.712 0 0 1 .046-1.435c.164-.162.36-.159.557-.159 6.787-.001 13.574-.002 20.362.002.19 0 .395-.035.553.152"/></g><g clip-path="url(#e36qa)"><path fill="#ebf3fe" d="M34.75 18.685c.36 1.285-.267 2.695-1.391 3.076 0-.46.006-.91-.002-1.36-.009-.52-.22-.782-.654-.783-3.814-.004-7.629-.004-11.443 0-.412 0-.645.256-.654.68-.009.438.238.727.658.73 1.185.007 2.37.015 3.554-.007.291-.005.345.117.332.43-.011.269.013.453-.311.452-6.327-.013-12.655-.01-18.982-.01-.05 0-.1-.01-.191-.018.238-.614.444-1.218.51-1.873.058-.342.03-.689.023-1.032-.006-.283.093-.405.31-.429a3.5 3.5 0 0 1 .39-.015c9.06 0 18.12-.001 27.18.002.23 0 .474-.058.671.157"/></g><g clip-path="url(#e36qa)"><path fill="#b6e3fb" d="M28.21 36.029c.383-.038.774.094 1.149-.086.09.591.251.753.768.753 2.538.002 5.077.001 7.615.001.13 0 .262-.01.39.01.412.064.711.491.693.976-.017.469-.32.847-.722.894-.116.013-.234.006-.351.006H6.471c-.182 0-.364-.015-.545-.023-.5-.09-.872-.464-1.243-.827-.753-.737-1.271-1.686-1.628-2.765-.056-.169-.202-.398.057-.54.805 1.62 1.992 2.29 3.552 2.283 6.9-.032 13.8-.016 20.7-.007.43 0 .743-.124.846-.675"/></g><g clip-path="url(#e36qa)"><path fill="#f4dd86" d="M5.382 13.885c.104-.005.207-.015.311-.015 9 0 17.999-.003 26.998.001 2.674.001 4.748 2.604 4.647 5.812-.077 2.44-1.66 4.654-3.643 5.116-.283.066-.325-.035-.348-.362-.052-.755.043-1.21.764-1.52 1.322-.57 2.052-2.287 1.897-3.99-.145-1.583-1.195-2.992-2.506-3.355-.177-.05-.358-.077-.538-.115-.152-.063-.31-.031-.464-.031-8.91-.002-17.822-.001-26.733-.004-.233 0-.507.103-.62-.302-.123-.44-.032-.963.235-1.235"/></g><g clip-path="url(#e36qa)"><path fill="#b9bfc8" d="M31.642 32.332c-.038.326.03.658-.05.983-.144.6-.574.818-1.031.532a168 168 0 0 0-2.086-1.283c-.284-.172-.555-.167-.85.026-.675.44-1.363.853-2.053 1.26-.551.324-1.022-.04-1.039-.792-.007-.345-.01-.691.001-1.036.008-.247-.075-.35-.275-.325-.026.003-.052 0-.078 0l-20.185.005c.322-1.258 1.201-2.077 2.289-2.078 6.18-.007 12.358-.002 18.538-.01.251 0 .336.072.327.387-.02.69-.011 1.382-.005 2.073.006.75.405 1.04.965.695.96-.591 1.916-1.19 2.867-1.8.194-.123.345-.13.54 0 .702.466 1.416.91 2.125 1.363"/></g><g clip-path="url(#e36qa)"><path fill="#b9bfc8" d="M34.75 18.685H6.764c-.512 0-.506 0-.511.633-.002.23.053.474-.077.684.044-1.062-.027-2.098-.499-3.022.092-.162.206-.1.298-.1 8.886-.004 17.771-.005 26.657-.002 1.065 0 1.839.673 2.118 1.807"/></g><g clip-path="url(#e36qa)"><path fill="#dc636e" d="M8.666 1.614c.306-.147.629-.192.954-.192 7.275-.004 14.55-.005 21.826-.004.48 0 .754.295.757.785.004.503-.28.805-.783.808-1.236.005-2.473.001-3.71.001-4.893 0-9.787.003-14.68-.005-.378 0-.668.1-.789.577-.387.236-.775.23-1.163.001-.138-.443-.407-.565-.79-.585-1.176-.06-2.213.27-3.02 1.367a4.224 4.224 0 0 0-.736 1.667c-.198-.077-.146-.275-.119-.427.3-1.7 1.002-3.073 2.253-3.993"/></g><g clip-path="url(#e36qa)"><path fill="#dc636e" d="M32.172 23.304v7.739c-.812-.508-1.601-.977-2.37-1.492-.382-.256-.71-.266-1.096-.007-.768.516-1.559.985-2.374 1.494v-7.735c.147-.168.334-.152.514-.153 1.605-.004 3.21-.004 4.814 0 .18.001.367-.02.512.154"/></g><g clip-path="url(#e36qa)"><path fill="#b6e3fb" d="M6.082 26.338c.143-.007.286-.018.429-.018 6.065 0 12.13.003 18.196-.01.35-.001.481.092.442.531-.038.433.116 1.02-.068 1.271-.213.291-.709.089-1.08.09-5.87.005-11.74-.002-17.61.007-1.55.002-2.666.884-3.372 2.54-.207-.097-.115-.287-.074-.43.445-1.57 1.223-2.83 2.405-3.702.222-.164.472-.247.732-.28"/></g><g clip-path="url(#e36qa)"><path fill="#dc636e" d="M6.702 8.493c.7 1.65 1.811 2.382 3.35 2.377 7.054-.026 14.107-.012 21.161-.01.156 0 .316-.013.467.021.335.077.54.408.521.816-.018.422-.22.657-.548.742-.1.026-.207.015-.311.015H9.946c-.117 0-.233-.013-.35-.02-.401-.017-.758-.188-1.07-.485-.841-.798-1.538-1.733-1.875-2.99-.039-.146-.177-.346.051-.466"/></g><g clip-path="url(#e36qa)"><path fill="#b9bfc8" d="M11.078 3.585l1.163-.001c.046.655.223.842.812.842h16.695c-.27.57-.407 1.138-.533 1.71l-21.472.005c.345-1.08 1.063-1.692 2.012-1.713.181-.004.363 0 .544-.002.534-.006.707-.193.779-.841"/></g><g clip-path="url(#e36qa)"><path fill="#f4dd86" d="M25.074 24.884c-.09.007-.18.02-.271.02H5.614c-.077 0-.155-.01-.233-.015-.281-.288-.379-1.012-.185-1.364.063-.113.145-.175.26-.174l.311-.001h18.885c.513 0 .464-.053.458.555-.004.326.046.656-.036.979"/></g><g clip-path="url(#e36qa)"><path fill="#96cbf9" d="M6.082 26.338c-1.623.765-2.553 2.276-3.104 4.196a.225.225 0 0 0 .04.214c-.43 1.244-.367 2.47.094 3.68-.155.166-.025.334.02.47.546 1.647 1.46 2.89 2.794 3.662-1.987-.074-3.863-1.812-4.51-4.177-.668-2.444.01-5.147 1.688-6.715.877-.82 1.863-1.289 2.978-1.33"/></g><g clip-path="url(#e36qa)"><path fill="#d94a54" d="M32.172 23.304h-5.84c-.005-.66-.005-1.32-.019-1.978-.004-.223.058-.3.245-.299 1.796.007 3.593.007 5.389 0 .189 0 .247.077.243.299-.014.659-.013 1.319-.017 1.978"/></g><g clip-path="url(#e36qa)"><path fill="#d94a54" d="M6.702 8.493c-.067.326.077.597.177.868.434 1.181 1.159 2.057 2.035 2.77.21.17.456.2.682.304-2.039.053-4.01-1.954-4.375-4.455-.413-2.825.916-5.465 3.18-6.309.085-.031.176-.038.265-.057-.523.598-1.082 1.153-1.473 1.902-.348.67-.559 1.4-.704 2.162-.023.12-.035.249.043.356a5.34 5.34 0 0 0 .17 2.46"/></g><g clip-path="url(#e36qa)"><path fill="#b6e3fb" d="M35.78 28.205c-.716 0-1.43-.01-2.145.007-.22.004-.292-.07-.28-.338.022-.499-.14-1.155.066-1.457.214-.313.778-.089 1.189-.094 1.092-.012 2.184-.005 3.276-.003.575.001.927.348.94.917.012.584-.355.965-.94.968-.703.003-1.404 0-2.107 0"/></g><g clip-path="url(#e36qa)"><path fill="#efcd72" d="M5.382 13.885c-.215.347-.161.749-.148 1.137.008.232.113.377.33.356.103-.01.208-.001.312-.001 8.866 0 17.732 0 26.599.003.163 0 .34-.067.49.077-.248.002-.494.007-.741.007-9.355 0-18.71-.001-28.064-.003-.13 0-.262.011-.39-.01-.374-.06-.608-.406-.587-.845.02-.416.268-.721.638-.73.52-.014 1.04.004 1.56.009"/></g><g clip-path="url(#e36qa)"><path fill="#f0cd72" d="M25.074 24.884c-.035-.48.173-1.097-.092-1.402-.245-.282-.746-.082-1.134-.082-5.964-.005-11.929-.004-17.893-.004-.713 0-.921.357-.695 1.198.028.103.08.197.121.295-.507.005-1.014.022-1.52.01-.416-.009-.676-.326-.68-.782-.003-.453.257-.788.666-.802.585-.02 1.17-.01 1.756-.01 6.374 0 12.748.004 19.122-.01.337 0 .484.083.423.51-.05.356.083.732-.074 1.079"/></g><g clip-path="url(#e36qa)"><path fill="#b9bfc8" d="M35.481 32.286c.05-.525-.166-.635-.562-.6-.513.046-1.03.013-1.546.014-.005-.595-.008-1.19-.015-1.786-.002-.168-.007-.3.193-.298.853.01 1.706.005 2.622.005-.448.852-.617 1.742-.692 2.665"/></g></g></g></g></svg>