<svg xmlns="http://www.w3.org/2000/svg" width="22" height="22" viewBox="0 0 22 22"><g><g><g><g/></g><g><g><path fill="#757575" d="M15.583 14.667H13.75V16.5h1.833zm-3.666 0h-1.834V16.5h1.834zm-3.667 0H6.417V16.5H8.25zM15.583 11H13.75v1.833h1.833zm-3.666 0h-1.834v1.833h1.834zM8.25 11H6.417v1.833H8.25zm9.167 7.333H4.583V9.167h12.834zM16.5 3.667V1.833h-1.833v1.834H7.333V1.833H5.5v1.834h-.917A1.825 1.825 0 0 0 2.76 5.5L2.75 18.333c0 1.009.816 1.834 1.833 1.834h12.834a1.839 1.839 0 0 0 1.833-1.834V5.5a1.839 1.839 0 0 0-1.833-1.833z"/></g></g></g></g></svg>