<svg xmlns="http://www.w3.org/2000/svg" width="24" height="24" viewBox="0 0 24 24"><g><g><g/><g><path fill="#2e90cf" d="M6.999 14.992H18.98v1.998H6.999c-1.518 0-2.476-1.628-1.747-2.967l1.347-2.437-3.594-7.581H1.008V2.007h3.265l4.254 8.99h7.009L19.4 4.005l1.737.958-3.854 7.002a1.987 1.987 0 0 1-1.747 1.03H8.097zm11.982 4.994a2.003 2.003 0 0 1-1.997 1.998 1.995 1.995 0 0 1-1.987-1.998c0-1.098.888-1.997 1.987-1.997 1.098 0 1.997.899 1.997 1.997zm-9.985 0a2.003 2.003 0 0 1-1.997 1.998 1.995 1.995 0 0 1-1.987-1.998c0-1.098.889-1.997 1.987-1.997s1.997.899 1.997 1.997zm1.997-13.984H7.997V4.005h2.996V1.008h1.997v2.997h2.995v1.997H12.99V9h-1.997z"/></g></g></g></svg>