<svg xmlns="http://www.w3.org/2000/svg" width="40" height="40" viewBox="0 0 40 40"><defs><clipPath id="jwmca"><path d="M0 40V0h40v40z"/></clipPath></defs><g><g><g><g/><g clip-path="url(#jwmca)"><path d="M.591 10.68c-.443-.098-.589-.39-.587-.823.009-2.152 0-4.304.006-6.457.004-1.21.864-2.064 2.079-2.065 5.412-.003 10.824-.002 16.236.002.288 0 .483-.026.648-.342.338-.647.933-.987 1.666-.988 5.787-.008 11.574-.01 17.36 0A1.972 1.972 0 0 1 39.98 2c.009 3.555.01 7.11 0 10.664-.003 1.143-.893 1.99-2.06 2.002-.602.007-.602.007-.602.607v9.165c-.001 1.413-.809 2.227-2.214 2.228H2.213c-1.381 0-2.204-.82-2.204-2.194-.002-2.777.003-5.555-.005-8.332-.001-.433.142-.725.587-.82.424-.105.723.07.838.496.059.217.046.441.046.663v7.534c0 .152-.003.305.004.457.026.522.196.697.706.723.18.01.36.005.541.005h30.075c.083 0 .167-.003.25.003.706.021 1.412.002 2.118-.009.473-.007.642-.192.677-.661.007-.097.006-.194.006-.291v-8.818c0-.585-.274-.773-.842-.602-.147.044-.196.138-.212.27-.019.152-.014.305-.014.457l-.001 7.404c0 .29.016.586-.16.845-.188.234-.441.323-.732.333-.18.006-.36.005-.541.005H4.006c-1.306 0-1.468-.16-1.468-1.456V5.228c0-1.173.188-1.362 1.347-1.362h14.027c.567-.006.776-.315.587-.856-.044-.125-.125-.173-.242-.19-.152-.024-.305-.018-.457-.018H2.566c-.999 0-1.09.093-1.09 1.097l-.001 5.664c0 .208.01.418-.046.621-.116.426-.416.602-.838.495"/></g><g clip-path="url(#jwmca)"><path fill="#e6eaee" d="M.591 10.68c.574-.061.748-.248.749-.825.002-2.097 0-4.194 0-6.29.001-.695.2-.898.884-.898 5.357 0 10.713.004 16.07-.008.323-.001.382.09.377.39-.016.951-.003.951-.933.951H3.625c-.764 0-.952.19-.952.96v18.079c0 .766.193.96.954.96 10.033 0 20.066 0 30.099.004.319 0 .605-.041.829-.288.183.202.06.4-.039.568-.324.558-.755.983-1.446 1.036-.152.004-.304.013-.457.013H2.35c-.85 0-1.008-.16-1.008-1.025l-.001-8.164c0-.578-.175-.764-.749-.824a2.18 2.18 0 0 0 0-1.306c.48-.209.668-.546.66-1.096-.007-.518-.292-.727-.661-.93a2.18 2.18 0 0 0 .001-1.308"/></g><g clip-path="url(#jwmca)"><path d="M17.367 34.023c-.788-1.022-.833-2.188-.62-3.373.294-1.633 1.848-2.771 3.528-2.644 1.633.125 2.973 1.516 3.049 3.153.046 1.014-.012 2-.711 2.866.406.125.78.201 1.12.379 1.424.746 2.18 1.92 2.254 3.527.02.43.009.86.003 1.291-.006.522-.247.774-.759.775-3.497.003-6.994.003-10.492 0-.42 0-.721-.217-.727-.585-.012-.803-.095-1.612.113-2.404.396-1.512 1.438-2.478 3.242-2.985"/></g><g clip-path="url(#jwmca)"><path d="M3.387 34.031c-.794-1.028-.841-2.17-.64-3.327.296-1.692 1.86-2.848 3.564-2.696 1.672.15 2.971 1.564 3.027 3.261.033.99-.06 1.937-.717 2.762 1.688.388 2.788 1.345 3.248 2.98.222.789.131 1.601.116 2.403-.007.368-.308.58-.73.583-.832.006-1.664.002-2.497.002H.89c-.658-.001-.884-.217-.878-.866.005-.692-.073-1.393.112-2.072.452-1.656 1.553-2.632 3.263-3.03"/></g><g clip-path="url(#jwmca)"><path d="M36.597 34.03c1.695.387 2.795 1.347 3.257 2.98.223.788.128 1.601.115 2.404-.006.367-.307.58-.729.583-.791.006-1.582.002-2.373.002h-7.953c-.731 0-.93-.198-.923-.945.006-.678-.056-1.36.118-2.03.397-1.529 1.538-2.59 3.204-2.973.015-.156-.106-.252-.18-.36-.69-1.004-.654-3.307.173-4.35.89-1.121 2.33-1.615 3.715-1.176 1.311.416 2.243 1.674 2.297 3.063.039 1.001-.036 1.968-.72 2.802"/></g><g clip-path="url(#jwmca)"><path fill="#010101" d="M.59 11.987c.56.063.745.267.75.83.002.125.002.25 0 .374-.005.575-.176.762-.75.821-.443-.097-.599-.388-.585-.821.015-.495-.094-1.037.585-1.204"/></g><g clip-path="url(#jwmca)"><path fill="#68b0fb" d="M5.754 5.348c2.137-.005 4.274-.011 6.41-.014 2.041-.002 4.081.007 6.122-.008.312-.003.388.075.386.387-.015 2.25-.01 4.5-.008 6.75.001 1.38.82 2.214 2.197 2.194.372-.005.489.082.475.47-.032.887-.005 1.777-.013 2.665-.003.338.038.639.384.805.348.167.607.009.864-.212 1.356-1.169 2.72-2.33 4.072-3.503a.833.833 0 0 1 .595-.22c1.902.008 3.803.013 5.705-.004.315-.002.386.08.384.389-.014 2.416-.015 4.833.001 7.25.003.328-.101.376-.396.376-4.191-.01-8.383-.01-12.575 0-.28 0-.357-.062-.384-.354-.192-2.09-1.891-3.629-3.997-3.65-.125 0-.252-.012-.375.003-.228.028-.296-.075-.27-.284.008-.068.005-.139 0-.208-.049-.7.026-1.307.564-1.887.653-.703.812-1.65.767-2.609-.01-.212.016-.356.263-.42a.51.51 0 0 0 .388-.493c-.003-1.025.139-2.06-.111-3.07-.443-1.79-2.003-3.015-3.853-3.029-.678-.005-1.358-.058-2.035.061-1.857.327-3.251 1.917-3.303 3.797-.019.68-.002 1.361-.008 2.042-.003.34.12.61.454.714.19.059.222.152.215.324-.059 1.253.3 2.354 1.216 3.242.102.098.115.21.114.338-.003.375-.022.751.005 1.124.023.3-.08.373-.368.36-1.323-.056-2.447.386-3.332 1.391-.47.533-.745 1.162-.905 1.848-.227-.083-.185-.288-.192-.456-.017-.443-.006-.887-.006-1.33V6.614c0-.194-.004-.388.01-.581.024-.351.159-.616.54-.686"/></g><g clip-path="url(#jwmca)"><path fill="#fb6067" d="M35.736 13.32c-2.912.004-5.824.015-8.737.006a1.462 1.462 0 0 0-1.048.39c-1.06.935-2.141 1.846-3.215 2.765-.134-.088-.073-.21-.074-.308-.007-.666-.001-1.332-.004-1.998-.003-.603-.233-.836-.824-.841-.36-.003-.72.004-1.081-.002-.503-.009-.753-.241-.754-.736-.005-3.51-.005-7.022 0-10.533.001-.506.256-.73.8-.73 1.9-.004 3.8-.002 5.7-.002h10.277c.152 0 .304.01.456.015.187.163.208.386.209.61.007 3.137.016 6.274-.005 9.41-.006 1.019-.683 1.759-1.7 1.953"/></g><g clip-path="url(#jwmca)"><path fill="#4fa3fa" d="M5.754 5.348c-.322.187-.422.466-.422.835.009 5.096.006 10.192.008 15.288 0 .148-.047.307.062.442-.082.753-.082.753-.848.753-.548 0-.548 0-.548-.542 0-5.455.003-10.91-.009-16.366 0-.341.071-.462.426-.432.441.037.887.017 1.33.022"/></g><g clip-path="url(#jwmca)"><path fill="#fbb760" d="M17.33 22.652l-8.9.014c-.5 0-.999-.013-1.497.006-.241.009-.27-.089-.252-.292.116-1.27 1.204-2.314 2.486-2.376.097-.005.195.004.29-.006.474-.048.804.067 1.152.483.996 1.192 3.208 1.148 4.178-.059.284-.354.559-.472.966-.424.11.013.22.011.331.016.361-.003.577.2.744.498.279.5.492 1.02.578 1.588.028.19.073.385-.077.552"/></g><g clip-path="url(#jwmca)"><path fill="#5a626e" d="M14.664 10.655c-.17.017-.316.092-.46.178-1.4.836-2.894 1.296-4.545 1.175-.248-.018-.347-.07-.328-.33.038-.55-.053-1.106.081-1.655.284-1.156 1.3-2.005 2.487-2.014.617-.005 1.24-.088 1.854.06.671.613.906 1.42 1.012 2.283a.354.354 0 0 1-.101.303"/></g><g clip-path="url(#jwmca)"><path fill="#fa4f56" d="M35.736 13.32c.619-.248 1.16-.58 1.42-1.242.097-.247.164-.492.164-.763-.005-3.091-.006-6.182.002-9.274 0-.24-.07-.462-.09-.695 1.197-.072 1.44-.014 1.428 1.305-.03 3.245-.01 6.49-.01 9.735 0 .763-.187.948-.96.947-.652-.002-1.303-.01-1.954-.014"/></g><g clip-path="url(#jwmca)"><path fill="#dae0e6" d="M33.07 25.319c.542-.189.997-.49 1.305-.99.118-.192.201-.386.18-.614.083-.21.1-.426.1-.65-.004-2.665.002-5.33-.01-7.994-.001-.309.054-.423.396-.414.943.024.943.006.943.942v8.826c0 .71-.2.908-.918.907-.665-.001-1.33-.009-1.996-.013"/></g><g clip-path="url(#jwmca)"><path fill="#fcd4a5" d="M13.081 16.595c-1.18.36-2.669-.594-2.994-1.918a3.428 3.428 0 0 1-.067-.325c-.14-.976-.121-.99.835-1.023.98-.034 1.902-.32 2.8-.697.112-.048.229-.088.344-.132.042.038.08.083.085.139.084 1.227.125 2.447-.61 3.533-.11.163-.228.314-.393.423"/></g><g clip-path="url(#jwmca)"><path fill="#fccb92" d="M13.081 16.595c.387-.635.792-1.262.882-2.027.08-.688.014-1.379.036-2.068.21-.091.422-.418.623-.232.292.27.745.462.713.99-.028.468.03.938-.085 1.403-.258 1.047-1.17 1.867-2.169 1.934"/></g><g clip-path="url(#jwmca)"><path fill="#fccb92" d="M11.416 19.334c-.189-.496-.022-1.007-.092-1.54.465.083.886.212 1.33.208.447-.003.878-.099 1.33-.219v1.384c-.572.37-1.207.294-1.834.251-.245-.016-.487-.076-.734-.084"/></g><g clip-path="url(#jwmca)"><path fill="#515663" d="M14.664 10.655c-.001-.849-.253-1.614-.758-2.297-.064-.087-.102-.192-.153-.29 1.173.095 2.172 1.174 2.238 2.434.019.366.003.735.003 1.14-.516-.288-.725-.909-1.33-.987"/></g><g clip-path="url(#jwmca)"><path fill="#faaf4f" d="M17.33 22.652c.013-.873-.31-1.634-.764-2.36-.122-.195-.331-.17-.482-.278 1.314.01 2.45 1.056 2.568 2.36.018.191.01.315-.245.297-.357-.025-.718-.014-1.078-.019"/></g><g clip-path="url(#jwmca)"><path fill="#fad3a4" d="M11.416 19.334c.015-.125.072-.147.199-.118.792.184 1.583.148 2.369-.05-.172.58-.625.784-1.162.821-.575.04-1.108-.069-1.406-.652"/></g><g clip-path="url(#jwmca)"><path fill="#68b0fb" d="M22.91 38.651c-2.441.005-4.883.007-7.325.018-.198.001-.25-.058-.26-.256-.096-1.89 1.03-3.082 2.928-3.08 1.304.002 2.608.01 3.912.016.198.023.379.09.494.258.492.722.798 1.508.769 2.397-.012.334-.16.58-.518.647"/></g><g clip-path="url(#jwmca)"><path fill="#fcd4a5" d="M19.564 33.922a1.908 1.908 0 0 1-1.562-1.793 9.612 9.612 0 0 1-.001-.914c.048-1.067.913-1.872 1.995-1.868.182.067.286.21.366.377.597 1.252.589 2.516.048 3.777-.206.48-.284.495-.846.421"/></g><g clip-path="url(#jwmca)"><path fill="#fccb92" d="M19.564 33.922c.576.127.728-.317.847-.697.423-1.345.432-2.662-.415-3.878.939-.004 1.702.564 1.92 1.466.138.572.141 1.16-.006 1.731-.267 1.04-1.347 1.662-2.346 1.378"/></g><g clip-path="url(#jwmca)"><path fill="#4fa3fa" d="M22.91 38.651c.452-.24.466-.66.407-1.078a4.515 4.515 0 0 0-.668-1.806.994.994 0 0 0-.484-.418c1.585.086 2.766 1.583 2.5 3.149-.034.194-.142.167-.26.166-.499-.002-.997-.008-1.495-.013"/></g><g clip-path="url(#jwmca)"><path fill="#fb6067" d="M8.92 38.651c-2.441.005-4.883.008-7.325.018-.197 0-.25-.059-.261-.257-.102-1.866 1.03-3.08 2.887-3.079 1.318.001 2.636.01 3.953.017.198.022.38.088.494.257.493.722.799 1.508.769 2.396-.011.335-.158.58-.517.648"/></g><g clip-path="url(#jwmca)"><path fill="#fcd4a5" d="M5.573 33.922A1.908 1.908 0 0 1 4.01 32.13a9.572 9.572 0 0 1 0-.915c.048-1.067.91-1.87 1.995-1.868.322.13.426.438.521.717.396 1.156.416 2.311-.106 3.439-.221.477-.284.494-.848.42"/></g><g clip-path="url(#jwmca)"><path fill="#fccb92" d="M5.573 33.922c.622.122.765-.377.88-.773.386-1.32.385-2.616-.447-3.803.939-.002 1.702.568 1.919 1.468a3.57 3.57 0 0 1-.006 1.73c-.266 1.038-1.348 1.662-2.346 1.378"/></g><g clip-path="url(#jwmca)"><path fill="#fa4f56" d="M8.92 38.651c.451-.24.465-.66.406-1.078a4.52 4.52 0 0 0-.668-1.806.992.992 0 0 0-.484-.417c1.58.082 2.77 1.588 2.499 3.145-.033.191-.14.17-.26.17-.498-.003-.995-.01-1.493-.014"/></g><g clip-path="url(#jwmca)"><path fill="#59e68a" d="M36.901 38.65c-2.44.006-4.882.009-7.323.019-.197 0-.25-.059-.261-.257-.102-1.863 1.032-3.08 2.887-3.079 1.317.001 2.634.01 3.952.016.197.023.379.089.494.258.492.722.798 1.507.768 2.396-.01.335-.158.581-.517.648"/></g><g clip-path="url(#jwmca)"><path fill="#fcd4a5" d="M33.553 33.923a1.906 1.906 0 0 1-1.56-1.794 9.3 9.3 0 0 1 0-.915c.05-1.07.911-1.872 1.994-1.867.182.068.287.21.366.377.59 1.252.6 2.516.047 3.778-.21.48-.28.493-.847.42"/></g><g clip-path="url(#jwmca)"><path fill="#fccb92" d="M33.553 33.923c.622.12.766-.377.881-.773.386-1.32.385-2.616-.447-3.803.938-.002 1.702.566 1.92 1.467a3.52 3.52 0 0 1-.014 1.772c-.278 1.009-1.36 1.614-2.34 1.337"/></g><g clip-path="url(#jwmca)"><path fill="#41e279" d="M36.901 38.65c.452-.239.465-.659.406-1.077a4.512 4.512 0 0 0-.668-1.807.997.997 0 0 0-.483-.417c1.58.081 2.774 1.59 2.5 3.145-.034.19-.14.171-.261.17-.498-.003-.996-.008-1.494-.013"/></g><g clip-path="url(#jwmca)"><path d="M25.992 7.315c0-1.055.003-2.11-.003-3.164-.001-.292.038-.557.315-.72.288-.169.553-.096.819.07 1.69 1.06 3.384 2.114 5.073 3.177.63.397.62.924-.019 1.324-1.666 1.046-3.337 2.084-5.003 3.13-.274.173-.544.286-.852.102-.286-.172-.336-.446-.333-.755.007-1.055.003-2.11.003-3.164"/></g><g clip-path="url(#jwmca)"><path fill="#e6eaee" d="M30.729 7.333l-3.38 2.112V5.22l3.38 2.114"/></g></g></g></g></svg>