<svg xmlns="http://www.w3.org/2000/svg" width="14" height="15" viewBox="0 0 14 15"><g><g><g><g><g><path fill="#757575" d="M6.994 14.001a6.232 6.232 0 0 1-2.158-.386.373.373 0 0 0-.202-.02l-3.148.541.833-1.902a.372.372 0 0 0-.061-.394 6.003 6.003 0 0 1-1.49-3.957C.768 4.5 3.572 1.75 7.013 1.75c3.434-.007 6.223 2.72 6.227 6.092v.022c0 3.387-2.804 6.137-6.246 6.137zM7.032 1zm-.022.004C3.144 1.004 0 4.09 0 7.887a6.76 6.76 0 0 0 1.524 4.265l-1.02 2.325a.37.37 0 0 0 .199.492c.069.03.145.037.218.026l3.74-.645a6.85 6.85 0 0 0 2.33.397c3.865 0 7.009-3.087 7.009-6.883.008-3.784-3.113-6.86-6.968-6.864-.003.004-.011.004-.022.004z"/></g></g></g><g><g><g><path fill="#757575" d="M6.672 6.503H4.646a.376.376 0 0 0-.375.375c0 .206.169.375.375.375h2.026a.376.376 0 0 0 .375-.375.376.376 0 0 0-.375-.375z"/></g></g></g><g><g><g><path fill="#757575" d="M9.328 8.378H4.676a.376.376 0 0 0-.375.375c0 .207.169.375.375.375h4.652a.376.376 0 0 0 .375-.375.376.376 0 0 0-.375-.375z"/></g></g></g></g><g><path fill="#d32f2f" d="M8 3a3 3 0 1 1 6 0 3 3 0 0 1-6 0z"/></g></g></svg>