<svg xmlns="http://www.w3.org/2000/svg" width="40" height="40" viewBox="0 0 40 40"><defs><clipPath id="ifpfa"><path d="M0 40V0h40v40z"/></clipPath></defs><g><g><g><g/><g clip-path="url(#ifpfa)"><path d="M40 34.555v2.067c-.153 1.544-1.038 2.514-2.372 3.125-.396.181-.82.252-1.254.252-10.896 0-21.792.003-32.688-.002-1.593 0-3.14-1.214-3.577-2.77-.08-.284-.085-.578-.096-.866-.02-.555-.012-1.112-.004-1.668.006-.375.2-.585.562-.639.13-.019.26-.013.39-.014.584-.007.606-.027.606-.636.001-6.887.002-13.775 0-20.662-.001-1.28.608-2.16 1.699-2.715.483-.246 1.017-.304 1.556-.315.244-.005.55.111.714-.067.156-.17-.05-.447-.05-.682-.001-1.038.402-1.861 1.304-2.366 1.356-.758 2.73-1.48 4.098-2.218 2.343-1.265 4.69-2.521 7.027-3.797 1.259-.687 2.524-.782 3.82-.199.593.267 1.161.594 1.722.928.3.179.453.429.399.79-.222.548-.51.669-1.042.437-.48-.21-.919-.496-1.379-.742-.935-.5-1.862-.516-2.797-.011-1.964 1.06-3.923 2.128-5.888 3.185-1.517.817-3.031 1.639-4.552 2.45-.276.147-.555.292-.81.476-.736.536-.688 1.468.104 1.919 1.555.884 3.14 1.708 4.712 2.561 2.008 1.09 4.026 2.158 6.025 3.264.229.126.46.249.698.355.773.347 1.548.333 2.298-.053a96.196 96.196 0 0 0 2.447-1.319c.218-.12.245-.226.077-.42-1.1-1.272-2.198-2.544-3.288-3.823-.307-.36-.638-.698-.913-1.084-.243-.342-.208-.783.063-1.005.276-.226.711-.186.983.133.97 1.14 1.96 2.263 2.931 3.4.477.56.958 1.116 1.436 1.675.184.216.351.264.605.121 1.854-1.043 3.745-2.018 5.606-3.049.468-.259.96-.473 1.412-.765.743-.478.802-1.328.112-1.882-.504-.404-1.104-.646-1.666-.947-1.966-1.056-3.922-2.132-5.895-3.175-.553-.292-.648-.594-.384-1.165.305-.337.666-.278 1-.097 1.377.747 2.765 1.474 4.138 2.228 1.064.584 2.136 1.153 3.203 1.733 1.095.595 1.608 1.617 1.39 2.866-.048.27.012.363.282.354a6.022 6.022 0 0 1 1.282.074c1.435.257 2.427 1.434 2.428 2.92.003 6.808.001 13.617.001 20.425v.279c.002.61.01.622.609.621.403 0 .803-.012.916.515"/></g><g clip-path="url(#ifpfa)"><path fill="#6ec07c" d="M8.65 32.003c-.057-.495-.21-.644-.7-.649-.65-.006-1.302-.022-1.951.007-.341.015-.434-.08-.433-.435.013-4.24.008-8.48.008-12.719 0-1.324.008-2.65-.005-3.974-.003-.293.048-.415.376-.41 1.509.018 3.017.014 4.526.002.275-.003.345.08.348.356.009.9-.083 1.803.057 2.698.333 2.125 1.486 3.61 3.442 4.406 3.193 1.3 6.46 1.474 9.782.565.112-.03.225-.052.343-.079.074.391.016.73-.194 1.067-.334.536-.636 1.093-.94 1.648-.708 1.296.108 2.74 1.56 2.757.246.003.498.016.738-.029 1.197-.221 1.82-1.534 1.245-2.634-.342-.654-.716-1.29-1.085-1.929-.232-.399-.092-.827-.114-1.241-.008-.137.143-.137.23-.178 2.232-1.06 3.334-2.853 3.35-5.351.003-.583.007-1.166-.004-1.749-.004-.21.038-.307.276-.306 1.56.01 3.121.014 4.681-.003.32-.003.285.177.285.38v6.756c0 3.299 0 6.597-.002 9.896 0 .557.068.497-.51.497H10.705c-.639 0-.71.049-.906.587-.375.177-.762.127-1.15.064"/></g><g clip-path="url(#ifpfa)"><path fill="#665e66" d="M23.753 2.195c.294.272.634.456 1.02.552-.17.495-.096.694.352.935l7.201 3.88c.115.063.23.126.338.197.837.549.828 1.655-.04 2.139-1.483.825-2.98 1.62-4.472 2.427-.873.472-1.75.934-2.616 1.417-.238.133-.378.149-.58-.09-1.444-1.705-2.908-3.391-4.363-5.085-.304-.353-.677-.436-.948-.2-.257.224-.255.606.038.949 1.202 1.409 2.412 2.81 3.62 4.215.222.259.445.517.671.773.088.1.152.196-.012.28-1.032.527-2.007 1.175-3.087 1.603-.79.314-1.555.147-2.287-.25-2.191-1.186-4.385-2.368-6.578-3.552-1.503-.812-3.003-1.633-4.511-2.436-.462-.246-.719-.618-.727-1.132-.008-.526.281-.886.731-1.129 2.894-1.56 5.786-3.124 8.679-4.687l2.445-1.321c.932-.504 1.863-.503 2.795.002.47.255.938.514 1.414.76.434.223.636.162.917-.247"/></g><g clip-path="url(#ifpfa)"><path fill="#dee9ee" d="M8.65 32.003c.376-.142.766-.037 1.15-.064.15.489.297.601.812.602 1.625.002 3.25 0 4.876 0h19.23c.793 0 .924-.134.924-.948v-18.04c0-.762-.144-.911-.881-.911-1.391 0-2.783.001-4.174-.003-.12 0-.25.045-.399-.064l2.723-1.47a.325.325 0 0 1 .147-.047c.948.013 1.9-.081 2.843.044.718.096 1.252.748 1.295 1.48.006.093.006.186.006.278v20.146c0 .092-.01.185-.016.277-.112.11-.255.12-.4.127-.129.006-.259.004-.389.004-10.916 0-21.833 0-32.75-.003-.266 0-.55.067-.788-.128-.006-.145-.016-.29-.016-.436 0-6.61.017-13.222-.016-19.832-.007-1.28.802-1.937 1.94-1.994 1.562-.078 2.976.188 4.266 1.102.248.176.534.296.826.455-.154.103-.285.061-.406.061-1.418.004-2.836.001-4.253.003-.617.001-.796.18-.796.798v18.322c0 .58.182.775.736.778.937.006 1.873.001 2.81.002.366 0 .632-.137.7-.54"/></g><g clip-path="url(#ifpfa)"><path fill="#dee9ee" d="M4.103 35.35c.116-.01.232-.025.348-.025 3.459-.001 6.918.001 10.376-.006.252 0 .377.043.461.329.336 1.131 1.318 1.918 2.486 1.947 1.495.036 2.991.036 4.486 0 1.187-.028 2.155-.814 2.506-1.975.073-.24.17-.301.402-.3 4.447.006 8.894.006 13.34-.001.244 0 .327.048.329.32.008 1.596-.693 2.652-2.015 3-.269.071-.54.075-.813.075-10.077.002-20.154.002-30.23 0-.117 0-.233-.014-.35-.022-.272-.084-.458-.272-.633-.494-.572-.726-.776-1.57-.796-2.477-.003-.134.006-.266.103-.372"/></g><g clip-path="url(#ifpfa)"><path fill="#b3ced3" d="M2.859 33.283h34.327c.055.85.055.85-.765.85H3.467c-.633 0-.633 0-.624-.653 0-.066.01-.132.016-.197"/></g><g clip-path="url(#ifpfa)"><path fill="#454045" d="M20.18 21.193c-2.162.053-4.249-.317-6.147-1.39-1.331-.754-1.978-2.022-2.042-3.568-.034-.813-.006-1.629-.006-2.513l2.185 1.173c1.436.769 2.856 1.57 4.313 2.295 1.12.556 2.268.446 3.37-.124.74-.383 1.469-.79 2.205-1.182.415-.22.417-.217.412.277 0 .066-.007.132-.01.198-.057.13-.168.196-.286.256-.835.426-1.644.905-2.477 1.333-1.157.595-2.315.58-3.463-.075-.565-.322-1.145-.62-1.72-.927-.117-.064-.258-.22-.38-.11-.106.099-.007.279.028.414.377 1.461 1.206 2.555 2.551 3.223.375.186.772.312 1.154.477.121.052.296.046.313.243"/></g><g clip-path="url(#ifpfa)"><path fill="#665e66" d="M20.18 21.193c-.593-.293-1.24-.453-1.816-.79-1.337-.785-2.083-1.979-2.385-3.492-.018-.09-.047-.198.025-.265.084-.078.171.011.246.051.735.393 1.463.803 2.204 1.185 1.13.583 2.25.5 3.354-.097.883-.478 1.768-.951 2.652-1.426.004 1.294.005 2.588.014 3.881.001.189-.059.282-.244.336-1.324.389-2.663.667-4.05.617"/></g><g clip-path="url(#ifpfa)"><path fill="#665e66" d="M28.053 14.447c-.014 1.04.125 2.093-.235 3.107-.388 1.095-1.094 1.9-2.169 2.477v-4.313a.535.535 0 0 1 .257-.284c.609-.293 1.186-.647 1.79-.95.11-.056.226-.146.357-.037"/></g><g clip-path="url(#ifpfa)"><path fill="#b3cfd4" d="M4.103 35.349c-.009 1.007.117 1.972.777 2.79.167.205.362.374.55.553-.648.042-1.298.054-1.943-.007-1.233-.116-2.233-1.263-2.27-2.568-.022-.792-.022-.796.748-.792.712.004 1.425.016 2.138.024"/></g><g clip-path="url(#ifpfa)"><path fill="#b3cfd4" d="M16.452 35.346h7.112c-.087.54-.624 1.013-1.267 1.05-.634.035-1.27.019-1.906.02-.818.003-1.636.012-2.453-.003-.744-.014-1.265-.396-1.486-1.067"/></g><g clip-path="url(#ifpfa)"><path fill="#f3dc45" d="M25.057 23.783c.271.482.539.917.765 1.373.216.434-.053.865-.532.894-.155.01-.31.01-.466 0-.479-.028-.749-.46-.533-.892.227-.456.495-.892.766-1.375"/></g><g clip-path="url(#ifpfa)"><path fill="#454045" d="M28.053 14.447c-.84.346-1.614.825-2.404 1.27-.126-.527.12-.81.577-1.021.607-.282 1.188-.621 1.827-.96z"/></g><g clip-path="url(#ifpfa)"><path d="M13.736 28.57h5.689c.208 0 .417-.005.586.155a.599.599 0 0 1-.185.982c-.161.065-.33.056-.5.056H8.182c-.078 0-.156.004-.234-.002-.384-.028-.642-.277-.637-.611.005-.336.262-.575.658-.576 1.922-.006 3.844-.003 5.767-.003"/></g><g clip-path="url(#ifpfa)"><path d="M11.786 27.244c-1.272 0-2.545.006-3.817-.002-.52-.003-.814-.463-.579-.88.121-.214.313-.309.552-.309 2.583 0 5.167-.003 7.75.004.386 0 .624.267.61.62-.014.343-.24.563-.621.565-1.299.006-2.597.002-3.895.002"/></g></g></g></g></svg>