<svg xmlns="http://www.w3.org/2000/svg" width="152" height="110" viewBox="0 0 152 110"><g><g><g><g><g><g><g><path fill="#d87923" d="M11.219 79.484l-.157-.506a.877.877 0 0 0-.837-.618h-5.78c-.591 0-1.071.482-1.071 1.075v18.813h29.748V81.176c0-.593-.48-1.075-1.071-1.075H12.056a.877.877 0 0 1-.837-.617z"/></g></g><g><g><path fill="#fff" d="M5.007 99.047V81.565h26.752v17.482z"/></g></g><g><g><path fill="#ffb255" d="M32.472 99.047H3.742a.664.664 0 0 1-.649-.531L.013 83.494a.665.665 0 0 1 .65-.8h28.73c.315 0 .586.222.65.532l3.08 15.022c.084.412-.23.799-.65.799z"/></g></g></g><g><g><g><path fill="#d87923" d="M8.42 87.704H3.464a.414.414 0 1 1 0-.828H8.42c.228 0 .413.186.413.415a.413.413 0 0 1-.413.413z"/></g></g><g><g><g><path fill="#d87923" d="M7.922 86.143H2.967a.414.414 0 1 1 0-.828h4.955a.414.414 0 1 1 0 .828z"/></g></g><g><g><path fill="#d87923" d="M8.912 89.265H3.957a.413.413 0 1 1 0-.828h4.955a.413.413 0 1 1 0 .828z"/></g></g></g></g></g></g><g><g><g><g><g><g><g><g><g><g><path fill="#fff" d="M37.986 82.757a6.323 6.323 0 0 1-6.322-6.322V40.4a6.322 6.322 0 0 1 6.322-6.322H99.55a6.322 6.322 0 0 1 6.322 6.322v36.035a6.323 6.323 0 0 1-6.322 6.322z"/></g></g></g></g><g><g><g><path fill="#363956" d="M105.014 36.564v43.707c0 .897-.728 1.627-1.622 1.627H34.143c-.894 0-1.622-.73-1.622-1.627V36.564c0-.897.728-1.627 1.622-1.627h69.249c.894 0 1.622.73 1.622 1.627zm-1.622-3.345H34.143c-1.84 0-3.336 1.5-3.336 3.345v43.707a3.345 3.345 0 0 0 3.336 3.346h69.249a3.345 3.345 0 0 0 3.336-3.346V36.564a3.345 3.345 0 0 0-3.336-3.345z"/></g></g></g></g></g></g><g><g><g><path fill="#363956" d="M61.601 93.95V82.644h14.332V93.95z"/></g></g></g><g><g><g><path fill="#232638" d="M61.601 86.694v-3.077h14.332v3.077z"/></g></g></g><g><g><g><path fill="#232638" d="M82.398 95.913H55.137a2.952 2.952 0 0 1 2.947-2.956H79.45a2.952 2.952 0 0 1 2.948 2.956z"/></g></g></g></g></g></g><g><g><g><g><g><g><g><path fill="#fd938e" d="M65.439 98V29.584h51.27V98z"/></g></g></g><g><g><g><path fill="#fff" d="M68.037 95.529V32.055h46.074v63.474z"/></g></g></g></g><g><g><g><path fill="#ffb357" d="M78.65 33.987v-5.13h24.849v5.13z"/></g></g></g><g><g><g><path fill="#ffb357" d="M83.537 30.14v-3.085a2 2 0 0 1 2-2H96.61a2 2 0 0 1 2 2v3.085z"/></g></g></g><g><g><g><path fill="#ba6519" d="M86.689 28.078v-1.58h8.77v1.58z"/></g></g></g></g><g><g><g><g><path fill="#cae8ff" d="M79.944 44.037c.171 0 .31.14.31.311v5.178c0 .171-.139.31-.31.31H74.78a.311.311 0 0 1-.31-.31v-5.178c0-.171.139-.311.31-.311zm.859 5.489v-5.178a.86.86 0 0 0-.86-.86h-5.162a.86.86 0 0 0-.859.86v5.178a.86.86 0 0 0 .86.86h5.162a.86.86 0 0 0 .859-.86z"/></g></g></g><g><g><g><path fill="#cae8ff" d="M79.944 55.863c.171 0 .31.14.31.312v5.177c0 .172-.139.311-.31.311H74.78a.312.312 0 0 1-.31-.311v-5.177c0-.172.139-.312.31-.312zm.859 5.489v-5.177a.861.861 0 0 0-.86-.862h-5.162a.861.861 0 0 0-.859.862v5.177c0 .474.385.861.86.861h5.162a.861.861 0 0 0 .859-.861z"/></g></g></g><g><g><g><path fill="#cae8ff" d="M79.944 67.69c.171 0 .31.14.31.311v5.177c0 .172-.139.312-.31.312H74.78a.312.312 0 0 1-.31-.312v-5.177c0-.172.139-.312.31-.312zm.859 5.488v-5.177a.861.861 0 0 0-.86-.861h-5.162a.861.861 0 0 0-.859.861v5.177c0 .475.385.861.86.861h5.162a.861.861 0 0 0 .859-.86z"/></g></g></g><g><g><g><path fill="#cae8ff" d="M79.944 79.516c.171 0 .31.14.31.312v5.176c0 .172-.139.312-.31.312H74.78a.312.312 0 0 1-.31-.312v-5.176c0-.172.139-.312.31-.312zm.859 5.488v-5.176a.861.861 0 0 0-.86-.862h-5.162a.861.861 0 0 0-.859.862v5.176c0 .475.385.862.86.862h5.162a.861.861 0 0 0 .859-.862z"/></g></g></g><g><g><g><path fill="#fd938e" d="M92.154 44.037h-9.097a.274.274 0 0 1-.274-.275c0-.152.122-.275.479-.275h9.097c-.054 0 .069.123.069.275a.274.274 0 0 1-.274.275z"/></g></g></g><g><g><g><path fill="#cae8ff" d="M105.211 45.37h-6.492a.274.274 0 0 1 0-.55h6.492a.274.274 0 0 1 0 .55z"/></g></g></g><g><g><g><path fill="#cae8ff" d="M96.61 45.37H83.058a.274.274 0 0 1 0-.55h13.554c.151 0 .274.123.274.275a.274.274 0 0 1-.274.275z"/></g></g></g><g><g><g><path fill="#cae8ff" d="M106.66 46.702h-3.736a.274.274 0 0 1 0-.55h3.735c.151 0 .274.123.274.275a.274.274 0 0 1-.274.275z"/></g></g></g><g><g><g><path fill="#cae8ff" d="M101.05 46.702H88.065a.274.274 0 0 1 0-.55h12.987c.151 0 .274.123.274.275a.274.274 0 0 1-.274.275z"/></g></g></g><g><g><g><path fill="#cae8ff" d="M86.024 46.702h-2.967a.274.274 0 0 1-.274-.275c0-.152.122-.274.274-.274h2.967a.274.274 0 0 1 0 .55z"/></g></g></g><g><g><g><path fill="#cae8ff" d="M98.96 48.035H83.057a.274.274 0 0 1-.274-.275c0-.152.122-.275.274-.275H98.96a.274.274 0 0 1 0 .55z"/></g></g></g><g><g><g><g><path fill="#fd938e" d="M101.71 55.863H90.974a.274.274 0 0 1 0-.55h10.736a.274.274 0 0 1 0 .55z"/></g></g></g><g><g><g><path fill="#fd938e" d="M89.162 55.863h-5.9c-.357 0-.48-.123-.48-.275 0-.152.123-.275.275-.275h5.9c.152 0 .275.123.275.275 0 .152-.123.275-.07.275z"/></g></g></g><g><g><g><path fill="#cae8ff" d="M107.266 57.196H96.198a.274.274 0 1 1 0-.55h11.068a.274.274 0 0 1 0 .55z"/></g></g></g><g><g><g><path fill="#cae8ff" d="M93.86 57.196H83.058a.274.274 0 1 1 0-.55h10.804a.274.274 0 0 1 0 .55z"/></g></g></g><g><g><g><path fill="#cae8ff" d="M89.37 58.528h-6.313a.274.274 0 0 1 0-.549h6.313a.274.274 0 0 1 0 .55z"/></g></g></g></g><g><g><g><g><path fill="#fd938e" d="M107.952 67.69h-5.658a.274.274 0 0 1 0-.55h5.658a.274.274 0 0 1 0 .55z"/></g></g></g><g><g><g><path fill="#fd938e" d="M99.91 67.69h-9.05a.274.274 0 0 1 0-.55h9.05a.274.274 0 0 1 0 .55z"/></g></g></g><g><g><g><path fill="#fd938e" d="M88.11 67.69h-5.053a.274.274 0 0 1 0-.55h5.052a.274.274 0 0 1 0 .55z"/></g></g></g><g><g><g><path fill="#cae8ff" d="M104.46 69.022H94.88a.274.274 0 1 1 0-.55h9.579a.275.275 0 0 1 0 .55z"/></g></g></g><g><g><g><path fill="#cae8ff" d="M93.3 69.022H83.057a.274.274 0 1 1 0-.55H93.3a.275.275 0 0 1 0 .55z"/></g></g></g><g><g><g><path fill="#cae8ff" d="M98.41 70.355h-8.135a.274.274 0 0 1 0-.55h8.135a.274.274 0 0 1 0 .55z"/></g></g></g><g><g><g><path fill="#cae8ff" d="M87.536 70.355h-4.479a.274.274 0 0 1 0-.55h4.48a.274.274 0 0 1 0 .55z"/></g></g></g><g><g><g><path fill="#cae8ff" d="M102.26 71.688H83.056a.274.274 0 0 1-.274-.275c0-.152.122-.275.274-.275h19.202a.274.274 0 0 1 0 .55z"/></g></g></g></g><g><g><g><g><path fill="#fd938e" d="M92.36 79.516h-9.303a.274.274 0 0 1 0-.55h9.303a.275.275 0 0 1 0 .55z"/></g></g></g><g><g><g><path fill="#cae8ff" d="M105.56 80.848h-5.099a.274.274 0 1 1 0-.55h5.098a.274.274 0 0 1 0 .55z"/></g></g></g><g><g><g><path fill="#cae8ff" d="M99.154 80.848h-7.012a.274.274 0 1 1 0-.55h7.012a.275.275 0 0 1 0 .55z"/></g></g></g><g><g><g><path fill="#cae8ff" d="M90.149 80.848h-7.092a.274.274 0 1 1 0-.55h7.092a.275.275 0 0 1 0 .55z"/></g></g></g><g><g><g><path fill="#cae8ff" d="M98.41 82.181h-9.647a.274.274 0 0 1 0-.55h9.647a.274.274 0 0 1 0 .55z"/></g></g></g><g><g><g><path fill="#cae8ff" d="M86.941 82.181h-3.884a.274.274 0 1 1 0-.55h3.884a.274.274 0 0 1 0 .55z"/></g></g></g></g></g></g><g><g><g><g><path fill="#fd938e" d="M81.333 55.91c-.386-.728-1.787.708-2.071.956-.94.822-1.713 1.784-2.248 2.896a5.802 5.802 0 0 0-.687-1.088c-.328-.409-.697-.907-1.227-1.048-.172-.045-.266.157-.163.282.72.866 1.297 1.708 1.585 2.815a.379.379 0 0 0 .083.152c.018.408.68.519.855.066.483-1.243 1.116-2.34 2.083-3.266.346-.33.706-.647 1.072-.955.116-.096.809-.532.675-.785.015.029.058.003.043-.025z"/></g></g></g></g><g><g><g><g><path fill="#fd938e" d="M81.333 43.867c-.386-.727-1.787.708-2.071.957-.94.822-1.713 1.784-2.248 2.896a5.801 5.801 0 0 0-.687-1.089c-.328-.408-.697-.907-1.227-1.047-.172-.045-.266.157-.163.281.72.866 1.297 1.708 1.585 2.815a.379.379 0 0 0 .083.153c.018.407.68.518.855.065.483-1.243 1.116-2.339 2.083-3.265.346-.331.706-.648 1.072-.955.116-.097.809-.533.675-.785.015.028.058.003.043-.026z"/></g></g></g></g><g><g><g><g><path fill="#fd938e" d="M81.333 67.795c-.386-.728-1.787.707-2.071.956-.94.822-1.713 1.784-2.248 2.896a5.812 5.812 0 0 0-.687-1.088C76 70.15 75.63 69.65 75.1 69.51c-.172-.045-.266.157-.163.282.72.866 1.297 1.708 1.585 2.815a.377.377 0 0 0 .083.152c.018.407.68.518.855.066.483-1.244 1.116-2.34 2.083-3.266a21.64 21.64 0 0 1 1.072-.954c.116-.098.809-.533.675-.786.015.029.058.004.043-.025z"/></g></g></g></g><g><g><g><g><path fill="#fd938e" d="M81.333 79.615c-.386-.728-1.787.708-2.071.956-.94.822-1.713 1.784-2.248 2.896a5.792 5.792 0 0 0-.687-1.088c-.328-.409-.697-.907-1.227-1.048-.172-.045-.266.157-.163.281.72.867 1.297 1.708 1.585 2.816a.38.38 0 0 0 .083.152c.018.408.68.518.855.066.483-1.243 1.116-2.34 2.083-3.266.346-.331.706-.647 1.072-.955.116-.096.809-.532.675-.785.015.028.058.003.043-.025z"/></g></g></g></g></g><g><g><g><g><g><g transform="rotate(-45.222 89 95)"><path fill="#2c324e" d="M88.402 103.875v-18.15h1.236v18.15z"/></g></g></g><g><g><g><g transform="rotate(-52.535 81.5 87.5)"><path fill="#cae8ff" d="M70.652 87.32c0-6 4.85-10.864 10.834-10.864S92.321 81.32 92.321 87.32c0 6-4.851 10.865-10.835 10.865-5.984 0-10.834-4.864-10.834-10.865z"/></g></g></g><g><g><g><path fill="#2c324e" d="M74.142 80.013c4.005-4.048 10.547-4.074 14.584-.057 4.036 4.016 4.061 10.576.056 14.624s-10.547 4.073-14.584.057c-4.036-4.017-4.061-10.577-.056-14.624zm15.32-.8c-4.446-4.424-11.65-4.396-16.061.062-4.411 4.457-4.383 11.682.062 16.105s11.65 4.395 16.06-.062c4.411-4.458 4.384-11.682-.062-16.106z"/></g></g></g></g></g><g><g><g><path fill="#5291ce" d="M92.944 100.182l9.667 9.618a.69.69 0 0 0 .974-.003l.486-.491a.695.695 0 0 0-.004-.978l-9.666-9.619z"/></g></g></g></g><g><g><g><g><path fill="#fff" d="M88.162 82.139c-.869-1.64-4.025 1.594-4.666 2.154-2.118 1.851-3.86 4.019-5.064 6.524a13.06 13.06 0 0 0-1.548-2.451c-.74-.92-1.57-2.044-2.765-2.36-.387-.102-.6.353-.368.633 1.625 1.952 2.923 3.848 3.572 6.343.033.129.1.244.187.344.042.917 1.53 1.167 1.926.148 1.088-2.802 2.516-5.271 4.695-7.358a48.848 48.848 0 0 1 2.414-2.151c.26-.218 1.822-1.2 1.52-1.77.034.065.132.008.097-.056z"/></g></g></g></g></g><g><g><path fill="#5291ce" d="M60.72 17.157a2.56 2.56 0 0 1-2.559-2.559V2.56A2.56 2.56 0 0 1 60.721 0h27.575a2.559 2.559 0 0 1 2.56 2.559v12.04a2.56 2.56 0 0 1-2.56 2.558z"/></g><g><g><path fill="#fff" d="M75.79 8.579c0 .71-.574 1.284-1.282 1.284-.707 0-1.28-.575-1.28-1.284 0-.71.573-1.285 1.28-1.285.708 0 1.281.575 1.281 1.285z"/></g><g><g><path fill="#fff" d="M67.994 8.579c0 .71-.573 1.284-1.281 1.284-.707 0-1.28-.575-1.28-1.284 0-.71.573-1.285 1.28-1.285.708 0 1.281.575 1.281 1.285z"/></g><g><path fill="#fff" d="M83.584 8.579c0 .71-.573 1.284-1.28 1.284-.708 0-1.282-.575-1.282-1.284 0-.71.574-1.285 1.281-1.285.708 0 1.281.575 1.281 1.285z"/></g></g></g><g><path fill="#5291ce" d="M85.472 16.08l1.871 6.44-7.83-5.93z"/></g></g><g><g><g><path fill="#ffb357" d="M56.145 40.62v-7.558h7.536v7.558z"/></g></g><g><g><path fill="#8e6f5a" d="M60.335 33.119a.479.479 0 1 1-.958 0 .479.479 0 0 1 .958 0z"/></g></g><g><g><g><path fill="#3a2019" d="M58.03 35.842v-.465h3.661v.465z"/></g></g><g><g><path fill="#3a2019" d="M57.4 37.29v-.466h4.922v.466z"/></g></g></g></g><g><g><g><path fill="#ffb357" d="M46.615 73.681V63.49h10.163V73.68z"/></g></g><g><g><path fill="#8e6f5a" d="M52.265 63.566a.646.646 0 1 1-1.29.001.646.646 0 0 1 1.29-.001z"/></g></g><g><g><g><path fill="#3a2019" d="M49.159 67.239v-.628h4.936v.628z"/></g></g><g><g><path fill="#3a2019" d="M48.308 69.19v-.627h6.637v.628z"/></g></g></g></g><g><g><g><path fill="#fff" d="M37.316 11.26c0-.681.55-1.233 1.228-1.233a1.23 1.23 0 0 1 1.229 1.232c0 .68-.55 1.232-1.229 1.232a1.23 1.23 0 0 1-1.228-1.232z"/></g></g><g><g><g><path fill="#2c324e" d="M37.094 16.952c2.006.463 3.87 2.1 4.292 4.151.439 2.142-.686 4.82-.415 6.99.133 1.07.709 2.207.26 3.185-.506 1.099-1.826 1.278-3.033 1.277-1.206-.002-2.327-.076-3.446-.526-.72-.289-1.105.16-1.32-.587-.233-.802.435-2.183 1.074-2.718.64-.536 1.102-1.003 1.31-1.92.307-1.342-.258-2.77-1.085-3.869-.858-1.14-1.989-2.58-1.447-4.096.49-1.372 2.16-2.15 3.54-1.94.092.015.182.032.27.053z"/></g></g></g><g><g><path fill="#7a1520" d="M41.101 28.04h-6.107l.36-1.446h5.747z"/></g></g><g><g><path fill="#fc927a" d="M36.693 18.22a1.03 1.03 0 0 1-1.029-1.031v-2.378h2.124v2.378c0 .3-.198 1.032-1.095 1.032z"/></g></g><g><g><path fill="#fc927a" d="M39.684 13.372a2.395 2.395 0 0 1-2.392 2.4 2.395 2.395 0 0 1-2.392-2.4 2.395 2.395 0 0 1 2.392-2.398 2.395 2.395 0 0 1 2.392 2.398z"/></g></g><g><g><path fill="#e26554" d="M37.788 15.72s-.719.14-1.465-.154c0 0 .098.723 1.465 1.138z"/></g></g><g><g><path fill="#e26554" d="M38.829 14.592a.062.062 0 0 1-.016-.121l.244-.064a.058.058 0 0 0 .042-.068l-.146-.689a.061.061 0 1 1 .12-.025l.146.689a.181.181 0 0 1-.13.212l-.245.065a.071.071 0 0 1-.015.001z"/></g></g><g><g><path fill="#fff" d="M34.75 13.372c0 .051.012.098.015.149.427.347.965.564 1.558.564a2.492 2.492 0 0 0 2.488-2.495c0-.035-.009-.066-.01-.1a2.44 2.44 0 0 0-1.584-.592 2.47 2.47 0 0 0-2.467 2.474z"/></g></g><g><g><path fill="#fff" d="M34.972 12.347s-.826 1.47.69 3.424v-1.988z"/></g></g><g><g><g><path fill="#fc927a" d="M36.275 14.058c.13.305.006.65-.276.77-.282.12-.614-.031-.744-.337-.129-.305-.005-.65.277-.77.281-.119.614.032.743.337z"/></g></g><g><g><path fill="#e26554" d="M35.69 14.693a.061.061 0 0 1-.06-.062c0-.034.026-.061.06-.061a.263.263 0 0 0 0-.527.061.061 0 0 1-.06-.061c0-.034.026-.062.06-.062a.386.386 0 0 1 0 .773z"/></g></g></g><g><g><path fill="#fc927a" d="M35.69 16.934s-.65.107-1.094.41c-.444.304 1.565 2.218 3.73 1.509 0 0 .954-.273.503-1.186 0 0-.215-.185-1.137-.575-.922-.39-2.001-.158-2.001-.158z"/></g></g><g><g><path fill="#fff" d="M33.473 11.63c0-.68.55-1.232 1.229-1.232a1.23 1.23 0 0 1 1.229 1.232c0 .68-.55 1.232-1.229 1.232a1.23 1.23 0 0 1-1.229-1.232z"/></g></g><g><g><path fill="#1b1114" d="M45.923 49.415v3.703h5.54l-3.244-2.152v-1.551z"/></g></g><g><g><path fill="#1b1114" d="M53.313 44.417l1.614 3.33 4.983-2.427-3.856-.514-.676-1.395z"/></g></g><g><g><path fill="#fd938e" d="M35.115 28.04s-6.337 5.168 3.237 6.532c6.999.998 7.312-1.335 9.425 1.301 2.112 2.636 5.73 9.564 5.73 9.564l2.51-1.11s-5-15.453-8.484-15.925c-3.485-.472-12.418-.363-12.418-.363z"/></g></g><g><g><path fill="#fd938e" d="M43.644 34.246l1.94 16.515h2.736l.373-15.363s-3.727-4.035-5.049-1.152z"/></g></g><g><g><path fill="#d84b2b" d="M48.653 37.198a.124.124 0 0 1-.11-.067c-1.549-3.035-4.67-2.242-4.801-2.208a.122.122 0 0 1-.15-.087.123.123 0 0 1 .086-.15c.033-.01 3.443-.882 5.084 2.333a.124.124 0 0 1-.11.18z"/></g></g><g><g><path fill="#2c324e" d="M34.185 18.189L37.15 24.8l5.278 2.293-.891 1.063-6.066-1.423a1.212 1.212 0 0 1-.897-.878l-1.373-5.651z"/></g></g><g><g><path fill="#505b7f" d="M41.93 26.94a.057.057 0 0 1-.025-.006l-4.804-2.087-.009-.025-1.715-4.74a.061.061 0 0 1 .036-.078c.032-.014.067.005.079.037l1.706 4.714 4.756 2.066a.06.06 0 0 1 .032.081.06.06 0 0 1-.056.037z"/></g></g><g><g><g><g><g><g><g><g><path fill="#1b1114" d="M46.892 28.131l-6.087.009a.282.282 0 0 1-.225-.45l4.08-5.471a.998.998 0 0 1 .799-.402l5.884-.009c.29 0 .455.33.282.563l-4.033 5.408a.876.876 0 0 1-.7.352z"/></g></g></g></g></g></g><g><g><g><g><g><g><path fill="#363956" d="M47.31 28.13l-6.087.01a.282.282 0 0 1-.225-.45l4.08-5.472a1 1 0 0 1 .799-.402l5.884-.008c.29 0 .455.33.282.562l-4.033 5.408a.874.874 0 0 1-.7.352z"/></g></g></g></g></g></g></g><g><g><g><g><g><g><path fill="#1b1114" d="M47.763 28.444l-10.797.016a.367.367 0 1 1-.001-.735l10.797-.015c.202 0 .366.164.366.367a.366.366 0 0 1-.365.367z"/></g></g></g></g></g></g></g></g><g><g><g><g><path fill="#8c141f" d="M129.061 50.928h4.603v-6.79a2.304 2.304 0 0 0-2.301-2.309 2.305 2.305 0 0 0-2.302 2.308z"/></g></g><g><g><path fill="#1b1114" d="M133.963 94.761v3.24h-4.845l2.837-1.883v-1.357z"/></g></g><g><g><path fill="#1b1114" d="M125.275 94.761v3.24h-4.845l2.837-1.883v-1.357z"/></g></g><g><g><g><path fill="#1dbbc8" d="M129.527 48.122c-1.678.387-3.239 1.757-3.591 3.474-.367 1.792.574 4.033.347 5.85-.111.894-.593 1.845-.217 2.663.423.92 1.528 1.07 2.537 1.069 1.009-.001 1.947-.064 2.884-.44.601-.242.925.133 1.105-.49.194-.673-.364-1.828-.9-2.276-.535-.448-.922-.839-1.096-1.606-.257-1.123.216-2.318.908-3.237.718-.955 1.665-2.159 1.21-3.428-.41-1.148-1.807-1.8-2.961-1.622a2.813 2.813 0 0 0-.226.043z"/></g></g></g><g><g><path fill="#fc927a" d="M126.465 57.13h4.517s2.513 1.777 3.692 8.423c.826 4.658-.711 30.019-.711 30.019s-.727.388-2.008 0l-3.226-25.793-3.454 25.797s-.714.271-2.008-.004c0 0-1.732-34.633 3.198-38.442z"/></g></g><g><g><path fill="#1dbbc8" d="M131.414 48.538s6.71 2.598 7.657.685c.946-1.913 1.646-5.547 1.646-5.547l.853.235s-.61 7.12-1.874 7.936c-1.264.816-7.278-.256-7.278-.256z"/></g></g><g><g><path fill="#1dbbc8" d="M128.795 48.422s-7.058-1.38-6.845-3.506c.213-2.124 1.549-5.574 1.549-5.574l-.848-.256s-3.26 6.355-2.623 7.72c.637 1.364 6.298 3.665 6.298 3.665z"/></g></g><g><g><path fill="#fc927a" d="M129.368 49.502l.495-.318c.475 0 .86-.387.86-.864v-1.99h-1.777v1.99c0 .251.043.769.422 1.182z"/></g></g><g><g><path fill="#fc927a" d="M127.36 45.127c0 1.108.895 2.007 2.001 2.007a2.004 2.004 0 0 0 2.002-2.007 2.004 2.004 0 0 0-2.002-2.007 2.004 2.004 0 0 0-2.002 2.007z"/></g></g><g><g><path fill="#e26554" d="M128.946 47.09s.602.118 1.226-.128c0 0-.082.605-1.226.953z"/></g></g><g><g><path fill="#e26554" d="M128.076 46.148a.051.051 0 0 0 .05-.038.052.052 0 0 0-.037-.064l-.204-.054a.048.048 0 0 1-.035-.056l.121-.576a.05.05 0 0 0-.039-.061.051.051 0 0 0-.06.04l-.123.576a.15.15 0 0 0 .11.177l.203.054a.048.048 0 0 0 .014.002z"/></g></g><g><g><path fill="#a81b22" d="M131.489 45.127c0 .042-.01.082-.013.123-.358.291-.807.473-1.303.473a2.085 2.085 0 0 1-2.082-2.088c0-.029.007-.055.008-.083.36-.305.818-.495 1.325-.495 1.14 0 2.065.926 2.065 2.07z"/></g></g><g><g><path fill="#a81b22" d="M131.303 44.269s.69 1.23-.577 2.865V45.47z"/></g></g><g><g><g><path fill="#fc927a" d="M130.212 45.7c-.108.256-.004.544.231.645.236.1.514-.026.622-.282.108-.256.005-.544-.23-.644-.236-.1-.515.026-.623.281z"/></g></g><g><g><path fill="#e26554" d="M130.701 46.232a.052.052 0 0 0 0-.103.22.22 0 0 1 0-.44.051.051 0 0 0 .052-.052.051.051 0 0 0-.052-.052.323.323 0 0 0 0 .647z"/></g></g></g><g><g><path fill="#7b97ba" d="M130.982 57.13s4.691 3.154 4.588 12.33c0 0-6.826 2.372-12.718 0 0 0 .54-9.137 3.322-12.06z"/></g></g><g><g transform="rotate(180 129.5 48.5)"><path fill="#1dbbc8" d="M128.73 49.502V47.56h2.21v1.942z"/></g></g><g><g><g><path fill="#91aece" d="M130.358 57.117l5.138 10.091.02.266-5.276-10.363c.039.004.079.005.118.006z"/></g></g><g><g><path fill="#91aece" d="M129.212 57.045l6.326 12.426-.1.032-6.334-12.441c.036-.005.072-.01.108-.017z"/></g></g><g><g><path fill="#91aece" d="M134.469 69.779l-6.791-13.338.091-.047 6.802 13.359z"/></g></g><g><g><path fill="#91aece" d="M133.476 70.01l-6.679-13.118.092-.047 6.691 13.143z"/></g></g><g><g><path fill="#91aece" d="M122.915 68.67l.512 1.005-.14-.05-.388-.762z"/></g></g><g><g><path fill="#91aece" d="M123.11 66.87l1.623 3.188-.132-.033-1.514-2.972z"/></g></g><g><g><path fill="#91aece" d="M123.358 65.177l2.61 5.125-.126-.02-2.512-4.934z"/></g></g><g><g><path fill="#91aece" d="M123.656 63.582l3.495 6.863-.121-.01-3.407-6.692z"/></g></g><g><g><path fill="#91aece" d="M124.007 62.09l4.285 8.416-.117-.003-4.207-8.264z"/></g></g><g><g><path fill="#91aece" d="M124.416 60.712l4.985 9.792-.114.003-4.917-9.658z"/></g></g><g><g><path fill="#91aece" d="M124.892 59.467l5.59 10.977-.112.008-5.53-10.863z"/></g></g><g><g><path fill="#91aece" d="M125.448 58.378l6.088 11.957-.109.013-6.04-11.865z"/></g></g><g><g><path fill="#91aece" d="M126.102 57.481l6.467 12.7-.107.019-6.434-12.637z"/></g></g><g><g><path fill="#91aece" d="M131.894 57.951l3.104 6.098c.03.117.063.26.098.417l-3.44-6.754c.077.074.159.156.238.24z"/></g></g></g><g><g><path fill="#1e0a0a" d="M126.174 57.4h5.11l-.302-1.21h-4.808z"/></g></g></g><g><g><g><g><g><path fill="#ffb255" d="M151.588 43.028l.407-2.998c.04-.3-.188-.58-.508-.624l-40.852-5.567c-.093.093-.616.166-.657.466l-.407 2.998c-.04.3.269.273.508.625l40.852 5.566c.32.044.616-.166.657-.466z"/></g></g></g><g><g><g transform="rotate(97.73 130.5 39)"><path fill="#d87923" d="M130.03 59.912l.032-42.503h1.376l-.032 42.503z"/></g></g></g></g><g><g><g><path fill="#ffb357" d="M110.634 33.84l-.555 4.088-4.528-2.693z"/></g></g></g><g><g><g><path fill="#d87923" d="M105.55 35.235l1.511-.407-.164 1.21z"/></g></g></g></g><g><g><path fill="#fc927a" d="M140.022 43.057a1.156 1.156 0 0 0 2.309 0c0-.64-.516-1.158-1.154-1.158-.638 0-1.155.519-1.155 1.158z"/></g></g><g><g><path fill="#fc927a" d="M121.818 39.086c0 .639.517 1.157 1.154 1.157a1.156 1.156 0 1 0 0-2.315c-.637 0-1.154.519-1.154 1.158z"/></g></g></g><g><g><g><g><path fill="#1b1114" d="M22.497 103.285v3.791h5.671l-3.32-2.203v-1.588z"/></g></g><g><g><path fill="#1b1114" d="M31.81 103.285v3.791h5.67l-3.32-2.203v-1.588z"/></g></g><g><g><path fill="#2c324e" d="M30.75 64.537h-4.702s-2.614 1.848-3.842 8.766c-.86 4.848.027 31.241.027 31.241s1.47.409 2.803.005l3.358-21.547 3.15 21.596s1.495.206 2.842-.08c0 0 1.496-36.017-3.636-39.981z"/></g></g><g><g><path fill="#1b1114" d="M31.053 64.817h-5.319l.315-1.26h5.004z"/></g></g><g><g><path fill="#505b7f" d="M28.394 83.11h-.003a.108.108 0 0 1-.105-.111l.18-6.706.964-.818a.106.106 0 0 1 .15.013.106.106 0 0 1-.012.15l-.89.757-.177 6.61a.107.107 0 0 1-.107.104z"/></g></g><g><g><path fill="#fff" d="M26.253 55.185s-1.76.344-2.56 3.478c-.396 1.56-2.474 13.882-2.474 13.882s5.824 3.763 13.702.973c0 0-1.824-5.824-2.586-9.33-.585-2.699-.24-5.928-1.928-7.546-1.688-1.616-2.239-1.504-4.154-1.457z"/></g></g><g><g><path fill="#fc927a" d="M27.159 56.366c-.495 0-.841-.503-.841-1v-2.07h1.85v2.07c0 .497-.111 1.065-1.01 1z"/></g></g><g><g><path fill="#fc927a" d="M29.82 52.042c0 1.154-.934 2.09-2.084 2.09a2.086 2.086 0 0 1-2.083-2.09c0-1.153.932-2.089 2.083-2.089 1.15 0 2.083.936 2.083 2.09z"/></g></g><g><g><path fill="#e26554" d="M28.167 54.087s-.625.122-1.276-.134c0 0 .086.629 1.276.991z"/></g></g><g><g><path fill="#e26554" d="M29.074 53.106a.054.054 0 0 1-.052-.04.054.054 0 0 1 .038-.066l.213-.057a.05.05 0 0 0 .036-.058l-.126-.6a.053.053 0 0 1 .04-.064.054.054 0 0 1 .064.041l.127.6a.156.156 0 0 1-.114.185l-.212.057a.057.057 0 0 1-.014.002z"/></g></g><g><g><path fill="#1e0a0a" d="M25.522 52.042c0 .045.01.086.013.13.372.302.84.49 1.356.49a2.17 2.17 0 0 0 2.167-2.172c0-.03-.007-.058-.008-.087a2.126 2.126 0 0 0-1.38-.515 2.151 2.151 0 0 0-2.148 2.154z"/></g></g><g><g><path fill="#1e0a0a" d="M25.715 51.15s-.72 1.28.6 2.982V52.4z"/></g></g><g><g><g><path fill="#fc927a" d="M26.85 52.64c.113.266.005.566-.24.67-.246.104-.536-.027-.648-.293-.112-.266-.005-.566.24-.67.246-.104.536.027.648.292z"/></g></g><g><g><path fill="#e26554" d="M26.341 53.192a.053.053 0 1 1 0-.107.23.23 0 0 0 0-.458.054.054 0 0 1 0-.108.336.336 0 0 1 0 .673z"/></g></g></g><g><g><path fill="#1e0a0a" d="M27.043 53.346a.219.219 0 0 1-.218-.219v-.816h.437v.816c0 .12-.098.219-.219.219z"/></g></g><g><g><path fill="#1e0a0a" d="M30.197 50.86c0 .495-.204.896-1.511.896-1.308 0-2.37-.167-2.37-.662 0-.494.235-1.206 1.542-1.206 1.308 0 2.34.477 2.34.972z"/></g></g><g><g><path fill="#117c99" d="M26.253 55.185L25.734 76.8l-5.429-.43s2.207-15.599 3.74-19.681c0 0 .807-1.476 2.208-1.504z"/></g></g><g><g><path fill="#117c99" d="M28.168 55.206s2.24 2.939 4.408 21.594l3.567-.644s-3.635-17.464-5.563-19.553c0 0-1.096-1.386-2.412-1.397z"/></g></g></g><g><g><path fill="#fc927a" d="M32.804 65.428s1.873.117 2.328-.182c.454-.3.748-.864.748-.864h-3.317z"/></g></g><g><g><path fill="#117c99" d="M25.045 56.631l1.578 7.537 6.303.214.154 1.379-9.203.965-.844-4.111z"/></g></g><g><g><g><g><g><g><g><g><path fill="#232638" d="M37.141 64.158l-6.832.01a.316.316 0 0 1-.253-.505l4.58-6.14c.21-.285.543-.452.896-.452l6.605-.01c.325 0 .511.371.317.632l-4.527 6.07a.982.982 0 0 1-.786.395z"/></g></g></g></g></g></g><g><g><g><g><g><g><path fill="#363956" d="M37.61 64.158l-6.832.01a.316.316 0 0 1-.252-.505l4.579-6.142a1.12 1.12 0 0 1 .897-.45l6.605-.01c.325-.001.51.37.316.631l-4.526 6.07a.98.98 0 0 1-.786.396z"/></g></g></g></g></g></g></g><g><g><g><g><g><g><path fill="#232638" d="M38.119 64.51l-12.12.018a.412.412 0 1 1-.001-.824l12.12-.018a.412.412 0 1 1 .001.825z"/></g></g></g></g></g></g></g><g><g><path fill="#a0c8ea" d="M26.097 61.711a.053.053 0 0 1-.052-.042l-1.132-5.325a.054.054 0 0 1 .04-.063.054.054 0 0 1 .064.04l1.133 5.325a.054.054 0 0 1-.041.064.038.038 0 0 1-.012.001z"/></g></g><g><g><path fill="#a0c8ea" d="M24.794 66.679a.896.896 0 0 1-.842-.591l-.969-2.662a.054.054 0 0 1 .032-.07.052.052 0 0 1 .068.033l.969 2.662a.786.786 0 0 0 .826.517l8.042-.844c.027-.009.055.018.059.048a.053.053 0 0 1-.048.058l-8.042.844a.967.967 0 0 1-.095.005z"/></g></g></g></g></g></svg>