<svg xmlns="http://www.w3.org/2000/svg" width="40" height="20" viewBox="0 0 40 20"><defs><clipPath id="eisfa"><path d="M0 20V0h40v20z"/></clipPath></defs><g><g><g><g/><g clip-path="url(#eisfa)"><path d="M40 19.287c-.282.55-.733.725-1.354.712-1.684-.032-3.37-.017-5.054-.007-.415.003-.667-.15-.736-.561-.122-.358.117-.515.383-.647.166-.082.353-.077.535-.077 1.365 0 2.73-.008 4.093.003 1.02.04.84.044.856-.818a5.84 5.84 0 0 0-.015-.688c-.097-.962-.658-1.578-1.513-1.979-.058-.027-.123-.042-.179-.074-.57-.325-1.107-.285-1.608.142-.778.441-1.546.897-2.323 1.34-.614.35-1.215.387-1.848.04a87.866 87.866 0 0 1-2.66-1.53c-.355-.211-.684-.273-1.064-.104-.213.094-.433.175-.644.275-.916.437-1.316 1.194-1.365 2.161-.014.268-.007.537-.003.806.005.402.036.437.448.439 1.444.003 2.888 0 4.331.002.208 0 .418-.017.623.023.399.076.587.32.539.685-.128.458-.254.557-.74.557-1.782.002-3.565.003-5.348 0-.737-.001-1.131-.386-1.128-1.114.003-.614-.035-1.228.036-1.84.166-1.433.98-2.379 2.282-2.966.687-.31 1.419-.49 2.143-.687.126-.034.254-.059.358-.141.31-.246.302-.434-.01-.673-1.322-1.009-2.386-2.239-2.63-3.896-.244-1.644-.256-3.322.344-4.926.898-2.4 3.144-3.856 5.722-3.737 2.396.11 4.511 1.843 5.178 4.258.39 1.419.4 2.88.198 4.307-.237 1.671-1.28 2.926-2.603 3.96-.12.095-.363.13-.307.339.06.223.21.411.462.479.414.11.829.214 1.239.335.7.206 1.372.473 1.958.915.769.58 1.221 1.343 1.336 2.294.073.124-.025.276.068.396z"/></g><g clip-path="url(#eisfa)"><path fill="#575757" d="M40 17.29c-.11-.117-.094-.256-.068-.396.024 0 .046.003.068.012z"/></g><g clip-path="url(#eisfa)"><path d="M7.145 19.428c-.126.456-.257.56-.739.56-1.757.001-3.514.002-5.272 0C.398 19.985.004 19.6.01 18.871c.004-.626-.04-1.253.038-1.879.171-1.364.935-2.29 2.173-2.876.72-.34 1.488-.527 2.25-.737.125-.034.252-.06.356-.143.31-.25.3-.432-.013-.671-1.322-1.01-2.386-2.242-2.63-3.898-.244-1.657-.257-3.348.362-4.963.911-2.38 3.145-3.819 5.71-3.698 2.396.113 4.506 1.845 5.175 4.265.389 1.406.39 2.856.2 4.27-.228 1.688-1.28 2.954-2.614 3.997-.118.091-.363.122-.295.343.07.224.218.403.47.472.476.128.95.259 1.423.396.386.112.754.269 1.113.45 1.346.678 1.994 1.78 2.048 3.242.019.499.013.998.004 1.497-.012.653-.414 1.046-1.08 1.047-1.757.005-3.515-.002-5.272.005-.406.002-.635-.171-.699-.563-.055-.328.054-.518.373-.647.173-.07.355-.074.537-.074 1.339.001 2.677-.008 4.015.004 1.018.039.84.045.855-.82.003-.216.01-.433-.023-.649-.184-1.231-1.12-2.15-2.387-2.333-.376-.054-.61.24-.905.384-.727.4-1.447.813-2.153 1.245-.798.489-1.542.481-2.334-.023-.785-.5-1.62-.923-2.416-1.41-.302-.186-.59-.22-.922-.091-.34.131-.673.263-.986.456-.727.448-1.052 1.107-1.093 1.925-.015.294-.007.589-.004.883.005.406.035.44.445.442 1.457.003 2.915 0 4.372.002.195 0 .392-.014.582.04.358.1.51.323.46.666"/></g><g clip-path="url(#eisfa)"><path fill="#22a5fd" d="M7.145 19.428c-.111-.455-.276-.59-.76-.59-1.612-.004-3.224-.011-4.837.006-.316.003-.4-.09-.376-.383.025-.305.006-.613.007-.92.007-1.123.529-1.904 1.56-2.4.684-.328 1.276-.434 1.961.064.717.52 1.538.9 2.306 1.353.593.351 1.172.35 1.765.007.794-.458 1.595-.905 2.393-1.357.1-.047.203-.031.304-.007 1.4.327 2.558 1.968 2.384 3.376a.388.388 0 0 1-.1.243c-1.423.005-2.847.009-4.27.017-.481.003-.646.138-.754.591H7.145"/></g><g clip-path="url(#eisfa)"><path fill="#fc4755" d="M37.967 18.82c-1.452.005-2.904.009-4.357.017-.479.002-.643.137-.754.594h-1.414c-.111-.457-.277-.593-.757-.594-1.638-.003-3.277-.01-4.914.006-.311.003-.407-.082-.382-.382.027-.317.003-.638.01-.958.021-1.086.522-1.86 1.525-2.342.701-.338 1.32-.475 2.03.061.665.502 1.452.844 2.168 1.283.666.408 1.3.413 1.971.007.752-.454 1.525-.871 2.29-1.304.1-.047.206-.04.302-.006 1.635.573 2.414 1.745 2.38 3.376a.338.338 0 0 1-.098.242"/></g><g clip-path="url(#eisfa)"><path d="M19.091 15.53c.23.198.392.325.536.468.235.235.247.567.044.797a.572.572 0 0 1-.805.062 33.042 33.042 0 0 1-1.56-1.333c-.365-.336-.356-.818.014-1.154a36.59 36.59 0 0 1 1.534-1.304c.275-.223.585-.192.803.04.223.236.21.57-.046.823-.136.135-.29.254-.44.383.069.122.185.061.275.062.975.005 1.95.002 2.925.004.478 0 .758.224.75.589-.008.35-.277.56-.734.562-1.064.002-2.127 0-3.296 0"/></g><g clip-path="url(#eisfa)"><path d="M21.068 6.62c-.219-.193-.378-.318-.52-.46-.235-.235-.249-.564-.047-.794.213-.241.527-.288.8-.067.54.438 1.076.886 1.584 1.36.34.315.334.776-.007 1.092-.51.473-1.044.922-1.585 1.361a.57.57 0 0 1-.802-.087c-.195-.235-.17-.558.07-.793.143-.14.299-.267.517-.46h-2.997c-.13 0-.26.003-.39-.002-.387-.012-.646-.243-.645-.572.001-.327.259-.57.647-.576.78-.01 1.56-.003 2.34-.003h1.035"/></g><g clip-path="url(#eisfa)"><path fill="#fee4c0" d="M31.477 12.457c-.67-.115-1.24-.44-1.768-.837-1.05-.786-1.834-1.762-2.158-3.047-.13-.515-.06-1.043-.078-1.565-.004-.139.083-.168.19-.194.64-.16 1.152-.523 1.583-.996.261-.287.548-.36.904-.221.084.032.178.039.263.069 1.129.4 2.265.428 3.383-.005.622-.24 1.076-.098 1.436.428a.77.77 0 0 1 .14.654 1.82 1.82 0 0 0-.03.574c.125 1.285-.396 2.361-1.172 3.324-.541.67-1.173 1.268-1.952 1.689-.237.128-.472.207-.741.127"/></g><g clip-path="url(#eisfa)"><path fill="#6d7fa9" d="M35.078 4.458a2.286 2.286 0 0 0-1.417.056 4.327 4.327 0 0 1-3.077.006c-.894-.328-1.652-.119-2.281.59-.202.227-.43.44-.76.507.063-1.785 1.289-3.902 3.742-4.382.618-.12 1.236-.146 1.843.07 1.087.686 1.64 1.724 1.982 2.902.024.084.045.176-.032.25"/></g><g clip-path="url(#eisfa)"><path fill="#fdd0a2" d="M31.477 12.457c.58.001.977-.369 1.384-.689 1.125-.886 1.993-1.954 2.328-3.372.014-.062.044-.124.042-.185-.034-.707.08-1.414 0-2.122.393.32.81.596 1.312.717.145.035.202.1.215.258.198 2.414-1.682 4.922-4.096 5.435-.39.083-.796.112-1.185-.042"/></g><g clip-path="url(#eisfa)"><path fill="#e31e2b" d="M37.967 18.82c.032-1.022-.146-1.978-.939-2.72-.467-.438-1.03-.715-1.646-.892.479-.452.98-.459 1.583-.198 1.347.58 1.858 1.285 1.863 2.74v.307c0 .817 0 .817-.86.763"/></g><g clip-path="url(#eisfa)"><path fill="#49679a" d="M35.078 4.458c-.194-.972-.686-1.794-1.312-2.553-.19-.228-.503-.32-.638-.6 1.097.21 1.94.808 2.604 1.67.545.708.82 1.525.959 2.392.011.072.026.18-.013.217-.078.072-.17-.005-.24-.055-.156-.113-.317-.223-.452-.358a4.36 4.36 0 0 0-.908-.713"/></g><g clip-path="url(#eisfa)"><path fill="#febb84" d="M29.984 13.977c.396-.595.396-.593 1.104-.405a3.984 3.984 0 0 0 2.483-.14c.217-.081.32-.058.419.151.131.277.344.5.615.678-.17.157-.351.25-.54.329-.357-.27-.717-.226-1.13-.098-1.062.328-2.04.062-2.951-.515"/></g><g clip-path="url(#eisfa)"><path fill="#fdd0a2" d="M29.984 13.977c.41.038.732.302 1.122.408.728.197 1.43.197 2.123-.09.381-.158.643-.038.835.295-.577.338-1.154.676-1.731 1.016-.132.077-.263.099-.403.018l-2.328-1.338.382-.309"/></g><g clip-path="url(#eisfa)"><path fill="#fee4c0" d="M7.26 12.458c-1.047-.218-1.862-.813-2.585-1.549-1.049-1.067-1.562-2.33-1.427-3.828.013-.145.036-.232.198-.27.642-.153 1.15-.525 1.584-.997.248-.27.52-.36.869-.227.096.037.203.046.3.08 1.13.405 2.267.423 3.385-.01.629-.242 1.074-.078 1.435.44.05.06.085.13.092.207.172 1.679-.11 3.233-1.312 4.523-.535.574-1.09 1.129-1.8 1.506-.236.126-.472.202-.74.125"/></g><g clip-path="url(#eisfa)"><path fill="#6d7fa9" d="M10.862 4.458a2.272 2.272 0 0 0-1.417.055 4.312 4.312 0 0 1-3.078.007c-.895-.327-1.655-.12-2.282.59-.203.23-.442.425-.76.524.061-1.742 1.137-3.403 2.744-4.085.917-.39 1.86-.556 2.843-.242 1.074.694 1.642 1.722 1.982 2.9.024.084.046.176-.032.25"/></g><g clip-path="url(#eisfa)"><path fill="#fdd0a2" d="M7.26 12.458c.652-.008 1.1-.435 1.54-.804.864-.724 1.6-1.564 1.98-2.648.133-.384.262-.765.246-1.186-.022-.574-.006-1.149-.007-1.723.393.321.814.594 1.318.713.162.038.186.125.195.27.144 2.456-1.597 4.807-4.01 5.397-.42.103-.844.127-1.263-.02"/></g><g clip-path="url(#eisfa)"><path fill="#0181fb" d="M13.752 18.82c.024-.68-.058-1.34-.372-1.96-.462-.912-1.285-1.35-2.216-1.652.476-.457.979-.458 1.58-.199 1.349.583 1.859 1.288 1.865 2.74v.307c0 .82 0 .82-.857.764"/></g><g clip-path="url(#eisfa)"><path fill="#49669a" d="M10.862 4.458c-.217-1.02-.725-1.888-1.422-2.66-.161-.18-.425-.251-.528-.491 1.294.257 2.218 1.011 2.884 2.098.374.61.572 1.284.672 1.987.01.071.058.159-.03.205-.077.04-.151-.019-.212-.063-.155-.115-.32-.223-.454-.359a4.547 4.547 0 0 0-.91-.717"/></g><g clip-path="url(#eisfa)"><path fill="#febb84" d="M5.85 13.88c.03-.056.068-.11.088-.168.117-.344.325-.356.645-.236.923.344 1.857.3 2.77-.045.22-.082.319-.05.418.153.134.275.342.5.615.677-.17.154-.35.249-.539.328-.386-.285-.776-.205-1.206-.074-.922.281-1.79.049-2.617-.382-.094-.049-.224-.098-.173-.254"/></g><g clip-path="url(#eisfa)"><path fill="#fdd0a2" d="M5.85 13.88c.948.647 1.97.849 3.067.442.405-.15.697-.084.93.267L8.145 15.59c-.157.092-.307.114-.475.016-.746-.435-1.496-.864-2.277-1.314l.458-.413"/></g></g></g></g></svg>