<svg xmlns="http://www.w3.org/2000/svg" width="40" height="36" viewBox="0 0 40 36"><defs><clipPath id="jhqza"><path d="M0 36V0h40v36z"/></clipPath></defs><g><g><g><g/><g clip-path="url(#jhqza)"><path d="M37.678 29.058c.423.044.564.308.572.666.007.37.013.74-.003 1.108-.01.218.047.334.299.293.012-.002.026 0 .039 0 1.277.017 1.4.149 1.415 1.381.016 1.414-.542 2.504-1.909 3.166-.524.254-1.088.321-1.662.321-10.956.003-21.913-.003-32.869.007-1.912.002-3.296-1.196-3.513-2.728-.003-.02-.03-.036-.047-.054v-1.48c.233-.555.712-.673 1.267-.608.4.047.489-.085.488-.457-.014-6.037-.007-12.075-.012-18.112-.001-1.296.458-2.382 1.558-3.187a3.97 3.97 0 0 1 2.388-.772 928.22 928.22 0 0 1 7.147.005c.336.002.455-.055.452-.408-.007-.922-.068-1.846.063-2.768C13.73 2.75 16.05.496 18.874.081c3.668-.538 7.004 1.644 7.724 5.061.214 1.012.108 2.04.114 3.06.001.305.05.41.412.408 2.33-.02 4.66-.012 6.99-.01 2.431.002 4.133 1.595 4.136 3.89.006 4.768.002 9.536.001 14.304 0 .544-.096.673-.584.814-.365.027-.588-.127-.658-.463-.037-.182-.024-.368-.024-.553V12.964c0-.308-.018-.614-.067-.92-.208-1.315-1.224-2.186-2.636-2.218-1.092-.024-2.185-.005-3.277-.008-1.196.009-2.392.001-3.588.005-.562.001-.574.014-.577.53v.036c0 .596.006.602.621.604 1.6.004 3.199-.008 4.798.006a36.29 36.29 0 0 1 1.716-.002c1.1.026 1.747.627 1.764 1.67.023 1.402.006 2.805.006 4.208v13.402c0 .77.085.836.9.75.224-.024.323-.118.332-.326.014-.369-.018-.739.02-1.107.045-.434.265-.6.681-.536"/></g><g clip-path="url(#jhqza)"><path fill="#464655" d="M31.013 9.715c1.118-.002 2.236-.027 3.353-.002 1.381.031 2.568 1.01 2.68 2.357.024.294.049.587.049.881v13.88c0 .533.07.624.572.777l.011 1.45c-.413.035-.593.255-.584.64.008.37-.008.74.004 1.109.008.229-.065.327-.329.336-1.154.04-1.154.047-1.154-1.051V12.87c0-1.265-.523-1.754-1.873-1.756-.495 0-.99-.007-1.483-.01-.125-.055-.183-.165-.251-.268-.246-.372-.504-.734-.91-.972-.055-.032-.1-.077-.085-.149"/></g><g clip-path="url(#jhqza)"><path fill="#7fbffe" d="M13.268 11.709c.003 1.798-.014 3.597.015 5.394.051 3.07 2.355 5.622 5.538 6.173 3.72.644 7.338-1.843 7.825-5.377.143-1.031.05-2.066.072-3.1.018-.836.015-1.673.021-2.51.097-.051.204-.03.306-.031h5.116c.393 0 .437.041.46.42.008.122.004.246.004.369v17.299c0 .763 0 .763-.804.763l-9.529-.001c-.141 0-.286.024-.425-.025-.104-.09-.054-.209-.054-.313-.004-1.577.004-3.154-.01-4.731-.002-.253.068-.36.335-.424 3.434-.839 5.69-2.875 6.805-6.051.273-.776.368-1.584.4-2.398.015-.408-.19-.66-.542-.682-.363-.022-.601.185-.62.605-.054 1.22-.3 2.397-.925 3.474-1.453 2.504-3.675 3.932-6.699 4.16-4.092.31-7.733-2.4-8.555-6.106-.113-.508-.136-1.024-.185-1.539-.039-.412-.268-.62-.632-.592-.339.026-.535.267-.534.653.019 3.95 3.039 7.555 7.104 8.453.346.077.446.197.44.531a202.384 202.384 0 0 0-.002 4.657c.003.275-.072.352-.367.352-3.97-.01-7.94-.01-11.91 0-.306 0-.36-.092-.36-.358.007-6.012.005-12.024.006-18.037 0-.465.046-.509.532-.51 1.666 0 3.332-.002 4.999.002.389.002.655-.126.721-.517.484-.2.969-.195 1.454-.003"/></g><g clip-path="url(#jhqza)"><path fill="#e3e9f6" d="M19.295 22.198c-1.477-.135-2.651-.804-3.586-1.862-.8-.906-1.244-1.964-1.25-3.146-.016-3.68-.03-7.359.004-11.038.022-2.357 1.91-4.454 4.349-4.942.075-.015.154-.01.232-.015.437-.085.75.167 1.051.385 1.725 1.25 2.61 2.898 2.593 4.967-.009 1.158.001 2.316-.004 3.474 0 .179.043.375-.128.519-.225.063-.367-.086-.519-.193-.906-.64-1.797-1.298-2.704-1.937-.285-.201-.57-.35-.929-.176-.34.165-.406.464-.408.781a554.85 554.85 0 0 0-.002 4.39c.001.336.086.644.433.81.34.161.623.013.897-.178.91-.636 1.8-1.296 2.704-1.937.152-.108.294-.254.52-.202.16.115.137.284.137.44.004 1.639.062 3.279-.014 4.914-.095 2.056-1.11 3.655-2.947 4.775a1.403 1.403 0 0 1-.429.17"/></g><g clip-path="url(#jhqza)"><path fill="#bdc7db" d="M3.257 34.853c-1.091-.019-1.96-.787-2.07-1.834-.014-.122.001-.248-.018-.369-.049-.32.056-.429.428-.427 4.085.014 8.17.009 12.254.009.585 0 1.171.008 1.756-.005.214-.005.314.054.392.252.363.925 1.076 1.45 2.107 1.582.532.069.717-.05.881-.547.407-.188.895-.156 1.153.075.052.234.174.433.437.462.973.106 1.925.09 2.718-.576.337-.283.59-.621.721-1.031.048-.15.119-.216.298-.216 3.132.009 6.264.011 9.396.016.012 0 .025.005.037.008.112.121.126.269.121.418-.02.667-.192 1.285-.627 1.83-.205.258-.444.407-.79.38-.078-.005-.157 0-.235 0l-28.495-.001c-.154 0-.312.026-.464-.026"/></g><g clip-path="url(#jhqza)"><path fill="#d1dbef" d="M22.485 10.524c.15-.114.088-.274.088-.413.005-1.314.044-2.63-.007-3.942-.066-1.726-.81-3.159-2.236-4.265-.392-.304-.767-.618-1.286-.709 1.48-.272 2.849.011 4.075.817 1.54 1.011 2.399 2.425 2.416 4.207.034 3.646.04 7.293 0 10.939-.033 2.965-2.771 5.297-5.898 5.1-.115-.008-.228-.04-.342-.06.339-.305.772-.483 1.124-.776 1.124-.936 1.89-2.08 2.062-3.484.237-1.923.052-3.861.095-5.792.002-.088-.002-.174-.092-.229.359-.464.354-.928.001-1.393"/></g><g clip-path="url(#jhqza)"><path fill="#5b5c6c" d="M13.268 11.709l-1.454.003c-.071-.418-.247-.589-.692-.591-1.757-.008-3.514-.017-5.27.003-.838.009-1.404.562-1.464 1.354-.01.122-.003.246-.003.369 0 5.95-.004 11.9.008 17.85 0 .357-.102.454-.476.445-1.01-.023-1.01-.007-1.01-.978-.001-5.851-.002-11.702 0-17.553 0-1.439.717-2.433 2.01-2.79.3-.083.61-.116.924-.115 2.343.002 4.685.007 7.028-.006.317-.001.433.067.416.384-.03.54-.014 1.083-.017 1.625"/></g><g clip-path="url(#jhqza)"><path fill="#54a0fe" d="M21.867 31.083l8.278-.012c.638 0 1.277-.022 1.913.008.376.018.447-.111.447-.438-.01-5.729-.007-11.458-.007-17.187 0-.271-.018-.544.005-.813.023-.278-.084-.357-.375-.355-1.796.01-3.593.004-5.39.003.082-.127.213-.062.317-.062 2.29-.003 4.58-.001 6.87.001.46 0 .51.049.51.493 0 6.021-.002 12.043.007 18.064 0 .284-.089.347-.374.346-3.969-.006-7.937-.002-11.905-.002-.1 0-.21.035-.296-.046"/></g><g clip-path="url(#jhqza)"><path fill="#aebacf" d="M3.257 34.853c.182-.005.364-.014.546-.014h28.175c.904 0 1.22-.211 1.545-1.03.2-.503.241-1.026.224-1.557 1.626-.006 3.252-.012 4.878-.022.151 0 .19.052.204.192.148 1.427-.819 2.45-2.358 2.463-1.405.011-2.81.006-4.216.006-9.499 0-18.998 0-28.498-.002-.166 0-.338.036-.5-.036"/></g><g clip-path="url(#jhqza)"><path fill="#5b5c6c" d="M31.013 9.715c.602.313.952.828 1.246 1.388-1.755.005-3.51.006-5.265.018-.234.001-.286-.09-.278-.286a7.56 7.56 0 0 0-.001-.849c-.017-.24.096-.284.32-.283 1.326.01 2.652.01 3.978.012"/></g><g clip-path="url(#jhqza)"><path fill="#4a7edc" d="M19.36 28.456c0-.737.015-1.475-.008-2.212-.01-.315.055-.472.422-.384.087.021.181.016.272.014.591-.01.591-.012.591.533 0 1.463-.005 2.926.006 4.388.002.248-.06.34-.342.339-.942-.002-.942.01-.942-.871v-1.807"/></g><g clip-path="url(#jhqza)"><path fill="#94a4b8" d="M20.14 33.588c-.375-.153-.77-.036-1.153-.074-.09-.361-.337-.517-.723-.553-.472-.045-.852-.249-1.084-.709h5.63c-.258.532-.721.693-1.259.73-.233.016-.468 0-.702.004-.48.009-.64.146-.71.602"/></g><g clip-path="url(#jhqza)"><path d="M22.485 10.524c.556.532.556.86-.002 1.393l-2.895 2.06c-.125.088-.244.184-.375.265-.59.362-1.282.063-1.293-.604-.03-1.612-.03-3.225 0-4.837.014-.699.748-.985 1.356-.556.97.682 1.927 1.381 2.89 2.072.103.073.213.138.32.207"/></g><g clip-path="url(#jhqza)"><path fill="#497edb" d="M19.099 9.51l2.384 1.71-2.384 1.712z"/></g></g></g></g></svg>