<svg xmlns="http://www.w3.org/2000/svg" width="38" height="42" viewBox="0 0 38 42"><g><g><g><g><path fill="#ffc850" d="M35.789 21.996h-6.754a.523.523 0 0 0-.523.523V41h7.8V22.52a.523.523 0 0 0-.523-.523"/></g></g><g><g><path fill="#feb644" d="M31.175 21.996h-2.423a.523.523 0 0 0-.523.523V41h2.423V22.52c0-.289.234-.523.523-.523"/></g></g><g><g><path fill="#00aaf0" d="M22.302 30.81h-6.754a.523.523 0 0 0-.522.522V41h7.799v-9.668a.523.523 0 0 0-.523-.522"/></g></g><g><g><path fill="#059adb" d="M17.848 30.81h-2.423a.523.523 0 0 0-.523.522V41h2.423v-9.668c0-.288.234-.522.523-.522"/></g></g><g><g><path fill="#f7b594" d="M5.447 1a2.318 2.318 0 0 0-2.312 2.312 2.318 2.318 0 0 0 2.312 2.311A2.319 2.319 0 0 0 7.76 3.312 2.319 2.319 0 0 0 5.447 1"/></g></g><g><g><path fill="#f0a479" d="M5.558 3.312c0-.828.441-1.558 1.1-1.966A2.292 2.292 0 0 0 5.448 1a2.318 2.318 0 0 0-2.313 2.312 2.319 2.319 0 0 0 2.312 2.311c.444 0 .859-.126 1.211-.345a2.315 2.315 0 0 1-1.1-1.966"/></g></g><g><g><path fill="#f25c5c" d="M8.824 13.081H2.07a.523.523 0 0 0-.523.523V41h7.8V13.604a.523.523 0 0 0-.523-.523"/></g></g><g><g><path fill="#e54a4a" d="M4.493 13.081H2.07a.523.523 0 0 0-.523.523V41H3.97V13.604c0-.289.234-.523.523-.523"/></g></g><g><g><path fill="#f25c5c" d="M7.292 5.623h-3.69a2.13 2.13 0 0 0-2.125 2.125v2.578c0 .289.234.523.523.523h6.894a.523.523 0 0 0 .523-.523V7.748a2.13 2.13 0 0 0-2.125-2.125"/></g></g><g><g><path fill="#e54a4a" d="M3.9 10.326V7.748a2.13 2.13 0 0 1 2.125-2.125H3.602a2.13 2.13 0 0 0-2.125 2.125v2.578c0 .289.234.523.523.523h2.423a.523.523 0 0 1-.523-.523"/></g></g><g><g><path fill="#f7b594" d="M18.926 18.729a2.318 2.318 0 0 0-2.312 2.311 2.318 2.318 0 0 0 2.312 2.312 2.319 2.319 0 0 0 2.311-2.312 2.319 2.319 0 0 0-2.311-2.311"/></g></g><g><g><path fill="#f0a479" d="M19.008 21.04c0-.828.442-1.558 1.1-1.966a2.292 2.292 0 0 0-1.21-.345 2.318 2.318 0 0 0-2.313 2.311 2.319 2.319 0 0 0 2.312 2.312c.444 0 .859-.127 1.211-.346a2.315 2.315 0 0 1-1.1-1.966"/></g></g><g><g><path fill="#00c3ff" d="M20.77 23.352h-3.69a2.13 2.13 0 0 0-2.125 2.124v2.579c0 .288.234.523.523.523h6.894a.523.523 0 0 0 .523-.523v-2.579a2.13 2.13 0 0 0-2.125-2.124"/></g></g><g><g><path fill="#00aaf0" d="M17.287 28.055v-2.579a2.13 2.13 0 0 1 2.125-2.124h-2.423a2.13 2.13 0 0 0-2.124 2.124v2.579c0 .288.234.523.522.523h2.423a.523.523 0 0 1-.523-.523"/></g></g><g><g><path fill="#f7b594" d="M32.412 9.915a2.318 2.318 0 0 0-2.312 2.312 2.318 2.318 0 0 0 2.312 2.311 2.318 2.318 0 0 0 2.311-2.311 2.318 2.318 0 0 0-2.311-2.312"/></g></g><g><g><path fill="#f0a479" d="M32.523 12.227c0-.828.441-1.558 1.1-1.966a2.292 2.292 0 0 0-1.211-.346 2.318 2.318 0 0 0-2.312 2.312 2.318 2.318 0 0 0 2.312 2.311c.443 0 .858-.126 1.211-.345a2.315 2.315 0 0 1-1.1-1.966"/></g></g><g><g><path fill="#ffc850" d="M34.257 14.538h-3.69a2.13 2.13 0 0 0-2.125 2.125v2.578c0 .289.234.523.523.523h6.894a.523.523 0 0 0 .522-.523v-2.578a2.13 2.13 0 0 0-2.124-2.125"/></g></g><g><g><path fill="#feb644" d="M30.865 19.241v-2.578a2.13 2.13 0 0 1 2.124-2.125h-2.422a2.13 2.13 0 0 0-2.125 2.125v2.578c0 .289.234.523.523.523h2.422a.523.523 0 0 1-.522-.523"/></g></g><g><g><path fill="none" stroke="#000" stroke-linecap="round" stroke-linejoin="round" stroke-miterlimit="20" d="M32.421 9.915a2.319 2.319 0 0 0-2.312 2.312 2.319 2.319 0 0 0 2.312 2.311 2.318 2.318 0 0 0 2.312-2.311 2.318 2.318 0 0 0-2.312-2.312z"/></g></g><g><g><path fill="none" stroke="#000" stroke-linecap="round" stroke-linejoin="round" stroke-miterlimit="20" d="M34.266 14.538h-3.69a2.13 2.13 0 0 0-2.125 2.125v2.578c0 .289.234.523.523.523h6.894a.523.523 0 0 0 .523-.523v-2.578a2.13 2.13 0 0 0-2.125-2.125z"/></g></g><g><g><path fill="none" stroke="#000" stroke-linecap="round" stroke-linejoin="round" stroke-miterlimit="20" d="M30.602 17.692v2.072"/></g></g><g><g><path fill="none" stroke="#000" stroke-linecap="round" stroke-linejoin="round" stroke-miterlimit="20" d="M34.24 17.692v2.072"/></g></g><g><g><path fill="none" stroke="#000" stroke-linecap="round" stroke-linejoin="round" stroke-miterlimit="20" d="M18.935 18.729a2.319 2.319 0 0 0-2.311 2.311 2.319 2.319 0 0 0 2.311 2.312 2.318 2.318 0 0 0 2.312-2.312 2.318 2.318 0 0 0-2.312-2.311z"/></g></g><g><g><path fill="none" stroke="#000" stroke-linecap="round" stroke-linejoin="round" stroke-miterlimit="20" d="M20.78 23.352h-3.69a2.13 2.13 0 0 0-2.125 2.124v2.579c0 .288.234.523.523.523h6.894a.523.523 0 0 0 .523-.523v-2.579a2.13 2.13 0 0 0-2.125-2.124z"/></g></g><g><g><path fill="none" stroke="#000" stroke-linecap="round" stroke-linejoin="round" stroke-miterlimit="20" d="M17.032 26.506v2.072"/></g></g><g><g><path fill="none" stroke="#000" stroke-linecap="round" stroke-linejoin="round" stroke-miterlimit="20" d="M20.84 26.506v2.072"/></g></g><g><g><path fill="none" stroke="#000" stroke-linecap="round" stroke-linejoin="round" stroke-miterlimit="20" d="M5.456 1a2.318 2.318 0 0 0-2.311 2.312 2.318 2.318 0 0 0 2.311 2.311 2.318 2.318 0 0 0 2.312-2.311A2.318 2.318 0 0 0 5.456 1z"/></g></g><g><g><path fill="none" stroke="#000" stroke-linecap="round" stroke-linejoin="round" stroke-miterlimit="20" d="M8.833 13.081H2.08a.523.523 0 0 0-.523.523V41h7.799v0-27.396a.523.523 0 0 0-.523-.523z"/></g></g><g><g><path fill="none" stroke="#000" stroke-linecap="round" stroke-linejoin="round" stroke-miterlimit="20" d="M7.302 5.623h-3.69a2.13 2.13 0 0 0-2.125 2.125v2.578c0 .289.234.523.522.523h6.894a.523.523 0 0 0 .523-.523V7.748a2.13 2.13 0 0 0-2.124-2.125z"/></g></g><g><g><path fill="none" stroke="#000" stroke-linecap="round" stroke-linejoin="round" stroke-miterlimit="20" d="M3.637 8.777v2.072"/></g></g><g><g><path fill="none" stroke="#000" stroke-linecap="round" stroke-linejoin="round" stroke-miterlimit="20" d="M7.275 8.777v2.072"/></g></g><g><g><path fill="none" stroke="#000" stroke-linecap="round" stroke-linejoin="round" stroke-miterlimit="20" d="M1 41h36"/></g></g><g><g><path fill="none" stroke="#000" stroke-linecap="round" stroke-linejoin="round" stroke-miterlimit="20" d="M17.588 30.81v0h-2.03a.523.523 0 0 0-.523.522V41h7.8v0-9.668a.523.523 0 0 0-.523-.522h-1.907v0"/></g></g><g><g><path fill="none" stroke="#000" stroke-linecap="round" stroke-linejoin="round" stroke-miterlimit="20" d="M36.32 30.09v0-7.571a.523.523 0 0 0-.522-.523h-6.754a.523.523 0 0 0-.523.523V41h7.8v0-8.093 0"/></g></g></g></g></svg>