<svg xmlns="http://www.w3.org/2000/svg" width="36" height="40" viewBox="0 0 36 40"><defs><clipPath id="3mxba"><path d="M0 40V0h36v40z"/></clipPath></defs><g><g><g><g/><g clip-path="url(#3mxba)"><path d="M35.511 29.825c.348.065.482.301.482.618-.003 2 .033 4-.033 5.998-.057 1.759-1.443 3.201-3.214 3.491-.053.009-.105.01-.127.068H21.417c-1.281-.099-2.178-.791-2.85-1.81-.398-.604-.533-1.296-.599-2.002-.055-.597-.052-.599-.682-.599H5.295c-.172 0-.344.003-.516-.004-1.184-.046-1.92-.683-2.117-1.83-.106-.622-.106-.622-.722-.677C.936 32.99.227 32.331.076 31.353A6.572 6.572 0 0 1 0 30.343c.002-6.56.001-13.119.001-19.678 0-.286-.007-.572.07-.853.097-.364.302-.603.712-.615.39.031.579.272.672.617.08.293.067.593.067.892v19.796c0 .195-.004.39.01.586.017.237.102.43.347.518.159.083.33.082.504.081 5.005-.008 10.01.017 15.015-.013.534-.003.556-.023.557-.554.002-1.523-.013-3.047.006-4.57.01-.911.184-1.788.752-2.546.284-.38.614-.715 1.004-.991.691-.431 1.432-.71 2.265-.702.98.002 1.959.003 2.938-.014.556-.01.579-.023.579-.576.002-4.594 0-9.19 0-13.784V2.314c0-.17.006-.339-.018-.507-.04-.3-.214-.467-.52-.496-.276-.027-.555-.005-.832-.025-.78.023-1.561.009-2.341.01H8.89c-.695 0-.695.002-.696.695v3.472c0 .235-.007.468-.052.7-.197 1.02-.97 1.683-2.027 1.69-1.732.012-3.465.015-5.197-.001-.332-.02-.64-.102-.763-.448-.126-.356.001-.658.266-.918C2.476 4.466 4.53 2.446 6.585.428c.179-.175.39-.309.61-.428h18.194c.658.262 1.197.638 1.388 1.362.079.295.06.595.054.892-.004.19.06.248.25.244.29-.006.588-.021.87.03.9.163 1.497.901 1.499 1.846.005 2.812.002 5.623.002 8.435 0 3.073.006 6.145-.009 9.217-.001.333.098.397.418.4.991.008 1.988-.1 2.972.066 1.682.284 3.022 1.748 3.133 3.421.037.558.029 1.12.026 1.679-.002.356-.165.597-.557.632-.346.078-.527-.003-.66-.307a1.624 1.624 0 0 1-.119-.65c-.002-.35 0-.702-.001-1.054-.006-1.455-1.175-2.555-2.66-2.502-3.255.006-6.51.036-9.764-.012-1.441-.021-2.82.968-2.83 2.721-.02 3.187-.024 6.374.002 9.56.014 1.675 1.148 2.725 2.86 2.727 3.254.003 6.508-.002 9.762.001 1.416.044 2.616-1.08 2.621-2.469.007-1.756.001-3.511.002-5.266 0-.248.002-.495.081-.734.136-.408.349-.52.782-.414"/></g><g clip-path="url(#3mxba)"><path fill="#47a820" d="M35.511 29.825c-.55.015-.72.198-.721.828-.006 1.561-.002 3.123-.003 4.684 0 .326.006.651-.007.976-.057 1.414-1.277 2.535-2.715 2.503 0-.183.155-.263.26-.373.642-.659.981-1.423.977-2.354-.015-3.255-.012-6.51-.002-9.764.003-.941-.33-1.724-1.006-2.379-.1-.096-.238-.175-.23-.344 1.43-.041 2.657 1.073 2.714 2.474.02.478-.004.958.015 1.437.02.498.175.655.643.71-.078.485-.02.971-.03 1.457 0 .047.069.097.105.145"/></g><g clip-path="url(#3mxba)"><path fill="#e9f5fe" d="M.759 9.285V7.746c1.733-.004 3.467-.007 5.2-.012 1.332-.003 2.082-.743 2.084-2.062.002-1.405.004-2.81-.004-4.216-.002-.21.038-.29.276-.29 5.24.008 10.482.006 15.724.007.026 0 .052.008.078.012.194.128.259.32.277.537.015.168.012.338.012.507v19.335c0 .818 0 .812-.844.82-.556.004-1.111-.034-1.666.023-.747.03-1.425.278-2.067.64-.173.065-.35.118-.528.167-1.483.414-2.428 1.615-2.444 3.14-.016 1.51-.004 3.02-.004 4.531v.235c-.007.633-.01.637-.632.637l-13.943-.001c-.144 0-.291.021-.434-.024-.31-.052-.437-.265-.474-.544-.019-.141-.014-.286-.014-.429V10.176c0-.634-.078-.747-.597-.89"/></g><g clip-path="url(#3mxba)"><path fill="#4fc023" d="M32.064 23.602c.894.69 1.36 1.576 1.355 2.714-.014 3.288-.01 6.576-.002 9.863.002 1.11-.49 1.962-1.352 2.637-3.4.002-6.801.007-10.201.005-.32 0-.629-.086-.92-.218-1.083-.491-1.64-1.346-1.647-2.5a831.86 831.86 0 0 1-.002-9.796c.008-1.586 1.195-2.716 2.806-2.717 3.321-.001 6.642.007 9.963.012"/></g><g clip-path="url(#3mxba)"><path fill="#c7eefd" d="M21.897 22.407c.411-.141.835-.036 1.253-.06.277-.017.557-.013.834 0 .227.01.314-.082.295-.298-.01-.104-.002-.209-.002-.313 0-6.522 0-13.044.002-19.566 0-.34.004-.674-.162-.985.277-.004.555-.019.832-.01.437.014.672.254.693.687.004.091 0 .182 0 .274 0 6.619-.001 13.239.008 19.858 0 .327-.055.442-.422.432-1.11-.031-2.22-.016-3.331-.02"/></g><g clip-path="url(#3mxba)"><path fill="#c7eefd" d="M27.215 3.681c.844-.05 1.045.132 1.045.952 0 5.794-.003 11.588.008 17.382 0 .316-.06.45-.404.406-.326-.042-.758.135-.958-.059-.22-.212-.07-.64-.07-.974-.005-5.768-.005-11.536 0-17.304 0-.13-.08-.282.061-.395.189.21.127.47.127.71.004 5.7.003 11.4.006 17.1 0 .2-.048.413.098.635.165-.174.116-.373.116-.55.004-2.382.003-4.763.003-7.145 0-3.214-.007-6.428.008-9.642.002-.375-.146-.74-.04-1.116"/></g><g clip-path="url(#3mxba)"><path fill="#e9f5fe" d="M4.48 34.226c-.415-.145-.709-.829-.502-1.188.083-.146.24-.076.362-.076 1.814-.004 3.627-.005 5.44-.003 2.317.004 4.633.01 6.949.016.216.35.132.726.086 1.096-.014.111-.092.182-.219.183l-.237.003-11.527-.001c-.117 0-.238.022-.351-.03"/></g><g clip-path="url(#3mxba)"><path fill="#c7eefd" d="M1.844 31.732c.754-.005 1.507-.014 2.26-.014 4.046-.001 8.092-.008 12.138.01.417.001.501-.12.496-.503-.02-1.612-.01-3.225-.009-4.837 0-1.549.935-2.795 2.436-3.27.221-.07.44-.072.664-.071-1.285.941-1.784 2.214-1.737 3.767.046 1.534.003 3.07.016 4.605.002.276-.046.377-.361.376-5.174-.01-10.348-.006-15.521-.007-.128 0-.266.039-.382-.056"/></g><g clip-path="url(#3mxba)"><path fill="#e7f3fc" d="M27.215 3.681c.143.357.164.727.164 1.107-.006 5.711-.003 11.422-.008 17.133 0 .168.107.424-.237.422-.137-.001-.234-.036-.231-.195.001-.117-.002-.234-.002-.35l-.004-18.11.318-.007"/></g><g clip-path="url(#3mxba)"><path fill="#98e4fa" d="M5.44 3.41l1.404-1.297c0 1.264.012 2.543-.008 3.821-.006.384-.281.608-.676.624-.29.012-.58-.004-.87-.008.054-.91.022-1.822.037-2.733.003-.146.06-.276.113-.407"/></g><g clip-path="url(#3mxba)"><path fill="#c7eefd" d="M5.44 3.41c.002.877.002 1.754.01 2.632.003.192-.07.35-.16.508H2.352C3.367 5.517 4.403 4.463 5.44 3.41"/></g><g clip-path="url(#3mxba)"><path fill="#c7edfc" d="M4.48 34.226l10.9-.01c.343 0 .687-.01 1.03.004.237.01.336-.067.323-.31-.016-.311-.004-.623-.004-.935.383-.005.766-.005 1.148-.019.169-.006.236.043.228.218a8.654 8.654 0 0 0 0 .857c.013.216-.083.26-.28.255-.435-.01-.871 0-1.307 0-3.86 0-7.718 0-11.577-.003-.154 0-.318.045-.46-.057"/></g><g clip-path="url(#3mxba)"><path d="M16.591 15.39c-1.456 0-2.913.003-4.37 0-1.114-.002-1.772-.65-1.773-1.75-.001-2.877-.002-5.755 0-8.632.001-1.073.666-1.726 1.755-1.726 2.94-.002 5.88-.002 8.82 0 1.057 0 1.738.666 1.739 1.708.003 2.89.003 5.78 0 8.671 0 1.065-.677 1.727-1.761 1.729-1.47.003-2.94 0-4.41 0"/></g><g clip-path="url(#3mxba)"><path d="M13.465 19.936H5.169c-.132 0-.27.011-.395-.018a.534.534 0 0 1-.442-.488c-.031-.276.084-.48.34-.6.175-.082.362-.066.547-.066h16.473c.066 0 .132-.002.198 0 .423.02.696.257.692.6-.003.348-.268.57-.702.57-2.805.003-5.61.002-8.415.002"/></g><g clip-path="url(#3mxba)"><path d="M9.645 28.83c-1.52 0-3.04.002-4.56 0-.498 0-.764-.21-.758-.592.006-.366.268-.578.736-.578 3.054-.002 6.107-.002 9.161 0 .585 0 .917.444.664.875-.142.242-.372.3-.643.299-1.533-.006-3.066-.003-4.6-.003"/></g><g clip-path="url(#3mxba)"><path d="M9.64 22.9H5.19c-.12 0-.24.008-.357-.008-.28-.039-.456-.205-.497-.479-.044-.29.077-.504.356-.627.138-.062.283-.057.428-.058h9.058l.119.001c.415.022.689.273.672.616-.016.333-.275.553-.682.554-1.55.003-3.098.001-4.648.001"/></g><g clip-path="url(#3mxba)"><path d="M7.314 25.865c-.768 0-1.535.004-2.303 0-.435-.003-.687-.224-.684-.585.003-.355.258-.583.693-.585 1.508-.004 3.017-.005 4.525 0 .434.002.686.234.683.593-.002.363-.248.574-.69.576-.742.004-1.483.001-2.224.001"/></g><g clip-path="url(#3mxba)"><path d="M4.904 15.389a.581.581 0 0 1-.51-.315c-.114-.214-.116-.447.053-.618.681-.688 1.368-1.37 2.074-2.033.228-.215.52-.18.751.034.247.23.285.538.063.77-.668.697-1.37 1.366-2.065 2.04a.479.479 0 0 1-.366.122"/></g><g clip-path="url(#3mxba)"><path fill="#010101" d="M13.395 25.865c-.316 0-.633.008-.949-.002-.366-.011-.616-.249-.622-.57-.005-.317.245-.584.607-.593a38.732 38.732 0 0 1 1.937 0c.361.01.61.28.602.596-.007.32-.26.556-.626.567-.316.01-.632.002-.949.002"/></g><g clip-path="url(#3mxba)"><path d="M21.406 32.079c-.025-.417.156-.741.433-1.021.314-.317.628-.634.955-.938.636-.593 1.42-.584 2.05.017.293.28.593.557.866.858.19.21.308.187.5-.004a377.596 377.596 0 0 1 3.252-3.205c.573-.558 1.172-.676 1.757-.372.24.124.414.32.601.503.245.238.495.472.727.721.503.542.53 1.315.007 1.837a428.104 428.104 0 0 1-5.335 5.242c-.736.708-1.923.696-2.667-.004-.946-.89-1.86-1.813-2.784-2.727a1.15 1.15 0 0 1-.362-.907"/></g><g clip-path="url(#3mxba)"><path fill="#c7eefd" d="M20.143 14.205c-.189.002-.117-.14-.118-.225-.009-.43.004-.86-.01-1.29-.036-1.032-.525-1.81-1.423-2.328-.201-.116-.226-.181-.14-.402a3.007 3.007 0 0 0 .05-2.066c-.293-.903-1.243-1.455-2.18-1.318-.966.142-1.706.943-1.732 1.9-.016.544-.07 1.098.22 1.602.077.133-.004.178-.105.234-1.117.606-1.57 1.565-1.523 2.787.002.052 0 .104 0 .156 0 1.026 0 1.023-1.051.965-.32-.018-.49-.165-.49-.485l-.002-8.789c0-.317.156-.492.48-.491 2.675.002 5.35.007 8.024.012.193.16.205.385.206.606.007 2.842.007 5.684 0 8.526 0 .221-.013.445-.206.606"/></g><g clip-path="url(#3mxba)"><path fill="#98e5fb" d="M20.143 14.205c.1-.329.08-.667.08-1.004V5.47c0-.337.02-.675-.08-1.004.29-.005.58-.015.87-.013.403.004.553.145.557.536.006.624.001 1.247.001 1.87v6.702c0 .54-.12.656-.676.656-.251 0-.502-.008-.752-.013"/></g><g clip-path="url(#3mxba)"><path fill="#0592fb" d="M17.444 14.206c-.939.004-1.877.005-2.816.015-.18.002-.266-.039-.259-.236.018-.468-.015-.939.034-1.402.087-.826.737-1.39 1.575-1.409.277-.006.554.007.832.01.456.215.618.632.699 1.069.107.576.05 1.163.033 1.746a.302.302 0 0 1-.098.207"/></g><g clip-path="url(#3mxba)"><path fill="#0180f9" d="M17.444 14.206c0-.572.014-1.144-.005-1.714-.016-.518-.297-.928-.63-1.307 1.03-.054 1.667.3 1.935 1.07.11.315.086.642.078.966-.007.32.146.737-.064.936-.21.198-.63.043-.958.06-.118.006-.238-.007-.356-.011"/></g><g clip-path="url(#3mxba)"><path fill="#fddece" d="M15.778 8.867c-.002-.745.28-1.132.826-1.132.547 0 .835.388.834 1.13 0 .13.008.26-.008.389a.83.83 0 0 1-.863.743.83.83 0 0 1-.788-.78c-.009-.116 0-.233 0-.35"/></g><g clip-path="url(#3mxba)"><path fill="#d0f09d" d="M25.378 34.85c-.892-.864-1.784-1.73-2.678-2.593-.147-.142-.123-.266.015-.398.283-.273.57-.542.838-.829.187-.2.33-.198.52-.002.438.45.892.887 1.343 1.325.42.408.681.405 1.106-.011 1.085-1.064 2.167-2.13 3.252-3.195.093-.09.196-.171.294-.256.377.266.485.623.303 1.01-.09.192-.219.358-.372.503-1.432 1.353-2.75 2.817-4.173 4.179-.124.119-.217.31-.448.268"/></g><g clip-path="url(#3mxba)"><path fill="#baeb6b" d="M25.378 34.85c.763-.68 1.475-1.407 2.18-2.144.77-.804 1.574-1.575 2.363-2.36.55-.547.576-.82.147-1.455.481-.57.481-.57.999-.062.744.732.744.732-.01 1.474-1.497 1.473-2.994 2.947-4.494 4.417-.419.411-.74.44-1.185.13"/></g></g></g></g></svg>