<svg xmlns="http://www.w3.org/2000/svg" width="40" height="40" viewBox="0 0 40 40"><defs><clipPath id="te34a"><path d="M0 40V0h40v40z"/></clipPath></defs><g><g><g><g/><g clip-path="url(#te34a)"><path d="M39.575 30.338c-.225.44-.187.94-.32 1.403-1.14 3.983-3.678 6.579-7.668 7.64-4.502 1.199-9.34-.925-11.617-5.02-.15-.27-.313-.367-.624-.366-6.108.01-12.215.007-18.323.007-.831 0-.953-.123-.953-.965v-9.41c0-.552.111-.695.616-.815.344-.015.537.13.623.474.05.203.037.41.037.617l.001 8.093c0 .142-.002.283.009.425.012.168.094.26.266.269.115.006.231.007.347.007h16.545c.528-.004.54-.018.395-.519-.796-2.746-.502-5.386.767-7.93.098-.197.206-.388.343-.56.277-.345.466-.4.91-.267.388.328.45.552.21 1.007-.559 1.055-1.003 2.148-1.169 3.34-.423 3.038.435 5.664 2.544 7.868 1.567 1.636 3.502 2.517 5.752 2.75 1.028.106 2.021-.025 3.017-.227 1.554-.359 2.89-1.127 4.056-2.202 1.583-1.46 2.549-3.265 2.855-5.397.43-2.986-.408-5.585-2.472-7.783-1.224-1.304-2.698-2.172-4.437-2.583-3.184-.728-5.996.004-8.434 2.179-.552.493-.766.553-1.247.272-.294-.417-.276-.753.113-1.13a10.34 10.34 0 0 1 2.194-1.632c.654-.362 1.329-.683 2.053-.88.287-.078.39-.244.387-.53-.007-.892-.007-1.783-.001-2.673.004-.771.275-1.052 1.048-1.06 1.003-.013 2.006-.015 3.009 0 .81.012 1.09.304 1.097 1.108.006.852.005 1.705 0 2.557-.003.267.081.437.358.51 1.4.37 2.661 1.02 3.796 1.92.03.024.066.04.111.046.119-.081.067-.209.067-.315.005-.774.002-1.55.003-2.324 0-.168-.002-.336.037-.5.112-.474.366-.626.843-.507.34.139.411.416.41.752-.007 1.368 0 2.737-.007 4.105a.843.843 0 0 0 .183.565 10.289 10.289 0 0 1 2.198 5.394c.005.053.011.101.072.118v1.55c-.049.051-.049.103 0 .154z"/></g><g clip-path="url(#te34a)"><path fill="#6a6a6a" d="M39.575 29.873c-.106-.051-.09-.103 0-.154"/></g><g clip-path="url(#te34a)"><path fill="#eee6e3" d="M20.96 23.528c-.5-.17-.69-.105-.948.357-1.522 2.73-1.832 5.588-.894 8.578.033.108.109.21.075.338-.131.066-.274.032-.412.032-5.707.002-11.415-.002-17.123.01-.349 0-.439-.084-.437-.438.016-2.93.005-5.86.013-8.789.002-.414-.119-.705-.548-.804V21.67c.235-.213.475-.424.497-.775.03-2.221.005-4.441.012-6.66.003-.909 0-.91.893-.91l33.128.001c.23 0 .463-.028.685.065.167.108.153.285.158.45.01.321.024.645 0 .965-.044.558.059 1.02.662 1.216-.224.266-.225.942-.002 1.214-.56-.003-.753.186-.755.766-.004 1.045 0 2.09 0 3.13-.129.047-.175-.055-.237-.106a10.249 10.249 0 0 0-4.018-2.04c-.265-.066-.345-.166-.34-.438.018-.941.009-1.884.006-2.826-.001-.66-.187-.844-.855-.846-1.08-.002-2.16-.003-3.239 0-.636.003-.82.194-.822.836-.001.955-.013 1.91.008 2.865.006.292-.064.424-.36.507-1.652.463-3.077 1.33-4.314 2.517-.385.37-.408.565-.123 1.006-.138.384-.399.673-.71.922"/></g><g clip-path="url(#te34a)"><path d="M36.721 16.021c-.545.01-.747-.178-.757-.72-.011-.616-.014-1.233-.02-1.85-.176-.227-.121-.495-.117-.747.004-.307-.108-.462-.426-.444-.128.008-.257 0-.386 0H2.125c-.834 0-.727-.021-.78.744-.175 2.538-.03 5.078-.081 7.616-.003.14.022.284-.024.422-.028.35-.232.54-.554.627-.505-.136-.615-.269-.615-.778C.069 15.727.069 10.563.07 5.4c0-.56.208-.768.77-.77 1.03-.005 2.058-.018 3.086.008.337.008.401-.1.389-.41a23.581 23.581 0 0 1 0-1.78c.042-1.19.909-2.095 2.108-2.226C7.496.105 8.58.87 8.837 1.965c.17.722.096 1.467.074 2.2-.012.397.102.473.48.473 6.173-.013 12.344-.012 18.516-.002.323 0 .436-.053.425-.41-.02-.656-.06-1.317.026-1.972.162-1.217 1.194-2.105 2.36-2.041a2.31 2.31 0 0 1 2.213 2.25c.025.619.021 1.24.001 1.859-.008.262.077.315.321.312 1.029-.013 2.057-.007 3.086-.005.616.001.819.197.82.805.003 1.962.027 3.925-.008 5.886-.024 1.317-.012 2.632-.022 3.948-.002.335-.063.616-.408.753"/></g><g clip-path="url(#te34a)"><path fill="#fecf39" d="M20.96 23.528c.206-.33.45-.633.71-.922.376.251.672.097.954-.178 1.009-.983 2.178-1.71 3.515-2.14 1.704-.547 3.433-.675 5.178-.178 3.314 1.492 5.156 4.117 5.717 7.657.378 2.378-.116 4.623-1.371 6.68a9.675 9.675 0 0 1-3.74 3.544c-.192.103-.406.155-.605.242a7.806 7.806 0 0 1-3.47.213c-3.4-.531-5.876-2.361-7.283-5.512-1.261-2.825-1.075-5.639.4-8.358.198-.364.338-.7-.006-1.048"/></g><g clip-path="url(#te34a)"><path fill="#fead47" d="M31.318 38.233c.518-.33 1.066-.606 1.57-.963 1.495-1.06 2.574-2.44 3.325-4.108.693-1.543.93-3.16.802-4.821a9.65 9.65 0 0 0-1.76-4.87 9.98 9.98 0 0 0-3.787-3.247c-.055-.028-.101-.075-.151-.114 1.4.29 2.624.946 3.71 1.857 5.08 4.263 4.309 12.224-1.493 15.426-.696.384-1.422.706-2.216.84"/></g><g clip-path="url(#te34a)"><path fill="#465a64" d="M28.897 18.64c-.334 0-.669-.007-1.002.003-.187.005-.283-.041-.28-.256a78.13 78.13 0 0 0 .001-2.051c-.002-.2.068-.274.268-.271.694.007 1.388.005 2.082 0 .172 0 .262.052.26.242-.005.697-.005 1.393.001 2.09.002.185-.07.25-.251.245-.36-.009-.72-.002-1.08-.002"/></g><g clip-path="url(#te34a)"><path fill="#d7d0cf" d="M1.24 21.042l-.012-7.548c0-.335.026-.673-.005-1.006-.031-.324.103-.369.386-.368 11.324.006 22.648.007 33.972-.003.334 0 .418.096.387.408-.03.306-.018.617-.024.926H1.82c-.517 0-.517.001-.517.524 0 2.207 0 4.413-.003 6.62 0 .15.05.311-.06.447"/></g><g clip-path="url(#te34a)"><path d="M8.287 19.804c-.578 0-1.157.006-1.735-.002-.448-.006-.675-.214-.68-.66-.012-1.2-.012-2.4 0-3.6.004-.43.216-.654.644-.66 1.208-.015 2.416-.015 3.624 0 .426.006.638.233.642.661.01 1.2.011 2.4 0 3.6-.005.446-.233.653-.682.66-.604.007-1.209.001-1.813.001"/></g><g clip-path="url(#te34a)"><path d="M15.193 19.804c-.578 0-1.157.004-1.735-.001-.496-.004-.721-.211-.724-.696a261.65 261.65 0 0 1 0-3.523c.002-.473.211-.699.68-.704 1.181-.013 2.364-.013 3.546 0 .47.004.682.226.686.698a226.9 226.9 0 0 1 0 3.522c-.003.492-.224.698-.718.703-.578.005-1.156.001-1.735.001"/></g><g clip-path="url(#te34a)"><path d="M22.022 19.804c-.578 0-1.157.006-1.735-.002-.466-.006-.687-.22-.69-.69a301.754 301.754 0 0 1 0-3.524c.002-.474.208-.702.674-.708 1.183-.013 2.365-.013 3.548 0 .471.004.687.223.692.693.01 1.174.01 2.349 0 3.523-.004.493-.225.702-.715.707-.591.005-1.183.001-1.774.001"/></g><g clip-path="url(#te34a)"><path d="M15.187 27.872c-.578 0-1.157.005-1.735-.001-.498-.005-.715-.208-.719-.698a258.043 258.043 0 0 1 0-3.523c.004-.474.217-.688.687-.691 1.182-.008 2.364-.009 3.547 0 .466.003.678.22.681.697.009 1.174.01 2.349 0 3.523-.004.487-.225.687-.726.692-.578.005-1.156.001-1.735.001"/></g><g clip-path="url(#te34a)"><path d="M8.342 27.872c-.591 0-1.183.005-1.774-.001-.475-.006-.693-.208-.697-.68-.01-1.187-.01-2.375 0-3.562.004-.453.22-.667.668-.67 1.195-.009 2.39-.009 3.585 0 .444.004.655.222.659.68.01 1.186.01 2.374 0 3.56-.005.467-.228.667-.706.672-.578.006-1.157.001-1.735.001"/></g><g clip-path="url(#te34a)"><path fill="#e83234" d="M4.302 7.1c.111 1.306.848 2.109 2.096 2.281 1.149.16 2.326-.767 2.479-1.935.06-.463.05-.927.045-1.39-.002-.202.069-.286.269-.264.063.008.128.001.192.001 6.157 0 12.314.005 18.47-.01.41-.002.5.12.475.495a5.03 5.03 0 0 0 .032 1.12c.184 1.177 1.188 2.05 2.322 2.007a2.33 2.33 0 0 0 2.25-2.22c.018-.36.017-.723.003-1.083-.01-.227.045-.32.295-.315.822.016 1.645.011 2.467.003.2-.002.27.062.268.265-.012 1.174-.013 2.348-.018 3.522-.148.134-.332.124-.511.126-.399.004-.797.001-1.196.001H2.153c-.886 0-.886 0-.886-.899 0-.878.009-1.755-.005-2.633-.004-.257.047-.364.333-.357.784.02 1.568.015 2.352.002.243-.004.346.049.334.319-.014.32-.041.644.021.963"/></g><g clip-path="url(#te34a)"><path fill="#b22425" d="M4.302 7.1c-.13-.31-.048-.635-.057-.953-.006-.217-.077-.293-.294-.29-.784.008-1.568.008-2.352 0-.211-.003-.298.06-.296.285.008 1.045.01 2.09-.001 3.136-.002.245.092.327.318.3.038-.004.077 0 .116 0l34.21-.001c.005.374.002.748.016 1.122.007.205-.075.282-.272.263-.076-.008-.154-.001-.231-.001H1.762c-.522 0-.521 0-.522-.522-.003-1.432.002-2.864-.016-4.296-.003-.294.085-.374.371-.367.796.018 1.594.013 2.39.002.238-.004.357.046.338.316-.025.334-.015.67-.02 1.005"/></g><g clip-path="url(#te34a)"><path fill="#fecf39" d="M6.396 8.186c-.534-.104-.913-.49-.918-1.023-.015-1.569-.015-3.138 0-4.707.004-.536.372-.916.913-1.03.179.053.262.2.332.353.103.225.167.463.17.71.013 1.557.016 3.115-.002 4.673a1.73 1.73 0 0 1-.161.672c-.069.157-.162.293-.334.352"/></g><g clip-path="url(#te34a)"><path fill="#fecf39" d="M30.463 8.19c-.574-.078-.963-.477-.972-1.1-.02-1.52-.019-3.04 0-4.56.007-.597.341-.966.892-1.097.208 0 .274.168.352.31.132.245.163.513.163.787 0 1.52.003 3.04-.002 4.559-.002.42-.064.823-.433 1.1"/></g><g clip-path="url(#te34a)"><path fill="#f2af08" d="M6.396 8.186c.287-.385.394-.818.39-1.297-.01-1.376-.011-2.752.001-4.127.004-.493-.103-.938-.396-1.335.601-.132 1.177.22 1.317.81.03.124.05.254.05.382.003 1.456.014 2.911-.002 4.367-.01.853-.61 1.363-1.36 1.2"/></g><g clip-path="url(#te34a)"><path fill="#f3af08" d="M30.463 8.19c.303-.503.331-1.054.324-1.626a209.253 209.253 0 0 1-.003-4.047c.002-.419-.107-.782-.401-1.084.696-.172 1.37.296 1.383 1.033.029 1.556.027 3.112.001 4.668-.011.705-.622 1.164-1.304 1.056"/></g><g clip-path="url(#te34a)"><path d="M27.733 33.524c-.513.014-.943-.195-1.303-.554-.875-.873-1.755-1.741-2.615-2.629-.741-.764-.747-1.858-.041-2.563.71-.71 1.782-.689 2.553.058.407.395.811.792 1.196 1.207.167.18.255.158.416-.006a532.91 532.91 0 0 1 3.869-3.888c.844-.839 2.004-.81 2.706.05.507.622.536 1.502.064 2.15-.098.136-.211.26-.33.379-1.706 1.716-3.415 3.43-5.121 5.147-.386.388-.821.657-1.394.65"/></g><g clip-path="url(#te34a)"><path fill="#465a64" d="M8.335 16.067c.334 0 .668.009 1.002-.003.21-.007.3.06.296.285-.01.67-.01 1.342 0 2.012.005.226-.082.286-.293.283-.668-.01-1.337-.011-2.005 0-.223.004-.322-.05-.317-.299a47.79 47.79 0 0 0 0-1.973c-.004-.24.083-.318.315-.308.333.014.668.003 1.002.003"/></g><g clip-path="url(#te34a)"><path fill="#465a64" d="M15.202 18.64c-.347 0-.694-.007-1.04.003-.19.005-.28-.048-.277-.26.01-.683.008-1.367 0-2.05-.002-.204.078-.27.273-.268.681.007 1.362.008 2.043 0 .21-.004.3.058.297.284a60.95 60.95 0 0 0 0 2.012c.004.227-.082.29-.294.282-.333-.013-.668-.003-1.002-.003"/></g><g clip-path="url(#te34a)"><path fill="#465a64" d="M22.044 16.067c.334 0 .668.01 1.002-.003.227-.01.323.06.319.303-.013.658-.01 1.317-.001 1.975.002.203-.041.306-.275.302a65.299 65.299 0 0 0-2.082 0c-.212.003-.259-.089-.257-.279.007-.67.01-1.342 0-2.013-.004-.22.076-.296.291-.288.334.013.669.003 1.003.003"/></g><g clip-path="url(#te34a)"><path fill="#465a64" d="M15.204 26.703c-.347 0-.694-.007-1.04.002-.189.005-.282-.045-.28-.258a78.76 78.76 0 0 0 0-2.05c-.002-.204.075-.27.272-.267.694.007 1.387.008 2.081 0 .21-.003.262.087.26.278-.007.671-.01 1.342.001 2.012.004.223-.077.295-.292.286-.333-.013-.668-.003-1.002-.003"/></g><g clip-path="url(#te34a)"><path fill="#465a64" d="M8.325 26.703c-.346 0-.693-.009-1.04.003-.204.006-.267-.076-.265-.273.008-.684.007-1.367.001-2.05-.001-.18.063-.254.247-.253.706.007 1.413.007 2.12 0 .185-.001.245.076.244.254-.006.684-.008 1.367 0 2.051.003.2-.064.277-.266.27-.347-.01-.694-.002-1.04-.002"/></g><g clip-path="url(#te34a)"><path fill="#00b66c" d="M27.73 32.355c-.217.016-.373-.103-.51-.24a338.274 338.274 0 0 1-2.536-2.546c-.318-.324-.341-.711-.09-.96.263-.259.626-.231.954.092.55.543 1.09 1.096 1.638 1.641.41.409.674.411 1.08.004 1.393-1.394 2.782-2.791 4.173-4.187.064-.064.125-.13.191-.191.347-.322.686-.344.952-.064.246.259.221.61-.092.924-1.75 1.764-3.506 3.524-5.26 5.284-.14.14-.289.262-.5.243"/></g></g></g></g></svg>