<svg xmlns="http://www.w3.org/2000/svg" width="40" height="40" viewBox="0 0 40 40"><defs><clipPath id="a1psa"><path d="M0 40V0h40v40z"/></clipPath></defs><g><g><g><g/><g clip-path="url(#a1psa)"><path d="M0 28.434c.133-.426.258-.854.538-1.21.51-.651 1.163-.989 1.964-1.002.338-.006.677-.011 1.015.006.192.01.261-.062.233-.254a.145.145 0 0 1 0-.041c.095-.692-.104-1.16-.684-1.62-1.213-.966-1.785-2.344-1.814-3.95-.011-.588-.005-1.175 0-1.763.001-.147-.01-.228-.183-.278-.284-.082-.435-.303-.447-.636-.125-3.324 2.35-5.975 5.511-5.895 2.682.069 4.995 2.413 5.097 5.242.048 1.348.115 2.706-.051 4.05-.187 1.519-.94 2.698-2.13 3.563-.231.169-.314.33-.308.621.02.961.007.961.933.956 1.385-.008 2.326.628 2.7 1.817.116.37.128.748.125 1.132-.005.738 0 1.475-.002 2.213-.002.516-.216.74-.715.741-3.682.002-7.364-.003-11.046.008-.343.001-.56-.148-.736-.42z"/></g><g clip-path="url(#a1psa)"><path d="M19.988 40l-6.715-.001c-.902-.001-1.413-.526-1.397-1.466.018-1.05-.095-2.106.066-3.15.284-1.837 1.818-3.218 3.59-3.257.326-.007.654-.026.976.009.327.035.347-.114.376-.406.07-.743-.134-1.223-.752-1.709-1.603-1.26-2.366-3.032-2.383-5.14-.01-1.298-.004-2.596-.001-3.894.007-3.277 2.507-5.908 5.625-5.917 1.21-.004 2.42-.002 3.63 0 .54 0 .74.217.742.795 0 .533.01 1.066-.005 1.598-.006.208.043.302.243.37 1.46.5 2.26 1.676 2.261 3.291 0 1.257.017 2.515-.003 3.771-.038 2.353-.995 4.196-2.855 5.513-.19.135-.294.261-.272.517.026.312.021.63.001.942-.014.228.073.265.265.266.661.003 1.323-.053 1.977.14 1.605.47 2.742 1.99 2.76 3.735.01.875.005 1.75.001 2.624-.003.801-.532 1.365-1.298 1.366-2.277.005-4.555.002-6.832.002"/></g><g clip-path="url(#a1psa)"><path d="M38.478 22.02c-.44 1.195-1.114 2.09-2.079 2.732-.11.073-.152.151-.161.291-.075 1.188-.079 1.187 1.03 1.179 1.676-.013 2.723 1.084 2.724 2.852 0 .78.003 1.558-.001 2.337-.003.473-.22.713-.662.714-3.723.003-7.446.003-11.168 0-.446 0-.663-.238-.666-.71-.004-.874-.009-1.748.001-2.623.016-1.394 1.117-2.547 2.443-2.57.352-.006.704-.014 1.055.007.215.012.28-.073.25-.278a.144.144 0 0 1 0-.041c.1-.681-.102-1.135-.671-1.587-1.216-.963-1.806-2.338-1.824-3.946-.02-1.762-.008-3.525-.004-5.288.003-1.277.794-2.302 1.988-2.582.205-.049.384-.131.56-.26 1.817-1.322 3.741-1.524 5.696-.42 1.959 1.105 2.965 2.89 2.997 5.232.028 2.131.006 4.264.005 6.395 0 .53-.21.797-.622.798-.41.001-.607-.255-.634-.793a7.16 7.16 0 0 0-.089-.812c-.03-.186-.097-.366-.168-.626"/></g><g clip-path="url(#a1psa)"><path d="M28.744 4.824c-1.004.352-1.971.702-2.946 1.026-.226.075-.177.23-.177.381-.002 1.162 0 2.323-.001 3.485-.002 1.233-.815 2.073-1.993 2.072-2.42-.002-4.842-.002-7.263 0-1.178.001-1.99-.84-1.992-2.072-.001-1.162-.008-2.323.006-3.485.003-.245-.07-.352-.289-.427-1.17-.398-2.334-.82-3.505-1.216-.33-.112-.574-.278-.58-.666-.006-.387.232-.565.562-.68 3.03-1.054 6.057-2.115 9.082-3.185.298-.106.556-.05.83.047 2.892 1.014 5.784 2.026 8.676 3.037.135.047.277.073.408.129.257.11.433.29.433.61-.003 1.312.003 2.624-.005 3.935-.003.415-.273.692-.627.688-.354-.003-.612-.28-.616-.699-.008-.98-.003-1.96-.003-2.98"/></g><g clip-path="url(#a1psa)"><path fill="#e9c5ba" d="M6.795 24.173c-1.226.342-2.863-.408-3.669-1.688a3.977 3.977 0 0 1-.622-2.079c-.01-.533.004-1.066-.008-1.598-.005-.214.024-.318.268-.3 1.696.115 3.304-.26 4.86-.954.35-.156.718-.332 1.123-.183.065.073.103.161.102.258-.02 1.222.12 2.452-.096 3.664-.174.979-.658 1.794-1.335 2.483-.177.181-.385.316-.623.397"/></g><g clip-path="url(#a1psa)"><path fill="#fecd54" d="M3.29 17.208c-.402-.011-.804-.005-1.204-.074-.17-.03-.215-.084-.19-.258.233-1.606 1.033-2.79 2.456-3.426 1.423-.636 2.788-.426 4.048.528.169.128.226.243.1.428-.008.011-.012.024-.018.037-.29.559-.392 1.325-.86 1.658-.625.444-1.416.652-2.172.85a7.647 7.647 0 0 1-2.16.257"/></g><g clip-path="url(#a1psa)"><path fill="#656d78" d="M5.298 30.815c-1.307 0-2.553-.003-3.797.002-.178.001-.257-.049-.254-.251.01-.6-.012-1.2.01-1.799.023-.671.544-1.205 1.184-1.229.427-.016.856 0 1.284-.005.14-.002.246.02.31.176.408 1.014.822 2.024 1.263 3.106"/></g><g clip-path="url(#a1psa)"><path fill="#d2b0a8" d="M6.795 24.173c.905-.712 1.559-1.607 1.83-2.779.118-.504.13-1.017.125-1.533-.008-.83-.002-1.66-.003-2.49A1.835 1.835 0 0 1 9.996 19.1c-.01.773.062 1.55-.15 2.312-.408 1.475-1.749 2.696-3.05 2.761"/></g><g clip-path="url(#a1psa)"><path fill="#656d78" d="M9.996 30.801H7.25c0-.243.135-.433.214-.635.288-.728.607-1.443.88-2.177.124-.335.27-.53.642-.46.176.035.362.015.543.02.4.185.498.585.547.968.085.671.038 1.352.024 2.029a.375.375 0 0 1-.105.255"/></g><g clip-path="url(#a1psa)"><path fill="#545c66" d="M9.996 30.801c0-.583-.015-1.168.006-1.75a2.221 2.221 0 0 0-.472-1.503c.22-.001.445-.03.66.001.582.084 1.035.616 1.053 1.239.016.573-.003 1.146.008 1.72.005.221-.05.324-.281.31-.324-.02-.65-.012-.974-.017"/></g><g clip-path="url(#a1psa)"><path fill="#f4f6f9" d="M4.999 25.4c.833.207 1.64.222 2.499-.007 0 .382.006.741-.002 1.1-.005.205-.101.268-.279.155-.044-.028-.098-.04-.139-.072-.556-.443-1.095-.404-1.67-.005-.359.25-.405.198-.409-.25-.002-.298 0-.597 0-.921"/></g><g clip-path="url(#a1psa)"><path fill="#e4e7eb" d="M6.25 29.805c-.246-.6-.449-1.11-.664-1.615-.062-.144-.05-.239.097-.28.236-.068.402-.357.702-.23.622.266.623.261.36.905-.153.373-.304.748-.495 1.22"/></g><g clip-path="url(#a1psa)"><path fill="#eab23f" d="M9.498 15.332c.193.36.336.731.4 1.17-.092-.054-.156-.09-.22-.13-.622-.385-.622-.385-.18-1.04"/></g><g clip-path="url(#a1psa)"><path fill="#e9c5ba" d="M20.855 30.064c-2.601.577-5.36-1.448-5.783-4.234-.118-.776-.052-1.554-.077-2.331-.005-.139.031-.238.152-.298a.156.156 0 0 0 .033-.022c.668-.587 1.33-.853 2.282-.595 2.03.55 4.095.53 6.116-.181.067-.024.125-.027.167.045.068.104.106.22.103.346-.023 1.021.081 2.046-.074 3.063-.24 1.568-.982 2.825-2.154 3.813-.226.19-.497.29-.765.394"/></g><g clip-path="url(#a1psa)"><path fill="#955353" d="M23.743 20.959c-.56.17-1.1.4-1.68.509-1.792.336-3.553.132-5.283-.372-.483-.14-.845-.113-1.22.218-.152.135-.31.287-.52.343-.376-2.412 1.312-4.846 3.594-5.202.868-.135 1.74-.06 2.61-.061.122.131.108.3.109.463.004.45-.001.9.002 1.35.008 1.11.641 1.859 1.686 1.993.169.022.342.032.48.147.184.155.373.318.222.612"/></g><g clip-path="url(#a1psa)"><path fill="#656d78" d="M19.07 38.687h-4.189c-.494 0-.989.001-1.483-.002-.122-.001-.28.037-.274-.182.03-.995-.1-1.997.07-2.983.2-1.168 1.18-2.03 2.304-2.076.441-.018.884 0 1.327-.008.158-.003.266.031.33.204.626 1.66 1.258 3.317 1.916 5.047"/></g><g clip-path="url(#a1psa)"><path fill="#656d78" d="M25.617 38.673H20.93c.248-.656.484-1.285.723-1.913.385-1.013.777-2.023 1.153-3.04.078-.21.176-.299.397-.286.389.022.78.013 1.17.017.24.048.422.195.571.391.456.6.756 1.272.781 2.047.026.787.008 1.576.006 2.365 0 .15-.002.301-.113.42"/></g><g clip-path="url(#a1psa)"><path fill="#d2b0a8" d="M20.855 30.064c1.454-.888 2.382-2.186 2.765-3.909.133-.6.132-1.212.126-1.824-.006-.628-.001-1.255 0-1.883l1.104.756c.076.052.147.102.145.22-.015 1.059.103 2.134-.262 3.156-.68 1.907-1.952 3.1-3.878 3.484"/></g><g clip-path="url(#a1psa)"><path fill="#834747" d="M23.743 20.96c-.083-.465-.244-.623-.655-.644-1.05-.053-1.84-.914-1.842-2.005l-.003-1.917c.4-.01.904-.177 1.168.057.255.226.055.768.083 1.17.006.081.001.163.001.245 0 .983 0 .983.922 1.156.904.17 1.561.981 1.576 1.949.004.217.001.434.001.684-.477-.149-.758-.64-1.251-.696"/></g><g clip-path="url(#a1psa)"><path fill="#545c66" d="M25.617 38.673c.001-.874.014-1.748 0-2.622-.019-1.07-.428-1.946-1.246-2.6 1.323-.018 2.457 1.111 2.492 2.507.021.805 0 1.612.01 2.418.003.221-.049.327-.28.314-.325-.02-.65-.012-.976-.017"/></g><g clip-path="url(#a1psa)"><path fill="#f4f6f9" d="M21.87 31.95c.193.596-.328.87-.657 1.25-.063.07-.125.084-.206.036-.08-.047-.171-.073-.243-.129-.51-.393-1.018-.405-1.528-.001-.249.197-.407.103-.656-.086-.593-.453-.443-1.07-.46-1.664-.005-.184.098-.157.2-.127a5.837 5.837 0 0 0 3.35-.003c.145-.043.218-.02.203.162-.013.163-.003.328-.003.561"/></g><g clip-path="url(#a1psa)"><path fill="#e5e8ec" d="M19.997 37.57c-.362-.941-.68-1.773-1.002-2.604-.055-.143-.062-.24.108-.316.262-.116.514-.258.761-.406.228-.136.367.063.527.144.685.345.682.352.4 1.092l-.794 2.09"/></g><g clip-path="url(#a1psa)"><path fill="#e9c5ba" d="M34.29 24.173c-1.252.35-2.907-.435-3.707-1.748-.48-.789-.602-1.658-.6-2.576.003-.56.03-.944.631-1.258.504-.263.786-.408 1.243.024.348.329.844.386 1.322.392.79.008 1.586-.079 2.36.167.245.077.5.135.71.307.189.588.125 1.182.006 1.767-.205 1.012-.663 1.882-1.404 2.577a1.603 1.603 0 0 1-.561.348"/></g><g clip-path="url(#a1psa)"><path fill="#fb6e51" d="M37.402 18.604c-1.114-.705-2.323-.99-3.617-.914-.233.014-.468.01-.701-.002-.684-.035-1.201-.576-1.212-1.294-.013-.915-.001-1.83-.006-2.744 0-.148.03-.255.157-.343.953-.662 1.961-1.06 3.126-.768.991.476 1.563 1.352 2.008 2.341.32.712.459 1.469.443 2.257-.008.367.01.735-.008 1.101-.007.141.046.344-.19.366"/></g><g clip-path="url(#a1psa)"><path fill="#656d78" d="M32.792 30.815c-1.307 0-2.552-.003-3.797.002-.178.001-.257-.049-.254-.251.01-.6-.012-1.2.01-1.799.023-.671.544-1.205 1.184-1.229.428-.016.856 0 1.285-.005.14-.002.246.02.309.176.408 1.014.822 2.024 1.263 3.106"/></g><g clip-path="url(#a1psa)"><path fill="#e8573f" d="M37.402 18.604c.027-.045.077-.088.08-.134.101-1.704-.018-3.35-1.103-4.754-.354-.458-.808-.798-1.23-1.177 1.7.237 3.248 1.853 3.516 3.674.028.188.065.377.067.566.006.993.003 1.986.003 3.052-.441-.471-.865-.878-1.333-1.227"/></g><g clip-path="url(#a1psa)"><path fill="#656d78" d="M37.49 30.801h-2.745c0-.243.135-.433.215-.635.287-.728.606-1.443.879-2.177.124-.335.27-.53.642-.46.176.035.362.015.543.02.4.185.498.585.547.968.086.671.038 1.352.024 2.029a.375.375 0 0 1-.105.255"/></g><g clip-path="url(#a1psa)"><path fill="#d2b0a8" d="M34.29 24.173c1.05-.805 1.725-1.865 1.912-3.224.066-.482.034-.978.047-1.468.441.158.784.472 1.128.784.088.08.107.172.11.289.04 1.668-1.61 3.54-3.197 3.62"/></g><g clip-path="url(#a1psa)"><path fill="#545c66" d="M37.49 30.801c0-.583-.015-1.168.007-1.75a2.221 2.221 0 0 0-.473-1.503c.22-.001.445-.03.661.001.581.084 1.034.616 1.052 1.239.016.572-.003 1.146.008 1.72.005.221-.05.324-.281.31-.324-.02-.65-.012-.974-.017"/></g><g clip-path="url(#a1psa)"><path fill="#f4f6f9" d="M32.493 25.397a4.788 4.788 0 0 0 2.5-.005c0 .377.002.727-.002 1.078-.002.231-.102.293-.295.172-.034-.021-.075-.03-.105-.054-.567-.453-1.117-.425-1.703-.007-.325.232-.39.17-.394-.237-.004-.299 0-.598 0-.947"/></g><g clip-path="url(#a1psa)"><path fill="#e7563f" d="M30.61 13.956c0 .897.02 1.749-.01 2.599-.014.375-.214.687-.606.935 0-.684-.002-1.313 0-1.942 0-.23-.019-.467.019-.692.06-.368.228-.679.596-.9"/></g><g clip-path="url(#a1psa)"><path fill="#e4e7eb" d="M33.742 29.796l-.673-1.636c-.026-.063-.047-.122 0-.19.22-.32 1.151-.318 1.349.01a.195.195 0 0 1 .01.15c-.215.53-.435 1.058-.686 1.666"/></g><g clip-path="url(#a1psa)"><path fill="#545c66" d="M19.956 10.474c-1.184 0-2.369.002-3.553 0-.566-.002-.779-.225-.78-.815-.003-.984.005-1.968-.005-2.952-.003-.274.036-.357.323-.252 1.263.461 2.537.892 3.803 1.345.231.083.435.027.645-.047 1.208-.423 2.418-.84 3.62-1.279.293-.107.375-.068.368.275-.02.97-.005 1.94-.008 2.91-.002.59-.215.813-.78.814-1.211.003-2.422.001-3.633.001"/></g><g clip-path="url(#a1psa)"><path fill="#656d78" d="M25.29 3.258c-1.716 0-3.434.002-5.15-.002-.245 0-.472.032-.63.25a.643.643 0 0 0-.071.691c.13.28.357.374.64.374 1.17-.003 2.342-.001 3.513-.001.57 0 1.142 0 1.727.057-.275.099-.549.2-.824.296-1.405.492-2.81.982-4.213 1.477-.166.059-.32.089-.493.028-2.303-.809-4.607-1.614-6.91-2.422-.044-.016-.085-.045-.144-.077.09-.127.213-.135.315-.17 2.18-.767 4.362-1.527 6.54-2.297.271-.095.517-.108.793-.01 1.549.556 3.102 1.094 4.654 1.638.093.033.186.07.278.105l-.024.063"/></g></g></g></g></svg>