<svg xmlns="http://www.w3.org/2000/svg" width="14" height="10" viewBox="0 0 14 10"><g><g><path fill="#757575" d="M7.002 6.003a1 1 0 1 1 0-2 1 1 0 0 1 0 2zm4.908 3.862a.5.5 0 0 1-.705-.025.5.5 0 0 1 .025-.705 5.709 5.709 0 0 0 0-8.263.5.5 0 0 1 .68-.73 6.698 6.698 0 0 1 0 9.723zm-2.36-1.5a.5.5 0 0 1-.684-.729 3.631 3.631 0 0 0 0-5.265.5.5 0 1 1 .685-.73 4.635 4.635 0 0 1 0 6.725zM2.794 9.84a.5.5 0 0 1-.71.025 6.713 6.713 0 0 1 0-9.722.507.507 0 0 1 .705.729 5.709 5.709 0 0 0 0 8.263.5.5 0 0 1 0 .705zM4.787 8.5a.5.5 0 0 1-.34-.134 4.635 4.635 0 0 1 0-6.725.5.5 0 0 1 .68.73 3.646 3.646 0 0 0 0 5.265.5.5 0 0 1-.34.865z"/></g></g></svg>